ArgentumSans-Bold.ufo
<glyph name="exclam" format="2">
  <advance width="588"/>
  <unicode hex="0021"/>
  <outline>
    <component base="period"/>
    <contour>
      <point x="80" y="1032" type="line"/>
      <point x="160" y="516" type="line"/>
      <point x="428" y="516" type="line"/>
      <point x="508" y="1032" type="line"/>
      <point x="508" y="1400" type="line"/>
      <point x="80" y="1400" type="line"/>
    </contour>
  </outline>
</glyph>
<glyph name="numbersign" format="2">
  <advance width="744"/>
  <unicode hex="0023"/>
  <outline>
    <contour>
      <point x="4" y="138" type="line"/>
      <point x="688" y="138" type="line"/>
      <point x="707" y="291" type="line"/>
      <point x="23" y="291" type="line"/>
    </contour>
    <contour>
      <point x="38" y="400" type="line"/>
      <point x="722" y="400" type="line"/>
      <point x="740" y="553" type="line"/>
      <point x="56" y="553" type="line"/>
    </contour>
    <contour>
      <point x="117" y="0" type="line"/>
      <point x="277" y="0" type="line"/>
      <point x="363" y="700" type="line"/>
      <point x="204" y="700" type="line"/>
    </contour>
    <contour>
      <point x="381" y="0" type="line"/>
      <point x="541" y="0" type="line"/>
      <point x="628" y="700" type="line"/>
      <point x="468" y="700" type="line"/>
    </contour>
  </outline>
</glyph>
<glyph name="dollar" format="2">
  <advance width="664"/>
  <unicode hex="0024"/>
  <outline>
    <component base="S"/>
    <contour>
      <point x="263" y="579" type="line"/>
      <point x="429" y="579" type="line"/>
      <point x="429" y="864" type="line"/>
      <point x="263" y="864" type="line"/>
    </contour>
    <contour>
      <point x="263" y="-165" type="line"/>
      <point x="429" y="-165" type="line"/>
      <point x="429" y="118" type="line"/>
      <point x="263" y="118" type="line"/>
    </contour>
  </outline>
</glyph>
<glyph name="percent" format="2">
  <advance width="1816"/>
  <unicode hex="0025"/>
  <outline>
    <contour>
      <point x="398" y="1410" type="curve" smooth="yes"/>
      <point x="188" y="1410"/>
      <point x="48" y="1256"/>
      <point x="48" y="1022" type="curve" smooth="yes"/>
      <point x="48" y="786"/>
      <point x="188" y="630"/>
      <point x="398" y="630" type="curve" smooth="yes"/>
      <point x="606" y="630"/>
      <point x="744" y="786"/>
      <point x="744" y="1022" type="curve" smooth="yes"/>
      <point x="744" y="1256"/>
      <point x="606" y="1410"/>
    </contour>
    <contour>
      <point x="398" y="1180" type="curve" smooth="yes"/>
      <point x="442" y="1180"/>
      <point x="476" y="1114"/>
      <point x="476" y="1022" type="curve" smooth="yes"/>
      <point x="476" y="924"/>
      <point x="442" y="862"/>
      <point x="398" y="862" type="curve" smooth="yes"/>
      <point x="352" y="862"/>
      <point x="320" y="924"/>
      <point x="320" y="1022" type="curve" smooth="yes"/>
      <point x="320" y="1114"/>
      <point x="352" y="1180"/>
    </contour>
    <contour>
      <point x="260" y="0" type="line"/>
      <point x="558" y="0" type="line"/>
      <point x="1532" y="1402" type="line"/>
      <point x="1234" y="1402" type="line"/>
    </contour>
    <contour>
      <point x="1420" y="770" type="curve" smooth="yes"/>
      <point x="1210" y="770"/>
      <point x="1070" y="616"/>
      <point x="1070" y="382" type="curve" smooth="yes"/>
      <point x="1070" y="146"/>
      <point x="1210" y="-10"/>
      <point x="1420" y="-10" type="curve" smooth="yes"/>
      <point x="1628" y="-10"/>
      <point x="1766" y="146"/>
      <point x="1766" y="382" type="curve" smooth="yes"/>
      <point x="1766" y="616"/>
      <point x="1628" y="770"/>
    </contour>
    <contour>
      <point x="1420" y="540" type="curve" smooth="yes"/>
      <point x="1464" y="540"/>
      <point x="1498" y="474"/>
      <point x="1498" y="382" type="curve" smooth="yes"/>
      <point x="1498" y="284"/>
      <point x="1464" y="222"/>
      <point x="1420" y="222" type="curve" smooth="yes"/>
      <point x="1374" y="222"/>
      <point x="1342" y="284"/>
      <point x="1342" y="382" type="curve" smooth="yes"/>
      <point x="1342" y="474"/>
      <point x="1374" y="540"/>
    </contour>
  </outline>
</glyph>
<glyph name="ampersand" format="2">
  <advance width="1412"/>
  <unicode hex="0026"/>
  <outline>
    <contour>
      <point x="1036" y="744" type="line"/>
      <point x="980" y="484"/>
      <point x="814" y="290"/>
      <point x="634" y="290" type="curve" smooth="yes"/>
      <point x="540" y="290"/>
      <point x="472" y="346"/>
      <point x="472" y="434" type="curve" smooth="yes"/>
      <point x="472" y="670"/>
      <point x="1134" y="680"/>
      <point x="1134" y="1088" type="curve" smooth="yes"/>
      <point x="1134" y="1284"/>
      <point x="950" y="1422"/>
      <point x="692" y="1422" type="curve" smooth="yes"/>
      <point x="426" y="1422"/>
      <point x="260" y="1286"/>
      <point x="260" y="1064" type="curve" smooth="yes"/>
      <point x="260" y="814"/>
      <point x="422" y="636"/>
      <point x="1172" y="-80" type="curve"/>
      <point x="1398" y="138" type="line"/>
      <point x="770" y="718"/>
      <point x="608" y="904"/>
      <point x="608" y="1066" type="curve" smooth="yes"/>
      <point x="608" y="1130"/>
      <point x="640" y="1174"/>
      <point x="696" y="1174" type="curve" smooth="yes"/>
      <point x="748" y="1174"/>
      <point x="784" y="1138"/>
      <point x="784" y="1084" type="curve" smooth="yes"/>
      <point x="784" y="828"/>
      <point x="106" y="832"/>
      <point x="106" y="400" type="curve" smooth="yes"/>
      <point x="106" y="154"/>
      <point x="320" y="-20"/>
      <point x="616" y="-20" type="curve" smooth="yes"/>
      <point x="928" y="-20"/>
      <point x="1198" y="196"/>
      <point x="1318" y="542" type="curve"/>
    </contour>
  </outline>
</glyph>
<glyph name="quotesingle" format="2">
  <advance width="288"/>
  <unicode hex="0027"/>
  <outline>
    <contour>
      <point x="60" y="398" type="line"/>
      <point x="228" y="398" type="line"/>
      <point x="228" y="700" type="line"/>
      <point x="60" y="700" type="line"/>
    </contour>
  </outline>
</glyph>
<glyph name="parenleft" format="2">
  <advance width="370"/>
  <unicode hex="0028"/>
  <outline>
    <contour>
      <point x="180" y="742" type="line"/>
      <point x="94" y="622"/>
      <point x="47" y="469"/>
      <point x="47" y="309" type="curve" smooth="yes"/>
      <point x="47" y="149"/>
      <point x="94" y="-4"/>
      <point x="180" y="-124" type="curve"/>
      <point x="381" y="-124" type="line"/>
      <point x="308" y="-4"/>
      <point x="258" y="149"/>
      <point x="258" y="309" type="curve" smooth="yes"/>
      <point x="258" y="469"/>
      <point x="308" y="622"/>
      <point x="381" y="742" type="curve"/>
    </contour>
  </outline>
</glyph>
<glyph name="parenright" format="2">
  <advance width="370"/>
  <unicode hex="0029"/>
  <outline>
    <contour>
      <point x="190" y="742" type="line"/>
      <point x="276" y="622"/>
      <point x="323" y="469"/>
      <point x="323" y="309" type="curve" smooth="yes"/>
      <point x="323" y="149"/>
      <point x="276" y="-4"/>
      <point x="190" y="-124" type="curve"/>
      <point x="-11" y="-124" type="line"/>
      <point x="62" y="-4"/>
      <point x="112" y="149"/>
      <point x="112" y="309" type="curve" smooth="yes"/>
      <point x="112" y="469"/>
      <point x="62" y="622"/>
      <point x="-11" y="742" type="curve"/>
    </contour>
  </outline>
</glyph>
<glyph name="asterisk" format="2">
  <advance width="406"/>
  <unicode hex="002A"/>
  <outline>
    <contour>
      <point x="150" y="630" type="line"/>
      <point x="75" y="677" type="line"/>
      <point x="20" y="580" type="line"/>
      <point x="98" y="539" type="line"/>
      <point x="20" y="496" type="line"/>
      <point x="75" y="402" type="line"/>
      <point x="151" y="448" type="line"/>
      <point x="148" y="359" type="line"/>
      <point x="258" y="359" type="line"/>
      <point x="255" y="447" type="line"/>
      <point x="331" y="400" type="line"/>
      <point x="386" y="496" type="line"/>
      <point x="307" y="539" type="line"/>
      <point x="386" y="580" type="line"/>
      <point x="331" y="675" type="line"/>
      <point x="256" y="630" type="line"/>
      <point x="258" y="718" type="line"/>
      <point x="148" y="718" type="line"/>
    </contour>
  </outline>
</glyph>
<glyph name="plus" format="2">
  <advance width="520"/>
  <unicode hex="002B"/>
  <outline>
    <contour>
      <point x="30" y="259" type="line"/>
      <point x="490" y="259" type="line"/>
      <point x="490" y="399" type="line"/>
      <point x="30" y="399" type="line"/>
    </contour>
    <contour>
      <point x="190" y="99" type="line"/>
      <point x="330" y="99" type="line"/>
      <point x="330" y="559" type="line"/>
      <point x="190" y="559" type="line"/>
    </contour>
  </outline>
</glyph>
<glyph name="comma" format="2">
  <advance width="270"/>
  <unicode hex="002C"/>
  <outline>
    <contour>
      <point x="104" y="96" type="line"/>
      <point x="10" y="-130" type="line"/>
      <point x="114" y="-130" type="line"/>
      <point x="211" y="16" type="line" smooth="yes"/>
      <point x="226" y="39"/>
      <point x="238" y="65"/>
      <point x="238" y="96" type="curve" smooth="yes"/>
      <point x="238" y="162"/>
      <point x="190" y="197"/>
      <point x="136" y="197" type="curve" smooth="yes"/>
      <point x="76" y="197"/>
      <point x="33" y="155"/>
      <point x="33" y="95" type="curve" smooth="yes"/>
      <point x="33" y="38"/>
      <point x="74" y="-10"/>
      <point x="168" y="-6" type="curve"/>
    </contour>
  </outline>
</glyph>
<glyph name="hyphen" format="2">
  <advance width="380"/>
  <unicode hex="002D"/>
  <outline>
    <contour>
      <point x="50" y="239" type="line"/>
      <point x="330" y="239" type="line"/>
      <point x="330" y="379" type="line"/>
      <point x="50" y="379" type="line"/>
    </contour>
  </outline>
</glyph>
<glyph name="period" format="2">
  <advance width="270"/>
  <unicode hex="002E"/>
  <outline>
    <contour>
      <point x="134" y="197" type="curve" smooth="yes"/>
      <point x="74" y="197"/>
      <point x="32" y="155"/>
      <point x="32" y="95" type="curve" smooth="yes"/>
      <point x="32" y="34"/>
      <point x="74" y="-8"/>
      <point x="134" y="-8" type="curve" smooth="yes"/>
      <point x="195" y="-8"/>
      <point x="237" y="34"/>
      <point x="237" y="95" type="curve" smooth="yes"/>
      <point x="237" y="155"/>
      <point x="195" y="197"/>
    </contour>
  </outline>
</glyph>
<glyph name="slash" format="2">
  <advance width="373"/>
  <unicode hex="002F"/>
  <outline>
    <contour>
      <point x="-50" y="-104" type="line"/>
      <point x="138" y="-104" type="line"/>
      <point x="467" y="806" type="line"/>
      <point x="279" y="806" type="line"/>
    </contour>
  </outline>
</glyph>
<glyph name="zero" format="2">
  <advance width="634"/>
  <unicode hex="0030"/>
  <outline>
    <contour>
      <point x="317" y="708" type="curve" smooth="yes"/>
      <point x="130" y="708"/>
      <point x="28" y="581"/>
      <point x="28" y="351" type="curve" smooth="yes"/>
      <point x="28" y="121"/>
      <point x="130" y="-7"/>
      <point x="317" y="-7" type="curve" smooth="yes"/>
      <point x="503" y="-7"/>
      <point x="606" y="121"/>
      <point x="606" y="351" type="curve" smooth="yes"/>
      <point x="606" y="581"/>
      <point x="503" y="708"/>
    </contour>
    <contour>
      <point x="317" y="539" type="curve" smooth="yes"/>
      <point x="360" y="539"/>
      <point x="370" y="493"/>
      <point x="370" y="351" type="curve" smooth="yes"/>
      <point x="370" y="209"/>
      <point x="360" y="162"/>
      <point x="317" y="162" type="curve" smooth="yes"/>
      <point x="274" y="162"/>
      <point x="264" y="209"/>
      <point x="264" y="351" type="curve" smooth="yes"/>
      <point x="264" y="493"/>
      <point x="274" y="539"/>
    </contour>
  </outline>
</glyph>
<glyph name="one" format="2">
  <advance width="634"/>
  <unicode hex="0031"/>
  <outline>
    <contour>
      <point x="74" y="517" type="line"/>
      <point x="297" y="517" type="line"/>
      <point x="196" y="618" type="line"/>
      <point x="196" y="0" type="line"/>
      <point x="428" y="0" type="line"/>
      <point x="428" y="700" type="line"/>
      <point x="74" y="700" type="line"/>
    </contour>
  </outline>
</glyph>
<glyph name="two" format="2">
  <advance width="634"/>
  <unicode hex="0032"/>
  <outline>
    <contour>
      <point x="44" y="146" type="line"/>
      <point x="44" y="0" type="line"/>
      <point x="593" y="0" type="line"/>
      <point x="593" y="178" type="line"/>
      <point x="237" y="178" type="line"/>
      <point x="267" y="107" type="line"/>
      <point x="446" y="285" type="line" smooth="yes"/>
      <point x="524" y="363"/>
      <point x="583" y="442"/>
      <point x="583" y="523" type="curve" smooth="yes"/>
      <point x="583" y="636"/>
      <point x="473" y="712"/>
      <point x="329" y="712" type="curve" smooth="yes"/>
      <point x="219" y="712"/>
      <point x="116" y="671"/>
      <point x="16" y="603" type="curve"/>
      <point x="102" y="436" type="line"/>
      <point x="170" y="491"/>
      <point x="240" y="526"/>
      <point x="293" y="526" type="curve" smooth="yes"/>
      <point x="323" y="526"/>
      <point x="340" y="513"/>
      <point x="340" y="489" type="curve" smooth="yes"/>
      <point x="340" y="465"/>
      <point x="316" y="430"/>
      <point x="288" y="400" type="curve" smooth="yes"/>
    </contour>
  </outline>
</glyph>
<glyph name="three" format="2">
  <advance width="1268"/>
  <unicode hex="0033"/>
  <outline>
    <contour>
      <point x="610" y="894" type="line"/>
      <point x="656" y="718" type="line"/>
      <point x="1134" y="1138" type="line"/>
      <point x="1134" y="1400" type="line"/>
      <point x="112" y="1400" type="line"/>
      <point x="112" y="1068" type="line"/>
      <point x="790" y="1068" type="line"/>
      <point x="734" y="1202" type="line"/>
      <point x="320" y="810" type="line"/>
      <point x="320" y="570" type="line"/>
      <point x="582" y="570" type="line" smooth="yes"/>
      <point x="694" y="570"/>
      <point x="750" y="524"/>
      <point x="750" y="444" type="curve" smooth="yes"/>
      <point x="750" y="360"/>
      <point x="694" y="322"/>
      <point x="582" y="322" type="curve" smooth="yes"/>
      <point x="452" y="322"/>
      <point x="322" y="372"/>
      <point x="200" y="476" type="curve"/>
      <point x="36" y="166" type="line"/>
      <point x="178" y="54"/>
      <point x="402" y="-20"/>
      <point x="620" y="-20" type="curve" smooth="yes"/>
      <point x="976" y="-20"/>
      <point x="1202" y="172"/>
      <point x="1202" y="444" type="curve" smooth="yes"/>
      <point x="1202" y="654"/>
      <point x="1064" y="794"/>
      <point x="872" y="836" type="curve" smooth="yes"/>
    </contour>
  </outline>
</glyph>
<glyph name="four" format="2">
  <advance width="644"/>
  <unicode hex="0034"/>
  <outline>
    <contour>
      <point x="616" y="135" type="line"/>
      <point x="616" y="301" type="line"/>
      <point x="157" y="301" type="line"/>
      <point x="219" y="208" type="line"/>
      <point x="414" y="700" type="line"/>
      <point x="197" y="700" type="line"/>
      <point x="27" y="286" type="line"/>
      <point x="27" y="135" type="line"/>
    </contour>
    <contour>
      <point x="326" y="0" type="line"/>
      <point x="536" y="0" type="line"/>
      <point x="536" y="434" type="line"/>
      <point x="326" y="434" type="line"/>
    </contour>
  </outline>
</glyph>
<glyph name="five" format="2">
  <advance width="652"/>
  <unicode hex="0035"/>
  <outline>
    <contour>
      <point x="302" y="623" type="line"/>
      <point x="201" y="522" type="line"/>
      <point x="580" y="522" type="line"/>
      <point x="580" y="700" type="line"/>
      <point x="90" y="700" type="line"/>
      <point x="90" y="280" type="line"/>
      <point x="130" y="280"/>
      <point x="257" y="280"/>
      <point x="288" y="280" type="curve" smooth="yes"/>
      <point x="340" y="280"/>
      <point x="364" y="260"/>
      <point x="364" y="221" type="curve" smooth="yes"/>
      <point x="364" y="182"/>
      <point x="339" y="160"/>
      <point x="289" y="160" type="curve" smooth="yes"/>
      <point x="225" y="160"/>
      <point x="163" y="195"/>
      <point x="108" y="241" type="curve"/>
      <point x="25" y="82" type="line"/>
      <point x="103" y="27"/>
      <point x="216" y="-10"/>
      <point x="316" y="-10" type="curve" smooth="yes"/>
      <point x="496" y="-10"/>
      <point x="613" y="88"/>
      <point x="613" y="238" type="curve" smooth="yes"/>
      <point x="613" y="365"/>
      <point x="503" y="448"/>
      <point x="334" y="448" type="curve" smooth="yes"/>
      <point x="322" y="448"/>
      <point x="264" y="448"/>
      <point x="186" y="448" type="curve"/>
      <point x="302" y="348" type="line"/>
    </contour>
  </outline>
</glyph>
<glyph name="six" format="2">
  <advance width="647"/>
  <unicode hex="0036"/>
  <outline>
    <contour>
      <point x="598" y="650" type="line"/>
      <point x="539" y="688"/>
      <point x="448" y="711"/>
      <point x="364" y="711" type="curve" smooth="yes"/>
      <point x="164" y="711"/>
      <point x="33" y="566"/>
      <point x="33" y="342" type="curve" smooth="yes"/>
      <point x="33" y="127"/>
      <point x="149" y="-10"/>
      <point x="341" y="-10" type="curve" smooth="yes"/>
      <point x="500" y="-10"/>
      <point x="607" y="86"/>
      <point x="607" y="236" type="curve" smooth="yes"/>
      <point x="607" y="374"/>
      <point x="519" y="467"/>
      <point x="386" y="467" type="curve" smooth="yes"/>
      <point x="319" y="467"/>
      <point x="273" y="443"/>
      <point x="243" y="410" type="curve"/>
      <point x="243" y="496"/>
      <point x="289" y="542"/>
      <point x="377" y="542" type="curve" smooth="yes"/>
      <point x="431" y="542"/>
      <point x="477" y="526"/>
      <point x="514" y="496" type="curve"/>
    </contour>
    <contour>
      <point x="334" y="307" type="curve" smooth="yes"/>
      <point x="379" y="307"/>
      <point x="402" y="282"/>
      <point x="402" y="237" type="curve" smooth="yes"/>
      <point x="402" y="190"/>
      <point x="378" y="166"/>
      <point x="333" y="166" type="curve" smooth="yes"/>
      <point x="286" y="166"/>
      <point x="263" y="192"/>
      <point x="263" y="236" type="curve" smooth="yes"/>
      <point x="263" y="281"/>
      <point x="287" y="307"/>
    </contour>
  </outline>
</glyph>
<glyph name="seven" format="2">
  <advance width="602"/>
  <unicode hex="0037"/>
  <outline>
    <contour>
      <point x="16" y="425" type="line"/>
      <point x="220" y="425" type="line"/>
      <point x="220" y="625" type="line"/>
      <point x="119" y="523" type="line"/>
      <point x="441" y="523" type="line"/>
      <point x="381" y="617" type="line"/>
      <point x="109" y="0" type="line"/>
      <point x="354" y="0" type="line"/>
      <point x="595" y="547" type="line"/>
      <point x="595" y="701" type="line"/>
      <point x="16" y="701" type="line"/>
    </contour>
  </outline>
</glyph>
<glyph name="eight" format="2">
  <advance width="634"/>
  <unicode hex="0038"/>
  <outline>
    <contour>
      <point x="315" y="711" type="curve" smooth="yes"/>
      <point x="161" y="711"/>
      <point x="60" y="637"/>
      <point x="60" y="522" type="curve" smooth="yes"/>
      <point x="60" y="469"/>
      <point x="92" y="411"/>
      <point x="141" y="375" type="curve"/>
      <point x="70" y="340"/>
      <point x="23" y="269"/>
      <point x="23" y="194" type="curve" smooth="yes"/>
      <point x="23" y="71"/>
      <point x="139" y="-10"/>
      <point x="316" y="-10" type="curve" smooth="yes"/>
      <point x="494" y="-10"/>
      <point x="610" y="72"/>
      <point x="610" y="198" type="curve" smooth="yes"/>
      <point x="610" y="271"/>
      <point x="568" y="340"/>
      <point x="503" y="375" type="curve"/>
      <point x="546" y="407"/>
      <point x="573" y="462"/>
      <point x="573" y="515" type="curve" smooth="yes"/>
      <point x="573" y="634"/>
      <point x="472" y="711"/>
    </contour>
    <contour>
      <point x="317" y="284" type="curve" smooth="yes"/>
      <point x="367" y="284"/>
      <point x="394" y="261"/>
      <point x="394" y="218" type="curve" smooth="yes"/>
      <point x="394" y="177"/>
      <point x="367" y="155"/>
      <point x="316" y="155" type="curve" smooth="yes"/>
      <point x="266" y="155"/>
      <point x="240" y="177"/>
      <point x="240" y="218" type="curve" smooth="yes"/>
      <point x="240" y="261"/>
      <point x="266" y="284"/>
    </contour>
    <contour>
      <point x="316" y="561" type="curve" smooth="yes"/>
      <point x="359" y="561"/>
      <point x="381" y="541"/>
      <point x="381" y="503" type="curve" smooth="yes"/>
      <point x="381" y="467"/>
      <point x="359" y="449"/>
      <point x="316" y="449" type="curve" smooth="yes"/>
      <point x="274" y="449"/>
      <point x="252" y="467"/>
      <point x="252" y="503" type="curve" smooth="yes"/>
      <point x="252" y="541"/>
      <point x="274" y="561"/>
    </contour>
  </outline>
</glyph>
<glyph name="nine" format="2">
  <advance width="1268"/>
  <unicode hex="0039"/>
  <outline>
    <contour>
      <point x="88" y="104" type="line"/>
      <point x="133" y="76"/>
      <point x="244" y="30"/>
      <point x="365" y="-3"/>
      <point x="493" y="-20"/>
      <point x="554" y="-20" type="qcurve" smooth="yes"/>
      <point x="706" y="-20"/>
      <point x="951" y="85"/>
      <point x="1124" y="279"/>
      <point x="1218" y="552"/>
      <point x="1218" y="720" type="qcurve" smooth="yes"/>
      <point x="1218" y="881"/>
      <point x="1134" y="1141"/>
      <point x="975" y="1324"/>
      <point x="747" y="1422"/>
      <point x="604" y="1422" type="qcurve" smooth="yes"/>
      <point x="484" y="1422"/>
      <point x="288" y="1353"/>
      <point x="148" y="1226"/>
      <point x="72" y="1045"/>
      <point x="72" y="932" type="qcurve" smooth="yes"/>
      <point x="72" y="829"/>
      <point x="135" y="658"/>
      <point x="250" y="535"/>
      <point x="412" y="468"/>
      <point x="512" y="468" type="qcurve" smooth="yes"/>
      <point x="562" y="468"/>
      <point x="647" y="486"/>
      <point x="718" y="517"/>
      <point x="776" y="559"/>
      <point x="798" y="584" type="qcurve"/>
      <point x="798" y="520"/>
      <point x="764" y="421"/>
      <point x="697" y="354"/>
      <point x="596" y="320"/>
      <point x="528" y="320" type="qcurve" smooth="yes"/>
      <point x="448" y="320"/>
      <point x="312" y="365"/>
      <point x="256" y="412" type="qcurve"/>
    </contour>
    <contour>
      <point x="618" y="1072" type="qcurve" smooth="yes"/>
      <point x="653" y="1072"/>
      <point x="706" y="1053"/>
      <point x="741" y="1017"/>
      <point x="758" y="965"/>
      <point x="758" y="932" type="qcurve" smooth="yes"/>
      <point x="758" y="898"/>
      <point x="740" y="845"/>
      <point x="704" y="809"/>
      <point x="651" y="790"/>
      <point x="616" y="790" type="qcurve" smooth="yes"/>
      <point x="582" y="790"/>
      <point x="532" y="808"/>
      <point x="499" y="844"/>
      <point x="482" y="896"/>
      <point x="482" y="930" type="qcurve" smooth="yes"/>
      <point x="482" y="965"/>
      <point x="499" y="1018"/>
      <point x="533" y="1054"/>
      <point x="584" y="1072"/>
    </contour>
  </outline>
</glyph>
<glyph name="less" format="2">
  <advance width="1040"/>
  <unicode hex="003C"/>
  <outline>
    <contour>
      <point x="60" y="824" type="line"/>
      <point x="60" y="468" type="line"/>
      <point x="980" y="98" type="line"/>
      <point x="980" y="410" type="line"/>
      <point x="348" y="646" type="line"/>
      <point x="980" y="882" type="line"/>
      <point x="980" y="1194" type="line"/>
    </contour>
  </outline>
</glyph>
<glyph name="equal" format="2">
  <advance width="520"/>
  <unicode hex="003D"/>
  <outline>
    <contour>
      <point x="30" y="369" type="line"/>
      <point x="490" y="369" type="line"/>
      <point x="490" y="509" type="line"/>
      <point x="30" y="509" type="line"/>
    </contour>
    <contour>
      <point x="30" y="149" type="line"/>
      <point x="490" y="149" type="line"/>
      <point x="490" y="289" type="line"/>
      <point x="30" y="289" type="line"/>
    </contour>
  </outline>
</glyph>
<glyph name="question" format="2">
  <advance width="1212"/>
  <unicode hex="003F"/>
  <outline>
    <contour>
      <point x="360" y="516" type="line"/>
      <point x="692" y="516" type="line"/>
      <point x="693" y="516" type="line"/>
      <point x="957" y="551"/>
      <point x="1146" y="727"/>
      <point x="1146" y="952" type="curve" smooth="yes"/>
      <point x="1146" y="1215"/>
      <point x="898" y="1432"/>
      <point x="598" y="1432" type="curve" smooth="yes"/>
      <point x="304" y="1432"/>
      <point x="86" y="1319"/>
      <point x="-26" y="1108" type="curve"/>
      <point x="330" y="930" type="line"/>
      <point x="372" y="1014"/>
      <point x="452" y="1066"/>
      <point x="538" y="1066" type="curve" smooth="yes"/>
      <point x="611" y="1066"/>
      <point x="672" y="1014"/>
      <point x="672" y="952" type="curve" smooth="yes"/>
      <point x="672" y="887"/>
      <point x="609" y="830"/>
      <point x="538" y="830" type="curve" smooth="yes"/>
      <point x="360" y="830" type="line"/>
    </contour>
    <contour>
      <point x="540" y="-20" type="curve" smooth="yes"/>
      <point x="691" y="-20"/>
      <point x="804" y="83"/>
      <point x="804" y="220" type="curve" smooth="yes"/>
      <point x="804" y="357"/>
      <point x="693" y="456"/>
      <point x="540" y="456" type="curve" smooth="yes"/>
      <point x="387" y="456"/>
      <point x="276" y="357"/>
      <point x="276" y="220" type="curve" smooth="yes"/>
      <point x="276" y="83"/>
      <point x="389" y="-20"/>
    </contour>
  </outline>
</glyph>
<glyph name="at" format="2">
  <advance width="865"/>
  <unicode hex="0040"/>
  <outline>
    <contour>
      <point x="641" y="491" type="line"/>
      <point x="506" y="491" type="line"/>
      <point x="506" y="450" type="line"/>
      <point x="506" y="450"/>
      <point x="463" y="503"/>
      <point x="391" y="503" type="curve" smooth="yes"/>
      <point x="273" y="503"/>
      <point x="199" y="396"/>
      <point x="199" y="271" type="curve" smooth="yes"/>
      <point x="199" y="133"/>
      <point x="302" y="43"/>
      <point x="406" y="43" type="curve" smooth="yes"/>
      <point x="452" y="43"/>
      <point x="501" y="62"/>
      <point x="538" y="114" type="curve"/>
      <point x="540" y="107" type="line" smooth="yes"/>
      <point x="555" y="55"/>
      <point x="598" y="33"/>
      <point x="658" y="33" type="curve" smooth="yes"/>
      <point x="769" y="33"/>
      <point x="850" y="129"/>
      <point x="850" y="276" type="curve" smooth="yes"/>
      <point x="850" y="519"/>
      <point x="673" y="698"/>
      <point x="439" y="698" type="curve" smooth="yes"/>
      <point x="204" y="698"/>
      <point x="15" y="509"/>
      <point x="15" y="268" type="curve" smooth="yes"/>
      <point x="15" y="31"/>
      <point x="193" y="-145"/>
      <point x="427" y="-145" type="curve" smooth="yes"/>
      <point x="505" y="-145"/>
      <point x="604" y="-116"/>
      <point x="662" y="-69" type="curve"/>
      <point x="611" y="17" type="line"/>
      <point x="555" y="-27"/>
      <point x="483" y="-46"/>
      <point x="427" y="-46" type="curve" smooth="yes"/>
      <point x="255" y="-46"/>
      <point x="123" y="89"/>
      <point x="123" y="268" type="curve" smooth="yes"/>
      <point x="123" y="450"/>
      <point x="265" y="599"/>
      <point x="439" y="599" type="curve" smooth="yes"/>
      <point x="634" y="599"/>
      <point x="743" y="455"/>
      <point x="743" y="273" type="curve" smooth="yes"/>
      <point x="743" y="184"/>
      <point x="706" y="122"/>
      <point x="671" y="122" type="curve" smooth="yes"/>
      <point x="653" y="122"/>
      <point x="641" y="132"/>
      <point x="641" y="166" type="curve" smooth="yes"/>
    </contour>
    <contour>
      <point x="419" y="379" type="curve" smooth="yes"/>
      <point x="469" y="379"/>
      <point x="497" y="332"/>
      <point x="497" y="275" type="curve" smooth="yes"/>
      <point x="497" y="215"/>
      <point x="470" y="164"/>
      <point x="420" y="164" type="curve" smooth="yes"/>
      <point x="374" y="164"/>
      <point x="347" y="217"/>
      <point x="347" y="276" type="curve" smooth="yes"/>
      <point x="347" y="331"/>
      <point x="375" y="379"/>
    </contour>
  </outline>
</glyph>
<glyph name="A" format="2">
  <advance width="1596"/>
  <unicode hex="0041"/>
  <anchor x="780" y="0" name="bottom"/>
  <anchor x="1452" y="0" name="ogonek"/>
  <anchor x="798" y="1400" name="top"/>
  <anchor x="256" y="1400" name="topleft"/>
  <outline>
    <contour>
      <point x="-20" y="0" type="line"/>
      <point x="455" y="0" type="line"/>
      <point x="795" y="939" type="line"/>
      <point x="1122" y="0" type="line"/>
      <point x="1616" y="0" type="line"/>
      <point x="1046" y="1400" type="line"/>
      <point x="571" y="1400" type="line"/>
    </contour>
    <contour>
      <point x="379" y="198" type="line"/>
      <point x="1182" y="198" type="line"/>
      <point x="1182" y="529" type="line"/>
      <point x="379" y="529" type="line"/>
    </contour>
  </outline>
</glyph>
<glyph name="B" format="2">
  <advance width="723"/>
  <unicode hex="0042"/>
  <outline>
    <contour>
      <point x="50" y="700" type="line"/>
      <point x="50" y="0" type="line"/>
      <point x="421" y="0" type="line" smooth="yes"/>
      <point x="592" y="0"/>
      <point x="703" y="77"/>
      <point x="703" y="197" type="curve" smooth="yes"/>
      <point x="703" y="285"/>
      <point x="648" y="354"/>
      <point x="564" y="373" type="curve"/>
      <point x="636" y="395"/>
      <point x="682" y="454"/>
      <point x="682" y="523" type="curve" smooth="yes"/>
      <point x="682" y="630"/>
      <point x="573" y="700"/>
      <point x="404" y="700" type="curve" smooth="yes"/>
    </contour>
    <contour>
      <point x="281" y="430" type="line"/>
      <point x="281" y="530" type="line"/>
      <point x="391" y="530" type="line" smooth="yes"/>
      <point x="423" y="530"/>
      <point x="444" y="511"/>
      <point x="444" y="481" type="curve" smooth="yes"/>
      <point x="444" y="450"/>
      <point x="423" y="430"/>
      <point x="391" y="430" type="curve" smooth="yes"/>
    </contour>
    <contour>
      <point x="281" y="170" type="line"/>
      <point x="281" y="277" type="line"/>
      <point x="391" y="277" type="line" smooth="yes"/>
      <point x="434" y="277"/>
      <point x="462" y="257"/>
      <point x="462" y="226" type="curve" smooth="yes"/>
      <point x="462" y="192"/>
      <point x="434" y="170"/>
      <point x="391" y="170" type="curve" smooth="yes"/>
    </contour>
  </outline>
</glyph>
<glyph name="C" format="2">
  <advance width="1374"/>
  <unicode hex="0043"/>
  <anchor x="734" y="0" name="bottom"/>
  <anchor x="786" y="1400" name="top"/>
  <outline>
    <contour>
      <point x="1380" y="1170" type="line"/>
      <point x="1236" y="1328"/>
      <point x="1002" y="1430"/>
      <point x="789" y="1430" type="curve" smooth="yes"/>
      <point x="349" y="1430"/>
      <point x="30" y="1124"/>
      <point x="30" y="705" type="curve" smooth="yes"/>
      <point x="30" y="280"/>
      <point x="341" y="-32"/>
      <point x="771" y="-32" type="curve" smooth="yes"/>
      <point x="987" y="-32"/>
      <point x="1224" y="80"/>
      <point x="1380" y="252" type="curve"/>
      <point x="1112" y="537" type="line"/>
      <point x="1020" y="437"/>
      <point x="895" y="373"/>
      <point x="795" y="373" type="curve" smooth="yes"/>
      <point x="627" y="373"/>
      <point x="505" y="515"/>
      <point x="505" y="711" type="curve" smooth="yes"/>
      <point x="505" y="905"/>
      <point x="627" y="1044"/>
      <point x="795" y="1044" type="curve" smooth="yes"/>
      <point x="903" y="1044"/>
      <point x="1028" y="969"/>
      <point x="1112" y="853" type="curve"/>
    </contour>
  </outline>
</glyph>
<glyph name="D" format="2">
  <advance width="758"/>
  <unicode hex="0044"/>
  <anchor x="353" y="0" name="bottom"/>
  <anchor x="351" y="700" name="top"/>
  <outline>
    <contour>
      <point x="49.925" y="699.948" type="line"/>
      <point x="49.925" y="0" type="line"/>
      <point x="353.469" y="0" type="line" smooth="yes"/>
      <point x="590.113" y="0"/>
      <point x="742.884" y="137.793"/>
      <point x="742.884" y="350.473" type="curve" smooth="yes"/>
      <point x="742.884" y="563.154"/>
      <point x="593.109" y="699.948"/>
      <point x="362.455" y="699.948" type="curve" smooth="yes"/>
    </contour>
    <contour>
      <point x="281.577" y="179.73" type="line"/>
      <point x="281.577" y="520.218" type="line"/>
      <point x="357.463" y="520.218" type="line" smooth="yes"/>
      <point x="447.328" y="520.218"/>
      <point x="506.239" y="452.32"/>
      <point x="506.239" y="348.476" type="curve" smooth="yes"/>
      <point x="506.239" y="245.631"/>
      <point x="452.32" y="179.73"/>
      <point x="368.446" y="179.73" type="curve" smooth="yes"/>
    </contour>
  </outline>
</glyph>
<glyph name="E" format="2">
  <advance width="689"/>
  <unicode hex="0045"/>
  <anchor x="350" y="0" name="bottom"/>
  <anchor x="651" y="0" name="ogonek"/>
  <anchor x="347" y="700" name="top"/>
  <anchor x="-16" y="700" name="topleft"/>
  <outline>
    <contour>
      <point x="49.925" y="0" type="line"/>
      <point x="651.022" y="0" type="line"/>
      <point x="651.022" y="175.736" type="line"/>
      <point x="281.577" y="175.736" type="line"/>
      <point x="281.577" y="262.605" type="line"/>
      <point x="609.085" y="262.605" type="line"/>
      <point x="609.085" y="438.341" type="line"/>
      <point x="281.577" y="438.341" type="line"/>
      <point x="281.577" y="524.212" type="line"/>
      <point x="642.035" y="524.212" type="line"/>
      <point x="642.035" y="699.948" type="line"/>
      <point x="49.925" y="699.948" type="line"/>
    </contour>
  </outline>
</glyph>
<glyph name="F" format="2">
  <advance width="630"/>
  <unicode hex="0046"/>
  <outline>
    <contour>
      <point x="50" y="0" type="line"/>
      <point x="282" y="0" type="line"/>
      <point x="282" y="228" type="line"/>
      <point x="592" y="228" type="line"/>
      <point x="592" y="403" type="line"/>
      <point x="282" y="403" type="line"/>
      <point x="282" y="524" type="line"/>
      <point x="613" y="524" type="line"/>
      <point x="613" y="700" type="line"/>
      <point x="50" y="700" type="line"/>
    </contour>
  </outline>
</glyph>
<glyph name="G" format="2">
  <advance width="737"/>
  <unicode hex="0047"/>
  <anchor x="395" y="0" name="bottom"/>
  <anchor x="409" y="700" name="top"/>
  <outline>
    <contour>
      <point x="711.93" y="605.091" type="line"/>
      <point x="637.043" y="671.99"/>
      <point x="518.221" y="714.926"/>
      <point x="409.385" y="714.926" type="curve" smooth="yes"/>
      <point x="180.728" y="714.926"/>
      <point x="14.9775" y="561.157"/>
      <point x="14.9775" y="350.473" type="curve" smooth="yes"/>
      <point x="14.9775" y="138.791"/>
      <point x="174.737" y="-15.976"/>
      <point x="394.407" y="-15.976" type="curve" smooth="yes"/>
      <point x="494.257" y="-15.976"/>
      <point x="622.065" y="22.9655"/>
      <point x="699.948" y="75.886" type="curve"/>
      <point x="570.143" y="238.641" type="line"/>
      <point x="519.22" y="202.695"/>
      <point x="451.322" y="176.734"/>
      <point x="410.383" y="176.734" type="curve" smooth="yes"/>
      <point x="319.52" y="176.734"/>
      <point x="252.62" y="249.625"/>
      <point x="252.62" y="350.473" type="curve" smooth="yes"/>
      <point x="252.62" y="449.325"/>
      <point x="318.521" y="522.215"/>
      <point x="408.386" y="522.215" type="curve" smooth="yes"/>
      <point x="466.299" y="522.215"/>
      <point x="534.197" y="492.26"/>
      <point x="581.127" y="446.329" type="curve"/>
    </contour>
    <contour>
      <point x="483.274" y="184.722" type="line"/>
      <point x="699.948" y="75.886" type="line"/>
      <point x="699.948" y="416.374" type="line"/>
      <point x="360.458" y="416.374" type="line"/>
      <point x="360.458" y="255.616" type="line"/>
      <point x="483.274" y="255.616" type="line"/>
    </contour>
  </outline>
</glyph>
<glyph name="H" format="2">
  <advance width="1560"/>
  <unicode hex="0048"/>
  <anchor x="780" y="0" name="bottom"/>
  <anchor x="778" y="1124" name="center"/>
  <anchor x="800" y="1400" name="top"/>
  <outline>
    <contour>
      <point x="100" y="0" type="line"/>
      <point x="563" y="0" type="line"/>
      <point x="563" y="505" type="line"/>
      <point x="997" y="505" type="line"/>
      <point x="997" y="0" type="line"/>
      <point x="1460" y="0" type="line"/>
      <point x="1460" y="1400" type="line"/>
      <point x="997" y="1400" type="line"/>
      <point x="997" y="857" type="line"/>
      <point x="563" y="857" type="line"/>
      <point x="563" y="1400" type="line"/>
      <point x="100" y="1400" type="line"/>
    </contour>
  </outline>
</glyph>
<glyph name="I" format="2">
  <advance width="664"/>
  <unicode hex="0049"/>
  <anchor x="332" y="0" name="bottom"/>
  <anchor x="428" y="0" name="ogonek"/>
  <anchor x="332" y="1400" name="top"/>
  <anchor x="-32" y="1400" name="topleft"/>
  <outline>
    <contour>
      <point x="100" y="0" type="line"/>
      <point x="563" y="0" type="line"/>
      <point x="563" y="1400" type="line"/>
      <point x="100" y="1400" type="line"/>
    </contour>
  </outline>
</glyph>
<glyph name="J" format="2">
  <advance width="568"/>
  <unicode hex="004A"/>
  <anchor x="291" y="700" name="top"/>
  <outline>
    <contour>
      <point x="528.206" y="699.948" type="line"/>
      <point x="295.556" y="699.948" type="line"/>
      <point x="295.556" y="241.637" type="line" smooth="yes"/>
      <point x="295.556" y="201.697"/>
      <point x="274.587" y="182.725"/>
      <point x="242.635" y="182.725" type="curve" smooth="yes"/>
      <point x="207.688" y="182.725"/>
      <point x="151.772" y="206.689"/>
      <point x="96.8545" y="261.607" type="curve"/>
      <point x="-7.988" y="111.832" type="line"/>
      <point x="62.9055" y="33.949"/>
      <point x="151.772" y="-9.985"/>
      <point x="264.602" y="-9.985" type="curve" smooth="yes"/>
      <point x="425.361" y="-9.985"/>
      <point x="528.206" y="79.88"/>
      <point x="528.206" y="236.644" type="curve" smooth="yes"/>
    </contour>
  </outline>
</glyph>
<glyph name="K" format="2">
  <advance width="772"/>
  <unicode hex="004B"/>
  <anchor x="372" y="0" name="bottom"/>
  <anchor x="372" y="700" name="top"/>
  <outline>
    <contour>
      <point x="49.925" y="0" type="line"/>
      <point x="281.577" y="0" type="line"/>
      <point x="281.577" y="169.745" type="line"/>
      <point x="756.863" y="699.948" type="line"/>
      <point x="490.263" y="699.948" type="line"/>
      <point x="281.577" y="444.332" type="line"/>
      <point x="281.577" y="699.948" type="line"/>
      <point x="49.925" y="699.948" type="line"/>
    </contour>
    <contour>
      <point x="336.494" y="261.607" type="line"/>
      <point x="495.256" y="0" type="line"/>
      <point x="771.84" y="0" type="line"/>
      <point x="491.262" y="443.334" type="line"/>
    </contour>
  </outline>
</glyph>
<glyph name="L" format="2">
  <advance width="583"/>
  <unicode hex="004C"/>
  <anchor x="312" y="0" name="bottom"/>
  <anchor x="449" y="439" name="center"/>
  <anchor x="159" y="700" name="top"/>
  <anchor x="415" y="700" name="topright"/>
  <outline>
    <contour>
      <point x="49.925" y="0" type="line"/>
      <point x="573.139" y="0" type="line"/>
      <point x="573.139" y="192.71" type="line"/>
      <point x="281.577" y="192.71" type="line"/>
      <point x="281.577" y="699.948" type="line"/>
      <point x="49.925" y="699.948" type="line"/>
    </contour>
  </outline>
  <guideline angle="90" x="573.139" y="0"/>
</glyph>
<glyph name="M" format="2">
  <advance width="1876"/>
  <unicode hex="004D"/>
  <anchor x="936" y="0" name="bottom"/>
  <outline>
    <contour>
      <point x="100" y="0" type="line"/>
      <point x="505" y="0" type="line"/>
      <point x="505" y="767" type="line"/>
      <point x="787" y="136" type="line"/>
      <point x="1088" y="136" type="line"/>
      <point x="1370" y="767" type="line"/>
      <point x="1370" y="0" type="line"/>
      <point x="1775" y="0" type="line"/>
      <point x="1775" y="1400" type="line"/>
      <point x="1284" y="1400" type="line"/>
      <point x="939" y="669" type="line"/>
      <point x="591" y="1400" type="line"/>
      <point x="100" y="1400" type="line"/>
    </contour>
  </outline>
</glyph>
<glyph name="N" format="2">
  <advance width="1560"/>
  <unicode hex="004E"/>
  <anchor x="796" y="0" name="bottom"/>
  <anchor x="780" y="1400" name="top"/>
  <outline>
    <contour>
      <point x="100" y="0" type="line"/>
      <point x="521" y="0" type="line"/>
      <point x="521" y="917" type="line"/>
      <point x="397" y="875" type="line"/>
      <point x="1072" y="0" type="line"/>
      <point x="1460" y="0" type="line"/>
      <point x="1460" y="1400" type="line"/>
      <point x="1040" y="1400" type="line"/>
      <point x="1040" y="479" type="line"/>
      <point x="1164" y="521" type="line"/>
      <point x="487" y="1400" type="line"/>
      <point x="100" y="1400" type="line"/>
    </contour>
  </outline>
</glyph>
<glyph name="O" format="2">
  <advance width="1598"/>
  <unicode hex="004F"/>
  <anchor x="798" y="0" name="bottom"/>
  <anchor x="798" y="702" name="center"/>
  <anchor x="1288" y="0" name="ogonek"/>
  <anchor x="798" y="1400" name="top"/>
  <anchor x="40" y="1416" name="topleft"/>
  <anchor x="1124" y="1400" name="topright"/>
  <outline>
    <contour>
      <point x="799" y="1430" type="curve" smooth="yes"/>
      <point x="353" y="1430"/>
      <point x="30" y="1126"/>
      <point x="30" y="703" type="curve" smooth="yes"/>
      <point x="30" y="278"/>
      <point x="353" y="-32"/>
      <point x="799" y="-32" type="curve" smooth="yes"/>
      <point x="1244" y="-32"/>
      <point x="1568" y="280"/>
      <point x="1568" y="703" type="curve" smooth="yes"/>
      <point x="1568" y="1124"/>
      <point x="1244" y="1430"/>
    </contour>
    <contour>
      <point x="805" y="1044" type="curve" smooth="yes"/>
      <point x="965" y="1044"/>
      <point x="1092" y="901"/>
      <point x="1092" y="701" type="curve" smooth="yes"/>
      <point x="1092" y="501"/>
      <point x="965" y="353"/>
      <point x="805" y="353" type="curve" smooth="yes"/>
      <point x="645" y="353"/>
      <point x="505" y="501"/>
      <point x="505" y="701" type="curve" smooth="yes"/>
      <point x="505" y="901"/>
      <point x="643" y="1044"/>
    </contour>
  </outline>
  <guideline angle="90" x="955" y="0"/>
</glyph>
<glyph name="P" format="2">
  <advance width="1370"/>
  <unicode hex="0050"/>
  <outline>
    <contour>
      <point x="100" y="1400" type="line"/>
      <point x="100" y="0" type="line"/>
      <point x="563" y="0" type="line"/>
      <point x="563" y="565" type="line"/>
      <point x="361" y="363" type="line"/>
      <point x="757" y="363" type="line" smooth="yes"/>
      <point x="1120" y="363"/>
      <point x="1330" y="559"/>
      <point x="1330" y="899" type="curve" smooth="yes"/>
      <point x="1330" y="1218"/>
      <point x="1120" y="1400"/>
      <point x="757" y="1400" type="curve" smooth="yes"/>
    </contour>
    <contour>
      <point x="361" y="715" type="line"/>
      <point x="563" y="513" type="line"/>
      <point x="563" y="1250" type="line"/>
      <point x="361" y="1048" type="line"/>
      <point x="733" y="1048" type="line" smooth="yes"/>
      <point x="833" y="1048"/>
      <point x="891" y="989"/>
      <point x="891" y="885" type="curve" smooth="yes"/>
      <point x="891" y="777"/>
      <point x="833" y="715"/>
      <point x="733" y="715" type="curve" smooth="yes"/>
    </contour>
  </outline>
</glyph>
<glyph name="Q" format="2">
  <advance width="850"/>
  <unicode hex="0051"/>
  <anchor x="402" y="0" name="bottom"/>
  <anchor x="399" y="351" name="center"/>
  <anchor x="644" y="0" name="ogonek"/>
  <anchor x="389" y="700" name="top"/>
  <anchor x="-15" y="700" name="topleft"/>
  <anchor x="477" y="723" name="topright"/>
  <outline>
    <component base="O"/>
    <contour>
      <point x="609.085" y="0" type="line"/>
      <point x="314.527" y="299.55" type="line"/>
      <point x="504.242" y="299.55" type="line"/>
      <point x="798.8" y="0" type="line"/>
    </contour>
  </outline>
</glyph>
<glyph name="R" format="2">
  <advance width="738"/>
  <unicode hex="0052"/>
  <anchor x="358" y="0" name="bottom"/>
  <anchor x="361" y="700" name="top"/>
  <outline>
    <contour>
      <point x="49.925" y="699.948" type="line"/>
      <point x="49.925" y="0" type="line"/>
      <point x="281.577" y="0" type="line"/>
      <point x="281.577" y="181.727" type="line"/>
      <point x="388.416" y="181.727" type="line" smooth="yes"/>
      <point x="578.131" y="181.727"/>
      <point x="686.968" y="279.58"/>
      <point x="686.968" y="449.325" type="curve" smooth="yes"/>
      <point x="686.968" y="609.085"/>
      <point x="578.131" y="699.948"/>
      <point x="388.416" y="699.948" type="curve" smooth="yes"/>
    </contour>
    <contour>
      <point x="281.577" y="357.463" type="line"/>
      <point x="281.577" y="524.212" type="line"/>
      <point x="388.416" y="524.212" type="line" smooth="yes"/>
      <point x="438.341" y="524.212"/>
      <point x="467.298" y="494.257"/>
      <point x="467.298" y="442.335" type="curve" smooth="yes"/>
      <point x="467.298" y="388.416"/>
      <point x="438.341" y="357.463"/>
      <point x="388.416" y="357.463" type="curve" smooth="yes"/>
    </contour>
    <contour>
      <point x="452.32" y="0" type="line"/>
      <point x="713.927" y="0" type="line"/>
      <point x="553.169" y="264.602" type="line"/>
      <point x="329.505" y="264.602" type="line"/>
    </contour>
  </outline>
</glyph>
<glyph name="S" format="2">
  <advance width="663"/>
  <unicode hex="0053"/>
  <anchor x="344" y="0" name="bottom"/>
  <anchor x="358" y="700" name="top"/>
  <outline>
    <contour>
      <point x="658.011" y="634.047" type="line"/>
      <point x="579.13" y="683.972"/>
      <point x="464.302" y="717.921"/>
      <point x="353.469" y="717.921" type="curve" smooth="yes"/>
      <point x="171.742" y="717.921"/>
      <point x="53.919" y="629.055"/>
      <point x="53.919" y="487.268" type="curve" smooth="yes"/>
      <point x="53.919" y="236.644"/>
      <point x="416.374" y="298.551"/>
      <point x="416.374" y="203.694" type="curve" smooth="yes"/>
      <point x="416.374" y="176.734"/>
      <point x="394.407" y="164.752"/>
      <point x="360.458" y="164.752" type="curve" smooth="yes"/>
      <point x="289.565" y="164.752"/>
      <point x="165.751" y="213.679"/>
      <point x="93.859" y="275.586" type="curve"/>
      <point x="7.988" y="100.848" type="line"/>
      <point x="100.848" y="28.9565"/>
      <point x="236.644" y="-12.9805"/>
      <point x="358.461" y="-12.9805" type="curve" smooth="yes"/>
      <point x="516.224" y="-12.9805"/>
      <point x="653.019" y="57.913"/>
      <point x="653.019" y="215.676" type="curve" smooth="yes"/>
      <point x="653.019" y="473.289"/>
      <point x="290.563" y="416.374"/>
      <point x="290.563" y="509.235" type="curve" smooth="yes"/>
      <point x="290.563" y="531.202"/>
      <point x="307.538" y="540.188"/>
      <point x="333.499" y="540.188" type="curve" smooth="yes"/>
      <point x="394.407" y="540.188"/>
      <point x="503.244" y="498.251"/>
      <point x="574.137" y="457.313" type="curve"/>
    </contour>
  </outline>
</glyph>
<glyph name="T" format="2">
  <advance width="640"/>
  <unicode hex="0054"/>
  <anchor x="320" y="0" name="bottom"/>
  <anchor x="336" y="700" name="top"/>
  <outline>
    <contour>
      <point x="4.9925" y="517.223" type="line"/>
      <point x="203.694" y="517.223" type="line"/>
      <point x="203.694" y="0" type="line"/>
      <point x="435.346" y="0" type="line"/>
      <point x="435.346" y="517.223" type="line"/>
      <point x="635.046" y="517.223" type="line"/>
      <point x="635.046" y="699.948" type="line"/>
      <point x="4.9925" y="699.948" type="line"/>
    </contour>
  </outline>
</glyph>
<glyph name="U" format="2">
  <advance width="740"/>
  <unicode hex="0055"/>
  <anchor x="370" y="0" name="bottom"/>
  <anchor x="608" y="0" name="ogonek"/>
  <anchor x="370" y="700" name="top"/>
  <anchor x="630" y="700" name="topright"/>
  <outline>
    <contour>
      <point x="271.592" y="699.948" type="line"/>
      <point x="39.94" y="699.948" type="line"/>
      <point x="39.94" y="290.563" type="line" smooth="yes"/>
      <point x="39.94" y="104.842"/>
      <point x="172.74" y="-15.976"/>
      <point x="372.44" y="-15.976" type="curve" smooth="yes"/>
      <point x="571.142" y="-15.976"/>
      <point x="699.948" y="104.842"/>
      <point x="699.948" y="290.563" type="curve" smooth="yes"/>
      <point x="699.948" y="699.948" type="line"/>
      <point x="468.296" y="699.948" type="line"/>
      <point x="468.296" y="290.563" type="line" smooth="yes"/>
      <point x="468.296" y="220.668"/>
      <point x="426.359" y="176.734"/>
      <point x="373.439" y="176.734" type="curve" smooth="yes"/>
      <point x="319.52" y="176.734"/>
      <point x="271.592" y="221.667"/>
      <point x="271.592" y="290.563" type="curve" smooth="yes"/>
    </contour>
  </outline>
</glyph>
<glyph name="V" format="2">
  <advance width="1526"/>
  <unicode hex="0056"/>
  <outline>
    <contour>
      <point x="522" y="0" type="line"/>
      <point x="1000" y="0" type="line"/>
      <point x="1536" y="1400" type="line"/>
      <point x="1062" y="1400" type="line"/>
      <point x="774" y="482" type="line"/>
      <point x="486" y="1400" type="line"/>
      <point x="-10" y="1400" type="line"/>
    </contour>
  </outline>
</glyph>
<glyph name="W" format="2">
  <advance width="1149"/>
  <unicode hex="0057"/>
  <anchor x="575" y="0" name="bottom"/>
  <anchor x="575" y="700" name="top"/>
  <outline>
    <contour>
      <point x="229.655" y="0" type="line"/>
      <point x="467.298" y="0" type="line"/>
      <point x="600.098" y="516.224" type="line"/>
      <point x="550.173" y="516.224" type="line"/>
      <point x="679.978" y="0" type="line"/>
      <point x="917.621" y="0" type="line"/>
      <point x="1154.27" y="699.948" type="line"/>
      <point x="917.621" y="699.948" type="line"/>
      <point x="782.824" y="142.785" type="line"/>
      <point x="830.752" y="142.785" type="line"/>
      <point x="692.959" y="699.948" type="line"/>
      <point x="467.298" y="699.948" type="line"/>
      <point x="331.502" y="142.785" type="line"/>
      <point x="379.43" y="142.785" type="line"/>
      <point x="242.635" y="699.948" type="line"/>
      <point x="-4.9925" y="699.948" type="line"/>
    </contour>
  </outline>
</glyph>
<glyph name="X" format="2">
  <advance width="772"/>
  <unicode hex="0058"/>
  <outline>
    <contour>
      <point x="241" y="355" type="line"/>
      <point x="-5" y="0" type="line"/>
      <point x="266" y="0" type="line"/>
      <point x="381" y="181" type="line"/>
      <point x="499" y="0" type="line"/>
      <point x="777" y="0" type="line"/>
      <point x="529" y="366" type="line"/>
      <point x="756" y="700" type="line"/>
      <point x="483" y="700" type="line"/>
      <point x="381" y="535" type="line"/>
      <point x="280" y="700" type="line"/>
      <point x="10" y="700" type="line"/>
    </contour>
  </outline>
</glyph>
<glyph name="Y" format="2">
  <advance width="1436"/>
  <unicode hex="0059"/>
  <anchor x="722" y="0" name="bottom"/>
  <anchor x="718" y="1400" name="top"/>
  <outline>
    <contour>
      <point x="693" y="40" type="line"/>
      <point x="749" y="40" type="line"/>
      <point x="1456" y="1400" type="line"/>
      <point x="995" y="1400" type="line"/>
      <point x="723" y="861" type="line"/>
      <point x="441" y="1400" type="line"/>
      <point x="-20" y="1400" type="line"/>
    </contour>
    <contour>
      <point x="491" y="0" type="line"/>
      <point x="955" y="0" type="line"/>
      <point x="955" y="633" type="line"/>
      <point x="491" y="633" type="line"/>
    </contour>
  </outline>
</glyph>
<glyph name="Z" format="2">
  <advance width="682"/>
  <unicode hex="005A"/>
  <anchor x="341" y="0" name="bottom"/>
  <anchor x="343" y="700" name="top"/>
  <outline>
    <contour>
      <point x="31.952" y="522.215" type="line"/>
      <point x="346.479" y="522.215" type="line"/>
      <point x="19.97" y="144.782" type="line"/>
      <point x="19.97" y="0" type="line"/>
      <point x="662.005" y="0" type="line"/>
      <point x="662.005" y="177.733" type="line"/>
      <point x="328.506" y="177.733" type="line"/>
      <point x="655.016" y="555.166" type="line"/>
      <point x="655.016" y="699.948" type="line"/>
      <point x="31.952" y="699.948" type="line"/>
    </contour>
  </outline>
</glyph>
<glyph name="bracketleft" format="2">
  <advance width="381"/>
  <unicode hex="005B"/>
  <outline>
    <contour>
      <point x="54" y="-124" type="line"/>
      <point x="371" y="-124" type="line"/>
      <point x="371" y="42" type="line"/>
      <point x="254" y="42" type="line"/>
      <point x="254" y="576" type="line"/>
      <point x="371" y="576" type="line"/>
      <point x="371" y="742" type="line"/>
      <point x="54" y="742" type="line"/>
    </contour>
  </outline>
</glyph>
<glyph name="bracketright" format="2">
  <advance width="381"/>
  <unicode hex="005D"/>
  <outline>
    <contour>
      <point x="327" y="-124" type="line"/>
      <point x="10" y="-124" type="line"/>
      <point x="10" y="42" type="line"/>
      <point x="127" y="42" type="line"/>
      <point x="127" y="576" type="line"/>
      <point x="10" y="576" type="line"/>
      <point x="10" y="742" type="line"/>
      <point x="327" y="742" type="line"/>
    </contour>
  </outline>
</glyph>
<glyph name="asciicircum" format="2">
  <advance width="1216"/>
  <unicode hex="005E"/>
  <outline>
    <contour>
      <point x="787" y="1047" type="line"/>
      <point x="430" y="1047" type="line"/>
      <point x="60" y="287" type="line"/>
      <point x="372" y="287" type="line"/>
      <point x="609" y="810" type="line"/>
      <point x="845" y="287" type="line"/>
      <point x="1157" y="287" type="line"/>
    </contour>
  </outline>
</glyph>
<glyph name="a" format="2">
  <advance width="613"/>
  <unicode hex="0061"/>
  <anchor x="285" y="0" name="bottom"/>
  <anchor x="516" y="0" name="ogonek"/>
  <anchor x="308" y="547" name="top"/>
  <outline>
    <contour>
      <point x="371" y="225" type="line"/>
      <point x="371" y="329" type="line"/>
      <point x="227" y="329" type="line"/>
      <point x="88" y="327"/>
      <point x="15" y="270"/>
      <point x="15" y="162" type="curve" smooth="yes"/>
      <point x="15" y="58"/>
      <point x="82" y="-10"/>
      <point x="198" y="-10" type="curve" smooth="yes"/>
      <point x="291" y="-10"/>
      <point x="352" y="34"/>
      <point x="378" y="109" type="curve"/>
      <point x="352" y="175" type="line"/>
      <point x="334" y="148"/>
      <point x="305" y="133"/>
      <point x="276" y="133" type="curve" smooth="yes"/>
      <point x="244" y="133"/>
      <point x="226" y="151"/>
      <point x="226" y="181" type="curve" smooth="yes"/>
      <point x="226" y="210"/>
      <point x="243" y="225"/>
      <point x="274" y="225" type="curve" smooth="yes"/>
    </contour>
    <contour>
      <point x="352" y="0" type="line"/>
      <point x="573" y="0" type="line"/>
      <point x="573" y="354" type="line" smooth="yes"/>
      <point x="573" y="483"/>
      <point x="479" y="557"/>
      <point x="321" y="557" type="curve" smooth="yes"/>
      <point x="240" y="557"/>
      <point x="144" y="538"/>
      <point x="51" y="504" type="curve"/>
      <point x="101" y="354" type="line"/>
      <point x="163" y="377"/>
      <point x="226" y="389"/>
      <point x="267" y="389" type="curve" smooth="yes"/>
      <point x="323" y="389"/>
      <point x="352" y="366"/>
      <point x="352" y="327" type="curve"/>
    </contour>
  </outline>
</glyph>
<glyph name="c" format="2">
  <advance width="561"/>
  <unicode hex="0063"/>
  <anchor x="290" y="0" name="bottom"/>
  <anchor x="298" y="547" name="top"/>
  <outline>
    <contour>
      <point x="563" y="397" type="line"/>
      <point x="518" y="497"/>
      <point x="423" y="555"/>
      <point x="304" y="555" type="curve" smooth="yes"/>
      <point x="129" y="555"/>
      <point x="15" y="443"/>
      <point x="15" y="271" type="curve" smooth="yes"/>
      <point x="15" y="102"/>
      <point x="128" y="-8"/>
      <point x="302" y="-8" type="curve" smooth="yes"/>
      <point x="427" y="-8"/>
      <point x="523" y="48"/>
      <point x="563" y="145" type="curve"/>
      <point x="381" y="229" type="line"/>
      <point x="369" y="188"/>
      <point x="346" y="170"/>
      <point x="314" y="170" type="curve" smooth="yes"/>
      <point x="270" y="170"/>
      <point x="242" y="210"/>
      <point x="242" y="272" type="curve" smooth="yes"/>
      <point x="242" y="333"/>
      <point x="270" y="373"/>
      <point x="314" y="373" type="curve" smooth="yes"/>
      <point x="346" y="373"/>
      <point x="370" y="354"/>
      <point x="384" y="321" type="curve"/>
    </contour>
  </outline>
</glyph>
<glyph name="d" format="2">
  <advance width="1380"/>
  <unicode hex="0064"/>
  <anchor x="708" y="0" name="bottom"/>
  <anchor x="1010" y="1260" name="center"/>
  <anchor x="1400" y="1484" name="topright"/>
  <outline>
    <contour>
      <point x="520" y="1110" type="curve" smooth="yes"/>
      <point x="222" y="1110"/>
      <point x="30" y="892"/>
      <point x="30" y="554" type="curve" smooth="yes"/>
      <point x="30" y="208"/>
      <point x="228" y="-16"/>
      <point x="532" y="-16" type="curve" smooth="yes"/>
      <point x="784" y="-16"/>
      <point x="946" y="208"/>
      <point x="946" y="552" type="curve"/>
      <point x="946" y="890"/>
      <point x="778" y="1110"/>
    </contour>
    <contour>
      <point x="648" y="754" type="curve" smooth="yes"/>
      <point x="746" y="754"/>
      <point x="810" y="670"/>
      <point x="810" y="542" type="curve" smooth="yes"/>
      <point x="810" y="414"/>
      <point x="746" y="330"/>
      <point x="648" y="330" type="curve" smooth="yes"/>
      <point x="548" y="330"/>
      <point x="484" y="414"/>
      <point x="484" y="542" type="curve" smooth="yes"/>
      <point x="484" y="670"/>
      <point x="548" y="754"/>
    </contour>
    <contour>
      <point x="810" y="0" type="line"/>
      <point x="1260" y="0" type="line"/>
      <point x="1260" y="1484" type="line"/>
      <point x="810" y="1484" type="line"/>
    </contour>
  </outline>
</glyph>
<glyph name="e" format="2">
  <advance width="1228"/>
  <unicode hex="0065"/>
  <anchor x="614" y="0" name="bottom"/>
  <anchor x="1070" y="0" name="ogonek"/>
  <anchor x="606" y="1094" name="top"/>
  <outline>
    <contour>
      <point x="408" y="654" type="line"/>
      <point x="408" y="446" type="line"/>
      <point x="1196" y="446" type="line"/>
      <point x="1220" y="850"/>
      <point x="996" y="1110"/>
      <point x="614" y="1110" type="curve" smooth="yes"/>
      <point x="262" y="1110"/>
      <point x="30" y="888"/>
      <point x="30" y="542" type="curve" smooth="yes"/>
      <point x="30" y="204"/>
      <point x="252" y="-16"/>
      <point x="626" y="-16" type="curve" smooth="yes"/>
      <point x="838" y="-16"/>
      <point x="1006" y="56"/>
      <point x="1122" y="184" type="curve"/>
      <point x="888" y="414" type="line"/>
      <point x="820" y="350"/>
      <point x="742" y="316"/>
      <point x="666" y="316" type="curve" smooth="yes"/>
      <point x="544" y="316"/>
      <point x="466" y="404"/>
      <point x="466" y="568" type="curve" smooth="yes"/>
      <point x="466" y="704"/>
      <point x="518" y="810"/>
      <point x="618" y="810" type="curve" smooth="yes"/>
      <point x="696" y="810"/>
      <point x="752" y="744"/>
      <point x="746" y="654" type="curve"/>
    </contour>
  </outline>
</glyph>
<glyph name="f" format="2">
  <advance width="888"/>
  <unicode hex="0066"/>
  <outline>
    <contour>
      <point x="190" y="0" type="line"/>
      <point x="638" y="0" type="line"/>
      <point x="638" y="1124" type="line" smooth="yes"/>
      <point x="638" y="1182"/>
      <point x="678" y="1218"/>
      <point x="742" y="1216" type="curve"/>
      <point x="774" y="1216"/>
      <point x="812" y="1206"/>
      <point x="854" y="1194" type="curve"/>
      <point x="898" y="1526" type="line"/>
      <point x="820" y="1550"/>
      <point x="728" y="1564"/>
      <point x="644" y="1564" type="curve" smooth="yes"/>
      <point x="368" y="1566"/>
      <point x="190" y="1420"/>
      <point x="190" y="1192" type="curve" smooth="yes"/>
    </contour>
    <contour>
      <point x="40" y="810" type="line"/>
      <point x="850" y="810" type="line"/>
      <point x="850" y="1094" type="line"/>
      <point x="40" y="1094" type="line"/>
    </contour>
  </outline>
</glyph>
<glyph name="g" format="2">
  <advance width="654"/>
  <unicode hex="0067"/>
  <anchor x="311" y="547" name="top"/>
  <outline>
    <contour>
      <point x="601" y="547" type="line"/>
      <point x="377" y="547" type="line"/>
      <point x="377" y="39" type="line" smooth="yes"/>
      <point x="377" y="-3"/>
      <point x="341" y="-30"/>
      <point x="275" y="-30" type="curve" smooth="yes"/>
      <point x="222" y="-30"/>
      <point x="156" y="-12"/>
      <point x="108" y="18" type="curve"/>
      <point x="37" y="-133" type="line"/>
      <point x="94" y="-171"/>
      <point x="190" y="-204"/>
      <point x="295" y="-204" type="curve" smooth="yes"/>
      <point x="476" y="-204"/>
      <point x="601" y="-107"/>
      <point x="601" y="45" type="curve" smooth="yes"/>
    </contour>
    <contour>
      <point x="236" y="555" type="curve" smooth="yes"/>
      <point x="107" y="555"/>
      <point x="15" y="454"/>
      <point x="15" y="297" type="curve" smooth="yes"/>
      <point x="15" y="136"/>
      <point x="111" y="33"/>
      <point x="240" y="33" type="curve" smooth="yes"/>
      <point x="368" y="33"/>
      <point x="440" y="136"/>
      <point x="440" y="296" type="curve"/>
      <point x="440" y="453"/>
      <point x="365" y="555"/>
    </contour>
    <contour>
      <point x="301" y="390" type="curve" smooth="yes"/>
      <point x="347" y="390"/>
      <point x="377" y="351"/>
      <point x="377" y="291" type="curve" smooth="yes"/>
      <point x="377" y="232"/>
      <point x="347" y="193"/>
      <point x="301" y="193" type="curve" smooth="yes"/>
      <point x="255" y="193"/>
      <point x="225" y="232"/>
      <point x="225" y="291" type="curve" smooth="yes"/>
      <point x="225" y="351"/>
      <point x="255" y="390"/>
    </contour>
  </outline>
</glyph>
<glyph name="h" format="2">
  <advance width="1374"/>
  <unicode hex="0068"/>
  <anchor x="708" y="0" name="bottom"/>
  <anchor x="370" y="1260" name="center"/>
  <anchor x="332" y="1484" name="top"/>
  <anchor x="630" y="1094" name="topright"/>
  <outline>
    <contour>
      <point x="844" y="0" type="line"/>
      <point x="1294" y="0" type="line"/>
      <point x="1294" y="698" type="line" smooth="yes"/>
      <point x="1294" y="950"/>
      <point x="1132" y="1114"/>
      <point x="902" y="1114" type="curve" smooth="yes"/>
      <point x="632" y="1114"/>
      <point x="470" y="890"/>
      <point x="470" y="542" type="curve"/>
      <point x="570" y="542" type="line"/>
      <point x="570" y="648"/>
      <point x="626" y="718"/>
      <point x="714" y="718" type="curve" smooth="yes"/>
      <point x="792" y="718"/>
      <point x="844" y="660"/>
      <point x="844" y="568" type="curve" smooth="yes"/>
    </contour>
    <contour>
      <point x="120" y="0" type="line"/>
      <point x="570" y="0" type="line"/>
      <point x="570" y="1484" type="line"/>
      <point x="120" y="1484" type="line"/>
    </contour>
  </outline>
</glyph>
<glyph name="k" format="2">
  <advance width="662"/>
  <unicode hex="006B"/>
  <anchor x="333" y="0" name="bottom"/>
  <anchor x="173" y="742" name="top"/>
  <anchor x="315" y="547" name="topright"/>
  <outline>
    <contour>
      <point x="60" y="0" type="line"/>
      <point x="285" y="0" type="line"/>
      <point x="285" y="742" type="line"/>
      <point x="60" y="742" type="line"/>
    </contour>
    <contour>
      <point x="275" y="394" type="line"/>
      <point x="275" y="133" type="line"/>
      <point x="666" y="547" type="line"/>
      <point x="412" y="547" type="line"/>
    </contour>
    <contour>
      <point x="287" y="224" type="line"/>
      <point x="396" y="0" type="line"/>
      <point x="663" y="0" type="line"/>
      <point x="453" y="360" type="line"/>
    </contour>
  </outline>
</glyph>
<glyph name="l" format="2">
  <advance width="748"/>
  <unicode hex="006C"/>
  <anchor x="454" y="0" name="bottom"/>
  <anchor x="806" y="796" name="center"/>
  <anchor x="316" y="1484" name="top"/>
  <anchor x="680" y="1486" name="topright"/>
  <outline>
    <contour>
      <point x="540" y="1484" type="line"/>
      <point x="90" y="1484" type="line"/>
      <point x="90" y="454" type="line" smooth="yes"/>
      <point x="90" y="124"/>
      <point x="308" y="-22"/>
      <point x="546" y="-22" type="curve" smooth="yes"/>
      <point x="616" y="-22"/>
      <point x="690" y="-8"/>
      <point x="758" y="16" type="curve"/>
      <point x="732" y="390" type="line"/>
      <point x="698" y="374"/>
      <point x="664" y="364"/>
      <point x="632" y="364" type="curve" smooth="yes"/>
      <point x="580" y="364"/>
      <point x="540" y="392"/>
      <point x="540" y="464" type="curve" smooth="yes"/>
    </contour>
  </outline>
</glyph>
<glyph name="m" format="2">
  <advance width="2064"/>
  <unicode hex="006D"/>
  <anchor x="1048" y="0" name="bottom"/>
  <outline>
    <contour>
      <point x="822" y="0" type="line"/>
      <point x="1272" y="0" type="line"/>
      <point x="1272" y="698" type="line" smooth="yes"/>
      <point x="1272" y="950"/>
      <point x="1112" y="1114"/>
      <point x="886" y="1114" type="curve" smooth="yes"/>
      <point x="620" y="1114"/>
      <point x="460" y="890"/>
      <point x="460" y="542" type="curve"/>
      <point x="560" y="542" type="line"/>
      <point x="560" y="648"/>
      <point x="614" y="718"/>
      <point x="698" y="718" type="curve" smooth="yes"/>
      <point x="772" y="718"/>
      <point x="822" y="660"/>
      <point x="822" y="568" type="curve" smooth="yes"/>
    </contour>
    <contour>
      <point x="1534" y="0" type="line"/>
      <point x="1984" y="0" type="line"/>
      <point x="1984" y="698" type="line" smooth="yes"/>
      <point x="1984" y="950"/>
      <point x="1824" y="1114"/>
      <point x="1598" y="1114" type="curve" smooth="yes"/>
      <point x="1332" y="1114"/>
      <point x="1172" y="890"/>
      <point x="1172" y="542" type="curve"/>
      <point x="1272" y="542" type="line"/>
      <point x="1272" y="648"/>
      <point x="1326" y="718"/>
      <point x="1410" y="718" type="curve" smooth="yes"/>
      <point x="1484" y="718"/>
      <point x="1534" y="660"/>
      <point x="1534" y="568" type="curve" smooth="yes"/>
    </contour>
    <contour>
      <point x="110" y="0" type="line"/>
      <point x="560" y="0" type="line"/>
      <point x="560" y="1094" type="line"/>
      <point x="110" y="1094" type="line"/>
    </contour>
  </outline>
</glyph>
<glyph name="n" format="2">
  <advance width="682"/>
  <unicode hex="006E"/>
  <anchor x="347" y="0" name="bottom"/>
  <anchor x="360" y="547" name="top"/>
  <outline>
    <contour>
      <point x="417" y="0" type="line"/>
      <point x="642" y="0" type="line"/>
      <point x="642" y="349" type="line" smooth="yes"/>
      <point x="642" y="475"/>
      <point x="561" y="557"/>
      <point x="446" y="557" type="curve" smooth="yes"/>
      <point x="311" y="557"/>
      <point x="230" y="445"/>
      <point x="230" y="271" type="curve"/>
      <point x="280" y="271" type="line"/>
      <point x="280" y="324"/>
      <point x="308" y="359"/>
      <point x="352" y="359" type="curve" smooth="yes"/>
      <point x="391" y="359"/>
      <point x="417" y="330"/>
      <point x="417" y="284" type="curve" smooth="yes"/>
    </contour>
    <contour>
      <point x="55" y="0" type="line"/>
      <point x="280" y="0" type="line"/>
      <point x="280" y="547" type="line"/>
      <point x="55" y="547" type="line"/>
    </contour>
  </outline>
</glyph>
<glyph name="o" format="2">
  <advance width="1296"/>
  <unicode hex="006F"/>
  <anchor x="648" y="0" name="bottom"/>
  <anchor x="648" y="548" name="center"/>
  <anchor x="1094" y="0" name="ogonek"/>
  <anchor x="648" y="1094" name="top"/>
  <anchor x="928" y="1094" name="topright"/>
  <outline>
    <contour>
      <point x="648" y="1110" type="curve" smooth="yes"/>
      <point x="272" y="1110"/>
      <point x="30" y="890"/>
      <point x="30" y="548" type="curve" smooth="yes"/>
      <point x="30" y="206"/>
      <point x="272" y="-16"/>
      <point x="648" y="-16" type="curve" smooth="yes"/>
      <point x="1024" y="-16"/>
      <point x="1266" y="206"/>
      <point x="1266" y="548" type="curve" smooth="yes"/>
      <point x="1266" y="890"/>
      <point x="1024" y="1110"/>
    </contour>
    <contour>
      <point x="648" y="754" type="curve" smooth="yes"/>
      <point x="748" y="754"/>
      <point x="812" y="670"/>
      <point x="812" y="542" type="curve" smooth="yes"/>
      <point x="812" y="414"/>
      <point x="748" y="330"/>
      <point x="648" y="330" type="curve" smooth="yes"/>
      <point x="548" y="330"/>
      <point x="484" y="414"/>
      <point x="484" y="542" type="curve" smooth="yes"/>
      <point x="484" y="670"/>
      <point x="548" y="754"/>
    </contour>
  </outline>
</glyph>
<glyph name="p" format="2">
  <advance width="690"/>
  <unicode hex="0070"/>
  <outline>
    <contour>
      <point x="424" y="555" type="curve" smooth="yes"/>
      <point x="298" y="555"/>
      <point x="217" y="443"/>
      <point x="217" y="271" type="curve"/>
      <point x="217" y="102"/>
      <point x="301" y="-8"/>
      <point x="430" y="-8" type="curve" smooth="yes"/>
      <point x="579" y="-8"/>
      <point x="675" y="101"/>
      <point x="675" y="270" type="curve" smooth="yes"/>
      <point x="675" y="443"/>
      <point x="576" y="555"/>
    </contour>
    <contour>
      <point x="366" y="382" type="curve" smooth="yes"/>
      <point x="416" y="382"/>
      <point x="448" y="340"/>
      <point x="448" y="276" type="curve" smooth="yes"/>
      <point x="448" y="212"/>
      <point x="416" y="170"/>
      <point x="366" y="170" type="curve" smooth="yes"/>
      <point x="317" y="170"/>
      <point x="285" y="212"/>
      <point x="285" y="276" type="curve" smooth="yes"/>
      <point x="285" y="340"/>
      <point x="317" y="382"/>
    </contour>
    <contour>
      <point x="60" y="-194" type="line"/>
      <point x="285" y="-194" type="line"/>
      <point x="285" y="547" type="line"/>
      <point x="60" y="547" type="line"/>
    </contour>
  </outline>
</glyph>
<glyph name="q" format="2">
  <advance width="1380"/>
  <unicode hex="0071"/>
  <outline>
    <contour>
      <point x="520" y="1110" type="curve" smooth="yes"/>
      <point x="222" y="1110"/>
      <point x="30" y="892"/>
      <point x="30" y="554" type="curve" smooth="yes"/>
      <point x="30" y="208"/>
      <point x="228" y="-16"/>
      <point x="532" y="-16" type="curve" smooth="yes"/>
      <point x="784" y="-16"/>
      <point x="946" y="208"/>
      <point x="946" y="552" type="curve"/>
      <point x="946" y="890"/>
      <point x="778" y="1110"/>
    </contour>
    <contour>
      <point x="648" y="754" type="curve" smooth="yes"/>
      <point x="746" y="754"/>
      <point x="810" y="670"/>
      <point x="810" y="542" type="curve" smooth="yes"/>
      <point x="810" y="414"/>
      <point x="746" y="330"/>
      <point x="648" y="330" type="curve" smooth="yes"/>
      <point x="548" y="330"/>
      <point x="484" y="414"/>
      <point x="484" y="542" type="curve" smooth="yes"/>
      <point x="484" y="670"/>
      <point x="548" y="754"/>
    </contour>
    <contour>
      <point x="810" y="-388" type="line"/>
      <point x="1260" y="-388" type="line"/>
      <point x="1260" y="1094" type="line"/>
      <point x="810" y="1094" type="line"/>
    </contour>
  </outline>
</glyph>
<glyph name="r" format="2">
  <advance width="457"/>
  <unicode hex="0072"/>
  <anchor x="168" y="0" name="bottom"/>
  <anchor x="245" y="547" name="top"/>
  <outline>
    <contour>
      <point x="447" y="557" type="line"/>
      <point x="315" y="557"/>
      <point x="230" y="445"/>
      <point x="230" y="271" type="curve"/>
      <point x="280" y="261" type="line"/>
      <point x="280" y="333"/>
      <point x="346" y="369"/>
      <point x="447" y="354" type="curve"/>
    </contour>
    <contour>
      <point x="55" y="0" type="line"/>
      <point x="280" y="0" type="line"/>
      <point x="280" y="547" type="line"/>
      <point x="55" y="547" type="line"/>
    </contour>
  </outline>
</glyph>
<glyph name="s" format="2">
  <advance width="1104"/>
  <unicode hex="0073"/>
  <anchor x="550" y="0" name="bottom"/>
  <anchor x="578" y="1094" name="top"/>
  <outline>
    <contour>
      <point x="1066" y="976" type="line"/>
      <point x="902" y="1068"/>
      <point x="732" y="1114"/>
      <point x="558" y="1114" type="curve" smooth="yes"/>
      <point x="266" y="1114"/>
      <point x="76" y="966"/>
      <point x="76" y="736" type="curve" smooth="yes"/>
      <point x="76" y="366"/>
      <point x="632" y="408"/>
      <point x="632" y="312" type="curve" smooth="yes"/>
      <point x="632" y="292"/>
      <point x="606" y="280"/>
      <point x="564" y="280" type="curve" smooth="yes"/>
      <point x="442" y="280"/>
      <point x="306" y="326"/>
      <point x="160" y="416" type="curve"/>
      <point x="24" y="136" type="line"/>
      <point x="176" y="32"/>
      <point x="356" y="-20"/>
      <point x="558" y="-20" type="curve" smooth="yes"/>
      <point x="860" y="-20"/>
      <point x="1054" y="126"/>
      <point x="1054" y="352" type="curve" smooth="yes"/>
      <point x="1054" y="720"/>
      <point x="486" y="680"/>
      <point x="486" y="782" type="curve" smooth="yes"/>
      <point x="486" y="804"/>
      <point x="510" y="818"/>
      <point x="548" y="818" type="curve" smooth="yes"/>
      <point x="632" y="818"/>
      <point x="756" y="778"/>
      <point x="918" y="698" type="curve"/>
    </contour>
  </outline>
</glyph>
<glyph name="t" format="2">
  <advance width="460"/>
  <unicode hex="0074"/>
  <anchor x="282" y="0" name="bottom"/>
  <anchor x="222" y="286" name="center"/>
  <anchor x="195" y="670" name="top"/>
  <anchor x="357" y="742" name="topright"/>
  <outline>
    <contour>
      <point x="307" y="670" type="line"/>
      <point x="83" y="670" type="line"/>
      <point x="83" y="176" type="line"/>
      <point x="83" y="62"/>
      <point x="164" y="-11"/>
      <point x="289" y="-10" type="curve"/>
      <point x="347" y="-10"/>
      <point x="409" y="3"/>
      <point x="445" y="24" type="curve"/>
      <point x="407" y="178" type="line"/>
      <point x="386" y="170"/>
      <point x="364" y="164"/>
      <point x="351" y="164" type="curve"/>
      <point x="324" y="163"/>
      <point x="307" y="181"/>
      <point x="307" y="210" type="curve"/>
    </contour>
    <contour>
      <point x="8" y="405" type="line"/>
      <point x="435" y="405" type="line"/>
      <point x="435" y="547" type="line"/>
      <point x="8" y="547" type="line"/>
    </contour>
  </outline>
</glyph>
<glyph name="u" format="2">
  <advance width="672"/>
  <unicode hex="0075"/>
  <anchor x="336" y="0" name="bottom"/>
  <anchor x="555" y="0" name="ogonek"/>
  <anchor x="336" y="547" name="top"/>
  <anchor x="547" y="547" name="topright"/>
  <outline>
    <contour>
      <point x="265" y="547" type="line"/>
      <point x="40" y="547" type="line"/>
      <point x="40" y="198" type="line" smooth="yes"/>
      <point x="40" y="72"/>
      <point x="119" y="-10"/>
      <point x="231" y="-10" type="curve" smooth="yes"/>
      <point x="363" y="-10"/>
      <point x="442" y="102"/>
      <point x="442" y="276" type="curve"/>
      <point x="392" y="276" type="line"/>
      <point x="392" y="223"/>
      <point x="366" y="188"/>
      <point x="325" y="188" type="curve" smooth="yes"/>
      <point x="289" y="188"/>
      <point x="265" y="217"/>
      <point x="265" y="263" type="curve" smooth="yes"/>
    </contour>
    <contour>
      <point x="392" y="0" type="line"/>
      <point x="617" y="0" type="line"/>
      <point x="617" y="547" type="line"/>
      <point x="392" y="547" type="line"/>
    </contour>
  </outline>
</glyph>
<glyph name="v" format="2">
  <advance width="612"/>
  <unicode hex="0076"/>
  <outline>
    <contour>
      <point x="190" y="0" type="line"/>
      <point x="420" y="0" type="line"/>
      <point x="622" y="547" type="line"/>
      <point x="397" y="547" type="line"/>
      <point x="308" y="204" type="line"/>
      <point x="221" y="547" type="line"/>
      <point x="-10" y="547" type="line"/>
    </contour>
  </outline>
</glyph>
<glyph name="w" format="2">
  <advance width="977"/>
  <unicode hex="0077"/>
  <anchor x="489" y="547" name="top"/>
  <outline>
    <contour>
      <point x="188" y="0" type="line"/>
      <point x="408" y="0" type="line"/>
      <point x="489" y="288" type="line"/>
      <point x="567" y="0" type="line"/>
      <point x="787" y="0" type="line"/>
      <point x="987" y="547" type="line"/>
      <point x="770" y="547" type="line"/>
      <point x="684" y="221" type="line"/>
      <point x="597" y="547" type="line"/>
      <point x="389" y="547" type="line"/>
      <point x="305" y="221" type="line"/>
      <point x="218" y="547" type="line"/>
      <point x="-10" y="547" type="line"/>
    </contour>
  </outline>
</glyph>
<glyph name="x" format="2">
  <advance width="654"/>
  <unicode hex="0078"/>
  <outline>
    <contour>
      <point x="176" y="280" type="line"/>
      <point x="-5" y="0" type="line"/>
      <point x="242" y="0" type="line"/>
      <point x="327" y="142" type="line"/>
      <point x="400" y="0" type="line"/>
      <point x="659" y="0" type="line"/>
      <point x="477" y="281" type="line"/>
      <point x="647" y="547" type="line"/>
      <point x="401" y="547" type="line"/>
      <point x="327" y="419" type="line"/>
      <point x="264" y="547" type="line"/>
      <point x="6" y="547" type="line"/>
    </contour>
  </outline>
</glyph>
<glyph name="y" format="2">
  <advance width="624"/>
  <unicode hex="0079"/>
  <anchor x="526" y="0" name="bottom"/>
  <anchor x="312" y="547" name="top"/>
  <outline>
    <contour>
      <point x="634" y="547" type="line"/>
      <point x="410" y="547" type="line"/>
      <point x="321" y="235" type="line"/>
      <point x="213" y="547" type="line"/>
      <point x="-18" y="547" type="line"/>
      <point x="209" y="17" type="line"/>
      <point x="201" y="4" type="line"/>
      <point x="190" y="-15"/>
      <point x="173" y="-24"/>
      <point x="147" y="-24" type="curve" smooth="yes"/>
      <point x="120" y="-24"/>
      <point x="98" y="-14"/>
      <point x="74" y="8" type="curve"/>
      <point x="-20" y="-140" type="line"/>
      <point x="39" y="-184"/>
      <point x="97" y="-204"/>
      <point x="169" y="-204" type="curve" smooth="yes"/>
      <point x="286" y="-204"/>
      <point x="363" y="-152"/>
      <point x="409" y="-38" type="curve" smooth="yes"/>
    </contour>
  </outline>
</glyph>
<glyph name="z" format="2">
  <advance width="568"/>
  <unicode hex="007A"/>
  <anchor x="286" y="0" name="bottom"/>
  <anchor x="284" y="547" name="top"/>
  <outline>
    <contour>
      <point x="35" y="379" type="line"/>
      <point x="253" y="379" type="line"/>
      <point x="25" y="131" type="line"/>
      <point x="25" y="0" type="line"/>
      <point x="547" y="0" type="line"/>
      <point x="547" y="168" type="line"/>
      <point x="309" y="168" type="line"/>
      <point x="537" y="416" type="line"/>
      <point x="537" y="547" type="line"/>
      <point x="35" y="547" type="line"/>
    </contour>
  </outline>
</glyph>
<glyph name="braceleft" format="2">
  <advance width="754"/>
  <unicode hex="007B"/>
  <outline>
    <contour>
      <point x="18" y="788" type="line"/>
      <point x="18" y="448" type="line"/>
      <point x="108" y="448" type="line"/>
      <point x="270" y="602" type="line"/>
      <point x="496" y="622"/>
      <point x="570" y="692"/>
      <point x="570" y="886" type="curve" smooth="yes"/>
      <point x="570" y="1040" type="line" smooth="yes"/>
      <point x="570" y="1128"/>
      <point x="598" y="1158"/>
      <point x="732" y="1158" type="curve"/>
      <point x="732" y="1488" type="line"/>
      <point x="556" y="1488" type="line" smooth="yes"/>
      <point x="266" y="1488"/>
      <point x="170" y="1412"/>
      <point x="170" y="1182" type="curve" smooth="yes"/>
      <point x="170" y="856" type="line" smooth="yes"/>
      <point x="170" y="804"/>
      <point x="154" y="788"/>
      <point x="108" y="788" type="curve" smooth="yes"/>
    </contour>
    <contour>
      <point x="108" y="788" type="line"/>
      <point x="18" y="788" type="line"/>
      <point x="18" y="448" type="line"/>
      <point x="108" y="448" type="line" smooth="yes"/>
      <point x="154" y="448"/>
      <point x="170" y="432"/>
      <point x="170" y="380" type="curve" smooth="yes"/>
      <point x="170" y="54" type="line" smooth="yes"/>
      <point x="170" y="-176"/>
      <point x="266" y="-252"/>
      <point x="556" y="-252" type="curve" smooth="yes"/>
      <point x="732" y="-252" type="line"/>
      <point x="732" y="78" type="line"/>
      <point x="598" y="78"/>
      <point x="570" y="108"/>
      <point x="570" y="196" type="curve" smooth="yes"/>
      <point x="570" y="350" type="line" smooth="yes"/>
      <point x="570" y="544"/>
      <point x="496" y="614"/>
      <point x="270" y="634" type="curve"/>
    </contour>
  </outline>
</glyph>
<glyph name="bar" format="2">
  <advance width="326"/>
  <unicode hex="007C"/>
  <outline>
    <contour>
      <point x="80" y="-103" type="line"/>
      <point x="246" y="-103" type="line"/>
      <point x="246" y="796" type="line"/>
      <point x="80" y="796" type="line"/>
    </contour>
  </outline>
</glyph>
<glyph name="braceright" format="2">
  <advance width="754"/>
  <unicode hex="007D"/>
  <outline>
    <contour>
      <point x="736" y="788" type="line"/>
      <point x="736" y="448" type="line"/>
      <point x="646" y="448" type="line"/>
      <point x="484" y="602" type="line"/>
      <point x="258" y="622"/>
      <point x="184" y="692"/>
      <point x="184" y="886" type="curve" smooth="yes"/>
      <point x="184" y="1040" type="line" smooth="yes"/>
      <point x="184" y="1128"/>
      <point x="156" y="1158"/>
      <point x="22" y="1158" type="curve"/>
      <point x="22" y="1488" type="line"/>
      <point x="198" y="1488" type="line" smooth="yes"/>
      <point x="488" y="1488"/>
      <point x="584" y="1412"/>
      <point x="584" y="1182" type="curve" smooth="yes"/>
      <point x="584" y="856" type="line" smooth="yes"/>
      <point x="584" y="804"/>
      <point x="600" y="788"/>
      <point x="646" y="788" type="curve" smooth="yes"/>
    </contour>
    <contour>
      <point x="646" y="788" type="line"/>
      <point x="736" y="788" type="line"/>
      <point x="736" y="448" type="line"/>
      <point x="646" y="448" type="line" smooth="yes"/>
      <point x="600" y="448"/>
      <point x="584" y="432"/>
      <point x="584" y="380" type="curve" smooth="yes"/>
      <point x="584" y="54" type="line" smooth="yes"/>
      <point x="584" y="-176"/>
      <point x="488" y="-252"/>
      <point x="198" y="-252" type="curve" smooth="yes"/>
      <point x="22" y="-252" type="line"/>
      <point x="22" y="78" type="line"/>
      <point x="156" y="78"/>
      <point x="184" y="108"/>
      <point x="184" y="196" type="curve" smooth="yes"/>
      <point x="184" y="350" type="line" smooth="yes"/>
      <point x="184" y="544"/>
      <point x="258" y="614"/>
      <point x="484" y="634" type="curve"/>
    </contour>
  </outline>
</glyph>
<glyph name="asciitilde" format="2">
  <advance width="1040"/>
  <unicode hex="007E"/>
  <outline>
    <contour>
      <point x="650" y="854" type="line"/>
      <point x="650" y="798"/>
      <point x="634" y="772"/>
      <point x="598" y="772" type="curve"/>
      <point x="546" y="772"/>
      <point x="488" y="860"/>
      <point x="350" y="860" type="curve"/>
      <point x="176" y="860"/>
      <point x="94" y="732"/>
      <point x="94" y="458" type="curve"/>
      <point x="392" y="458" type="line"/>
      <point x="392" y="514"/>
      <point x="408" y="540"/>
      <point x="444" y="540" type="curve"/>
      <point x="496" y="540"/>
      <point x="554" y="452"/>
      <point x="692" y="452" type="curve"/>
      <point x="866" y="452"/>
      <point x="946" y="580"/>
      <point x="946" y="854" type="curve"/>
    </contour>
  </outline>
</glyph>
<glyph name="exclamdown" format="2">
  <advance width="588"/>
  <unicode hex="00A1"/>
  <outline>
    <contour>
      <point x="508" y="30" type="line"/>
      <point x="428" y="546" type="line"/>
      <point x="160" y="546" type="line"/>
      <point x="80" y="30" type="line"/>
      <point x="80" y="-338" type="line"/>
      <point x="508" y="-338" type="line"/>
    </contour>
    <contour>
      <point x="300" y="669" type="curve" smooth="yes"/>
      <point x="420" y="669"/>
      <point x="504" y="752"/>
      <point x="504" y="872" type="curve" smooth="yes"/>
      <point x="504" y="994"/>
      <point x="420" y="1078"/>
      <point x="300" y="1078" type="curve" smooth="yes"/>
      <point x="179" y="1078"/>
      <point x="95" y="994"/>
      <point x="95" y="872" type="curve" smooth="yes"/>
      <point x="95" y="752"/>
      <point x="179" y="669"/>
    </contour>
  </outline>
</glyph>
<glyph name="cent" format="2">
  <advance width="600"/>
  <unicode hex="00A2"/>
  <outline>
    <component base="c"/>
    <contour>
      <point x="229" y="459" type="line"/>
      <point x="395" y="459" type="line"/>
      <point x="395" y="714" type="line"/>
      <point x="229" y="714" type="line"/>
    </contour>
    <contour>
      <point x="229" y="-165" type="line"/>
      <point x="395" y="-165" type="line"/>
      <point x="395" y="98" type="line"/>
      <point x="229" y="98" type="line"/>
    </contour>
  </outline>
</glyph>
<glyph name="sterling" format="2">
  <advance width="576"/>
  <unicode hex="00A3"/>
  <outline>
    <contour>
      <point x="20" y="303" type="line"/>
      <point x="482" y="303" type="line"/>
      <point x="482" y="373" type="line"/>
      <point x="20" y="373" type="line"/>
    </contour>
    <contour>
      <point x="351" y="711" type="curve" smooth="yes"/>
      <point x="185" y="711"/>
      <point x="90" y="621"/>
      <point x="90" y="464" type="curve" smooth="yes"/>
      <point x="90" y="72" type="line"/>
      <point x="191" y="173" type="line"/>
      <point x="20" y="173" type="line"/>
      <point x="20" y="0" type="line"/>
      <point x="561" y="0" type="line"/>
      <point x="561" y="173" type="line"/>
      <point x="222" y="173" type="line"/>
      <point x="323" y="72" type="line"/>
      <point x="323" y="459" type="line" smooth="yes"/>
      <point x="323" y="499"/>
      <point x="341" y="518"/>
      <point x="376" y="518" type="curve" smooth="yes"/>
      <point x="410" y="518"/>
      <point x="449" y="498"/>
      <point x="492" y="459" type="curve"/>
      <point x="576" y="629" type="line"/>
      <point x="518" y="682"/>
      <point x="436" y="711"/>
    </contour>
  </outline>
</glyph>
<glyph name="currency" format="2">
  <advance width="1386"/>
  <unicode hex="00A4"/>
  <outline>
    <contour>
      <point x="692" y="1154" type="curve" smooth="yes"/>
      <point x="412" y="1154"/>
      <point x="184" y="926"/>
      <point x="184" y="646" type="curve" smooth="yes"/>
      <point x="184" y="366"/>
      <point x="412" y="138"/>
      <point x="692" y="138" type="curve" smooth="yes"/>
      <point x="972" y="138"/>
      <point x="1200" y="366"/>
      <point x="1200" y="646" type="curve" smooth="yes"/>
      <point x="1200" y="926"/>
      <point x="974" y="1154"/>
    </contour>
    <contour>
      <point x="692" y="806" type="curve" smooth="yes"/>
      <point x="780" y="806"/>
      <point x="852" y="734"/>
      <point x="852" y="646" type="curve" smooth="yes"/>
      <point x="852" y="558"/>
      <point x="780" y="488"/>
      <point x="692" y="488" type="curve" smooth="yes"/>
      <point x="604" y="488"/>
      <point x="534" y="558"/>
      <point x="534" y="646" type="curve" smooth="yes"/>
      <point x="534" y="734"/>
      <point x="604" y="806"/>
    </contour>
    <contour>
      <point x="30" y="1048" type="line"/>
      <point x="244" y="834" type="line"/>
      <point x="494" y="1084" type="line"/>
      <point x="280" y="1298" type="line"/>
    </contour>
    <contour>
      <point x="30" y="222" type="line"/>
      <point x="280" y="-28" type="line"/>
      <point x="494" y="186" type="line"/>
      <point x="244" y="436" type="line"/>
    </contour>
    <contour>
      <point x="892" y="1084" type="line"/>
      <point x="1142" y="834" type="line"/>
      <point x="1356" y="1048" type="line"/>
      <point x="1106" y="1298" type="line"/>
    </contour>
    <contour>
      <point x="892" y="186" type="line"/>
      <point x="1106" y="-28" type="line"/>
      <point x="1356" y="222" type="line"/>
      <point x="1142" y="436" type="line"/>
    </contour>
  </outline>
</glyph>
<glyph name="yen" format="2">
  <advance width="738"/>
  <unicode hex="00A5"/>
  <outline>
    <contour>
      <point x="357" y="20" type="line"/>
      <point x="384" y="20" type="line"/>
      <point x="738" y="700" type="line"/>
      <point x="507" y="700" type="line"/>
      <point x="371" y="430" type="line"/>
      <point x="231" y="700" type="line"/>
      <point x="0" y="700" type="line"/>
    </contour>
    <contour>
      <point x="256" y="0" type="line"/>
      <point x="487" y="0" type="line"/>
      <point x="487" y="317" type="line"/>
      <point x="256" y="317" type="line"/>
    </contour>
    <contour>
      <point x="71" y="275" type="line"/>
      <point x="668" y="275" type="line"/>
      <point x="668" y="345" type="line"/>
      <point x="71" y="345" type="line"/>
    </contour>
    <contour>
      <point x="71" y="160" type="line"/>
      <point x="668" y="160" type="line"/>
      <point x="668" y="230" type="line"/>
      <point x="71" y="230" type="line"/>
    </contour>
  </outline>
</glyph>
<glyph name="brokenbar" format="2">
  <advance width="326"/>
  <unicode hex="00A6"/>
  <outline>
    <contour>
      <point x="80" y="457" type="line"/>
      <point x="246" y="457" type="line"/>
      <point x="246" y="796" type="line"/>
      <point x="80" y="796" type="line"/>
    </contour>
    <contour>
      <point x="80" y="-103" type="line"/>
      <point x="246" y="-103" type="line"/>
      <point x="246" y="236" type="line"/>
      <point x="80" y="236" type="line"/>
    </contour>
  </outline>
</glyph>
<glyph name="section" format="2">
  <advance width="586"/>
  <unicode hex="00A7"/>
  <outline>
    <contour>
      <point x="557" y="625" type="line"/>
      <point x="472" y="671"/>
      <point x="385" y="694"/>
      <point x="303" y="694" type="curve" smooth="yes"/>
      <point x="157" y="694"/>
      <point x="67" y="621"/>
      <point x="67" y="519" type="curve" smooth="yes"/>
      <point x="67" y="485"/>
      <point x="74" y="459"/>
      <point x="113" y="431" type="curve"/>
      <point x="55" y="400"/>
      <point x="22" y="354"/>
      <point x="22" y="293" type="curve" smooth="yes"/>
      <point x="22" y="118"/>
      <point x="311" y="123"/>
      <point x="311" y="75" type="curve" smooth="yes"/>
      <point x="311" y="66"/>
      <point x="301" y="60"/>
      <point x="273" y="60" type="curve" smooth="yes"/>
      <point x="219" y="60"/>
      <point x="148" y="83"/>
      <point x="73" y="128" type="curve"/>
      <point x="12" y="-12" type="line"/>
      <point x="90" y="-64"/>
      <point x="186" y="-90"/>
      <point x="278" y="-90" type="curve" smooth="yes"/>
      <point x="430" y="-90"/>
      <point x="522" y="-19"/>
      <point x="522" y="82" type="curve" smooth="yes"/>
      <point x="522" y="128"/>
      <point x="506" y="146"/>
      <point x="476" y="171" type="curve"/>
      <point x="534" y="202"/>
      <point x="567" y="248"/>
      <point x="567" y="308" type="curve" smooth="yes"/>
      <point x="567" y="483"/>
      <point x="272" y="478"/>
      <point x="272" y="530" type="curve" smooth="yes"/>
      <point x="272" y="539"/>
      <point x="282" y="546"/>
      <point x="305" y="546" type="curve" smooth="yes"/>
      <point x="343" y="546"/>
      <point x="407" y="526"/>
      <point x="490" y="486" type="curve"/>
    </contour>
    <contour>
      <point x="274" y="329" type="curve" smooth="yes"/>
      <point x="317" y="329"/>
      <point x="357" y="316"/>
      <point x="357" y="297" type="curve" smooth="yes"/>
      <point x="357" y="285"/>
      <point x="340" y="277"/>
      <point x="304" y="277" type="curve" smooth="yes"/>
      <point x="260" y="277"/>
      <point x="226" y="289"/>
      <point x="226" y="308" type="curve" smooth="yes"/>
      <point x="226" y="321"/>
      <point x="241" y="329"/>
    </contour>
  </outline>
</glyph>
<glyph name="copyright" format="2">
  <advance width="1414"/>
  <unicode hex="00A9"/>
  <outline>
    <contour>
      <point x="988" y="904" type="line"/>
      <point x="924" y="974"/>
      <point x="818" y="1020"/>
      <point x="722" y="1020" type="curve" smooth="yes"/>
      <point x="524" y="1020"/>
      <point x="380" y="884"/>
      <point x="380" y="698" type="curve" smooth="yes"/>
      <point x="380" y="510"/>
      <point x="520" y="374"/>
      <point x="714" y="374" type="curve" smooth="yes"/>
      <point x="812" y="374"/>
      <point x="918" y="422"/>
      <point x="988" y="500" type="curve"/>
      <point x="868" y="628" type="line"/>
      <point x="826" y="584"/>
      <point x="770" y="556"/>
      <point x="726" y="556" type="curve" smooth="yes"/>
      <point x="650" y="556"/>
      <point x="594" y="616"/>
      <point x="594" y="702" type="curve" smooth="yes"/>
      <point x="594" y="786"/>
      <point x="650" y="846"/>
      <point x="726" y="846" type="curve" smooth="yes"/>
      <point x="774" y="846"/>
      <point x="830" y="812"/>
      <point x="868" y="760" type="curve"/>
    </contour>
    <contour>
      <point x="708" y="1378" type="curve" smooth="yes"/>
      <point x="326" y="1378"/>
      <point x="30" y="1066"/>
      <point x="30" y="696" type="curve" smooth="yes"/>
      <point x="30" y="326"/>
      <point x="324" y="18"/>
      <point x="704" y="18" type="curve" smooth="yes"/>
      <point x="1086" y="18"/>
      <point x="1384" y="330"/>
      <point x="1384" y="700" type="curve" smooth="yes"/>
      <point x="1384" y="1072"/>
      <point x="1088" y="1378"/>
    </contour>
    <contour>
      <point x="708" y="1178" type="curve" smooth="yes"/>
      <point x="976" y="1178"/>
      <point x="1184" y="962"/>
      <point x="1184" y="700" type="curve" smooth="yes"/>
      <point x="1184" y="438"/>
      <point x="976" y="218"/>
      <point x="704" y="218" type="curve" smooth="yes"/>
      <point x="436" y="218"/>
      <point x="230" y="434"/>
      <point x="230" y="696" type="curve" smooth="yes"/>
      <point x="230" y="958"/>
      <point x="438" y="1178"/>
    </contour>
  </outline>
</glyph>
<glyph name="ordfeminine" format="2">
  <advance width="800"/>
  <unicode hex="00AA"/>
  <outline>
    <contour>
      <point x="474" y="1024" type="line"/>
      <point x="474" y="1158" type="line"/>
      <point x="294" y="1158" type="line"/>
      <point x="116" y="1156"/>
      <point x="22" y="1086"/>
      <point x="22" y="954" type="curve" smooth="yes"/>
      <point x="22" y="828"/>
      <point x="108" y="744"/>
      <point x="256" y="744" type="curve" smooth="yes"/>
      <point x="374" y="744"/>
      <point x="450" y="798"/>
      <point x="482" y="884" type="curve"/>
      <point x="448" y="970" type="line"/>
      <point x="426" y="944"/>
      <point x="394" y="930"/>
      <point x="362" y="930" type="curve" smooth="yes"/>
      <point x="326" y="930"/>
      <point x="308" y="948"/>
      <point x="308" y="978" type="curve" smooth="yes"/>
      <point x="308" y="1008"/>
      <point x="326" y="1024"/>
      <point x="358" y="1024" type="curve" smooth="yes"/>
    </contour>
    <contour>
      <point x="448" y="758" type="line"/>
      <point x="746" y="758" type="line"/>
      <point x="746" y="1184" type="line"/>
      <point x="748" y="1342"/>
      <point x="624" y="1430"/>
      <point x="418" y="1430" type="curve" smooth="yes"/>
      <point x="316" y="1430"/>
      <point x="190" y="1408"/>
      <point x="68" y="1370" type="curve"/>
      <point x="136" y="1176" type="line"/>
      <point x="216" y="1200"/>
      <point x="296" y="1214"/>
      <point x="346" y="1214" type="curve" smooth="yes"/>
      <point x="414" y="1214"/>
      <point x="448" y="1190"/>
      <point x="448" y="1148" type="curve" smooth="yes"/>
    </contour>
  </outline>
</glyph>
<glyph name="logicalnot" format="2">
  <advance width="595"/>
  <unicode hex="00AC"/>
  <outline>
    <contour>
      <point x="30" y="309" type="line"/>
      <point x="540" y="309" type="line"/>
      <point x="540" y="449" type="line"/>
      <point x="30" y="449" type="line"/>
    </contour>
    <contour>
      <point x="380" y="129" type="line"/>
      <point x="540" y="129" type="line"/>
      <point x="540" y="449" type="line"/>
      <point x="380" y="449" type="line"/>
    </contour>
  </outline>
</glyph>
<glyph name="registered" format="2">
  <advance width="1414"/>
  <unicode hex="00AE"/>
  <outline>
    <contour>
      <point x="708" y="1378" type="curve" smooth="yes"/>
      <point x="326" y="1378"/>
      <point x="30" y="1066"/>
      <point x="30" y="696" type="curve" smooth="yes"/>
      <point x="30" y="326"/>
      <point x="324" y="18"/>
      <point x="704" y="18" type="curve" smooth="yes"/>
      <point x="1086" y="18"/>
      <point x="1384" y="330"/>
      <point x="1384" y="700" type="curve" smooth="yes"/>
      <point x="1384" y="1072"/>
      <point x="1088" y="1378"/>
    </contour>
    <contour>
      <point x="708" y="1178" type="curve" smooth="yes"/>
      <point x="976" y="1178"/>
      <point x="1184" y="962"/>
      <point x="1184" y="700" type="curve" smooth="yes"/>
      <point x="1184" y="438"/>
      <point x="976" y="218"/>
      <point x="704" y="218" type="curve" smooth="yes"/>
      <point x="436" y="218"/>
      <point x="230" y="434"/>
      <point x="230" y="696" type="curve" smooth="yes"/>
      <point x="230" y="958"/>
      <point x="438" y="1178"/>
    </contour>
    <contour>
      <point x="448" y="1024" type="line"/>
      <point x="448" y="422" type="line"/>
      <point x="648" y="422" type="line"/>
      <point x="648" y="578" type="line"/>
      <point x="730" y="578" type="line" smooth="yes"/>
      <point x="894" y="578"/>
      <point x="988" y="662"/>
      <point x="988" y="810" type="curve" smooth="yes"/>
      <point x="988" y="946"/>
      <point x="894" y="1024"/>
      <point x="730" y="1024" type="curve" smooth="yes"/>
    </contour>
    <contour>
      <point x="648" y="730" type="line"/>
      <point x="648" y="874" type="line"/>
      <point x="730" y="874" type="line" smooth="yes"/>
      <point x="774" y="874"/>
      <point x="798" y="848"/>
      <point x="798" y="802" type="curve" smooth="yes"/>
      <point x="798" y="756"/>
      <point x="774" y="730"/>
      <point x="730" y="730" type="curve" smooth="yes"/>
    </contour>
    <contour>
      <point x="786" y="422" type="line"/>
      <point x="1012" y="422" type="line"/>
      <point x="872" y="650" type="line"/>
      <point x="680" y="650" type="line"/>
    </contour>
  </outline>
</glyph>
<glyph name="degree" format="2">
  <advance width="400"/>
  <unicode hex="00B0"/>
  <outline>
    <contour>
      <point x="207" y="824" type="curve" smooth="yes"/>
      <point x="140" y="824"/>
      <point x="86" y="770"/>
      <point x="86" y="703" type="curve" smooth="yes"/>
      <point x="86" y="636"/>
      <point x="140" y="582"/>
      <point x="207" y="582" type="curve" smooth="yes"/>
      <point x="274" y="582"/>
      <point x="328" y="636"/>
      <point x="328" y="703" type="curve" smooth="yes"/>
      <point x="328" y="770"/>
      <point x="274" y="824"/>
    </contour>
    <contour>
      <point x="207" y="741" type="curve" smooth="yes"/>
      <point x="228" y="741"/>
      <point x="245" y="724"/>
      <point x="245" y="703" type="curve" smooth="yes"/>
      <point x="245" y="682"/>
      <point x="228" y="665"/>
      <point x="207" y="665" type="curve" smooth="yes"/>
      <point x="186" y="665"/>
      <point x="169" y="682"/>
      <point x="169" y="703" type="curve" smooth="yes"/>
      <point x="169" y="724"/>
      <point x="186" y="741"/>
    </contour>
  </outline>
</glyph>
<glyph name="paragraph" format="2">
  <advance width="682"/>
  <unicode hex="00B6"/>
  <outline>
    <contour>
      <point x="228" y="-105" type="line"/>
      <point x="394" y="-105" type="line"/>
      <point x="394" y="618" type="line"/>
      <point x="466" y="618" type="line"/>
      <point x="466" y="-105" type="line"/>
      <point x="632" y="-105" type="line"/>
      <point x="632" y="742" type="line"/>
      <point x="249" y="742" type="line" smooth="yes"/>
      <point x="61" y="742"/>
      <point x="-10" y="629"/>
      <point x="-10" y="513" type="curve" smooth="yes"/>
      <point x="-10" y="427"/>
      <point x="34" y="293"/>
      <point x="206" y="293" type="curve" smooth="yes"/>
      <point x="213" y="293"/>
      <point x="221" y="293"/>
      <point x="228" y="293" type="curve"/>
    </contour>
  </outline>
</glyph>
<glyph name="ordmasculine" format="2">
  <advance width="419"/>
  <unicode hex="00BA"/>
  <outline>
    <contour>
      <point x="209" y="793" type="curve" smooth="yes"/>
      <point x="89" y="793"/>
      <point x="12" y="727"/>
      <point x="12" y="623" type="curve" smooth="yes"/>
      <point x="12" y="520"/>
      <point x="89" y="453"/>
      <point x="209" y="453" type="curve" smooth="yes"/>
      <point x="330" y="453"/>
      <point x="407" y="520"/>
      <point x="407" y="623" type="curve" smooth="yes"/>
      <point x="407" y="727"/>
      <point x="330" y="793"/>
    </contour>
    <contour>
      <point x="209" y="678" type="curve" smooth="yes"/>
      <point x="236" y="678"/>
      <point x="253" y="656"/>
      <point x="253" y="621" type="curve" smooth="yes"/>
      <point x="253" y="587"/>
      <point x="236" y="565"/>
      <point x="209" y="565" type="curve" smooth="yes"/>
      <point x="182" y="565"/>
      <point x="165" y="587"/>
      <point x="165" y="621" type="curve" smooth="yes"/>
      <point x="165" y="656"/>
      <point x="182" y="678"/>
    </contour>
  </outline>
</glyph>
<glyph name="guillemotright" format="2">
  <advance width="1088"/>
  <unicode hex="00BB"/>
  <outline>
    <contour>
      <point x="1122" y="542" type="line"/>
      <point x="874" y="932" type="line"/>
      <point x="514" y="932" type="line"/>
      <point x="726" y="542" type="line"/>
      <point x="514" y="156" type="line"/>
      <point x="874" y="156" type="line"/>
    </contour>
    <contour>
      <point x="604" y="542" type="line"/>
      <point x="356" y="932" type="line"/>
      <point x="-4" y="932" type="line"/>
      <point x="208" y="542" type="line"/>
      <point x="-4" y="156" type="line"/>
      <point x="356" y="156" type="line"/>
    </contour>
  </outline>
</glyph>
<glyph name="onequarter" format="2">
  <advance width="1812"/>
  <unicode hex="00BC"/>
  <outline>
    <contour>
      <point x="211" y="0" type="line"/>
      <point x="508" y="0" type="line"/>
      <point x="1481" y="1400" type="line"/>
      <point x="1183" y="1400" type="line"/>
    </contour>
    <contour>
      <point x="1002" y="350" type="line"/>
      <point x="1002" y="154" type="line"/>
      <point x="1417" y="154" type="line"/>
      <point x="1417" y="0" type="line"/>
      <point x="1707" y="0" type="line"/>
      <point x="1707" y="154" type="line"/>
      <point x="1817" y="154" type="line"/>
      <point x="1817" y="367" type="line"/>
      <point x="1707" y="367" type="line"/>
      <point x="1707" y="519" type="line"/>
      <point x="1417" y="519" type="line"/>
      <point x="1417" y="367" type="line"/>
      <point x="1320" y="367" type="line"/>
      <point x="1551" y="841" type="line"/>
      <point x="1254" y="841" type="line"/>
    </contour>
    <contour>
      <point x="280" y="560" type="line"/>
      <point x="530" y="560" type="line"/>
      <point x="530" y="1368" type="line"/>
      <point x="302" y="1368" type="line"/>
      <point x="30" y="1170" type="line"/>
      <point x="166" y="1009" type="line"/>
      <point x="280" y="1093" type="line"/>
    </contour>
  </outline>
</glyph>
<glyph name="onehalf" format="2">
  <advance width="1906"/>
  <unicode hex="00BD"/>
  <outline>
    <contour>
      <point x="211" y="0" type="line"/>
      <point x="508" y="0" type="line"/>
      <point x="1481" y="1400" type="line"/>
      <point x="1183" y="1400" type="line"/>
    </contour>
    <contour>
      <point x="1158" y="186" type="line"/>
      <point x="1158" y="0" type="line"/>
      <point x="1855" y="0" type="line"/>
      <point x="1855" y="230" type="line"/>
      <point x="1557" y="230" type="line"/>
      <point x="1673" y="338" type="line" smooth="yes"/>
      <point x="1711" y="373"/>
      <point x="1774" y="443"/>
      <point x="1821" y="513"/>
      <point x="1847" y="586"/>
      <point x="1847" y="623" type="qcurve" smooth="yes"/>
      <point x="1847" y="675"/>
      <point x="1798" y="759"/>
      <point x="1711" y="820"/>
      <point x="1592" y="853"/>
      <point x="1523" y="853" type="qcurve" smooth="yes"/>
      <point x="1416" y="853"/>
      <point x="1218" y="782"/>
      <point x="1120" y="719" type="qcurve"/>
      <point x="1236" y="503" type="line"/>
      <point x="1301" y="553"/>
      <point x="1425" y="611"/>
      <point x="1473" y="611" type="qcurve" smooth="yes"/>
      <point x="1496" y="611"/>
      <point x="1519" y="596"/>
      <point x="1519" y="579" type="qcurve" smooth="yes"/>
      <point x="1519" y="560"/>
      <point x="1484" y="507"/>
      <point x="1462" y="483" type="qcurve"/>
    </contour>
    <contour>
      <point x="290" y="560" type="line"/>
      <point x="540" y="560" type="line"/>
      <point x="540" y="1368" type="line"/>
      <point x="312" y="1368" type="line"/>
      <point x="40" y="1170" type="line"/>
      <point x="176" y="1009" type="line"/>
      <point x="290" y="1093" type="line"/>
    </contour>
  </outline>
</glyph>
<glyph name="questiondown" format="2">
  <advance width="996"/>
  <unicode hex="00BF"/>
  <outline>
    <contour>
      <point x="596" y="147" type="line"/>
      <point x="603" y="87"/>
      <point x="558" y="26"/>
      <point x="511" y="26" type="curve" smooth="yes"/>
      <point x="460" y="26"/>
      <point x="430" y="58"/>
      <point x="430" y="100" type="curve" smooth="yes"/>
      <point x="430" y="175"/>
      <point x="459" y="237"/>
      <point x="534" y="237" type="curve" smooth="yes"/>
      <point x="679" y="237" type="line"/>
      <point x="679" y="578" type="line"/>
      <point x="335" y="578" type="line"/>
      <point x="335" y="474" type="line"/>
      <point x="177" y="474"/>
      <point x="53" y="312"/>
      <point x="53" y="105" type="curve" smooth="yes"/>
      <point x="53" y="-112"/>
      <point x="234" y="-305"/>
      <point x="503" y="-305" type="curve" smooth="yes"/>
      <point x="771" y="-305"/>
      <point x="959" y="-131"/>
      <point x="955" y="147" type="curve"/>
    </contour>
    <contour>
      <point x="725" y="901" type="curve" smooth="yes"/>
      <point x="725" y="1013"/>
      <point x="627" y="1102"/>
      <point x="508" y="1102" type="curve" smooth="yes"/>
      <point x="387" y="1102"/>
      <point x="292" y="1013"/>
      <point x="292" y="901" type="curve" smooth="yes"/>
      <point x="292" y="791"/>
      <point x="387" y="701"/>
      <point x="508" y="701" type="curve" smooth="yes"/>
      <point x="627" y="701"/>
      <point x="725" y="791"/>
    </contour>
  </outline>
</glyph>
<glyph name="AE" format="2">
  <advance width="1145"/>
  <unicode hex="00C6"/>
  <anchor x="807" y="0" name="bottom"/>
  <anchor x="1099" y="10" name="ogonek"/>
  <anchor x="789" y="700" name="top"/>
  <outline>
    <contour>
      <point x="506.239" y="0" type="line"/>
      <point x="1107.34" y="0" type="line"/>
      <point x="1107.34" y="175.736" type="line"/>
      <point x="737.891" y="175.736" type="line"/>
      <point x="737.891" y="262.605" type="line"/>
      <point x="1065.4" y="262.605" type="line"/>
      <point x="1065.4" y="438.341" type="line"/>
      <point x="737.891" y="438.341" type="line"/>
      <point x="737.891" y="524.212" type="line"/>
      <point x="1098.35" y="524.212" type="line"/>
      <point x="1098.35" y="699.948" type="line"/>
      <point x="506.239" y="699.948" type="line"/>
    </contour>
    <contour>
      <point x="-9.985" y="0" type="line"/>
      <point x="229.655" y="0" type="line"/>
      <point x="489.265" y="524.212" type="line"/>
      <point x="782.824" y="524.212" type="line"/>
      <point x="774.836" y="699.948" type="line"/>
      <point x="379.43" y="699.948" type="line"/>
    </contour>
    <contour>
      <point x="219.67" y="121.817" type="line"/>
      <point x="622.065" y="121.817" type="line"/>
      <point x="627.058" y="287.568" type="line"/>
      <point x="224.662" y="287.568" type="line"/>
    </contour>
  </outline>
</glyph>
<glyph name="Ccedilla" format="2">
  <advance width="1374"/>
  <unicode hex="00C7"/>
  <anchor x="734" y="0" name="bottom"/>
  <anchor x="786" y="1400" name="top"/>
  <outline>
    <contour>
      <point x="1380" y="1170" type="line"/>
      <point x="1236" y="1328"/>
      <point x="1002" y="1430"/>
      <point x="789" y="1430" type="curve" smooth="yes"/>
      <point x="349" y="1430"/>
      <point x="30" y="1124"/>
      <point x="30" y="705" type="curve" smooth="yes"/>
      <point x="30" y="338"/>
      <point x="262" y="55"/>
      <point x="602" y="-15" type="curve"/>
      <point x="553" y="-164" type="line"/>
      <point x="587" y="-164" type="line" smooth="yes"/>
      <point x="643" y="-164"/>
      <point x="701" y="-176"/>
      <point x="701" y="-210" type="curve" smooth="yes"/>
      <point x="701" y="-236"/>
      <point x="665" y="-248"/>
      <point x="621" y="-248" type="curve" smooth="yes"/>
      <point x="591" y="-248"/>
      <point x="559" y="-244"/>
      <point x="531" y="-234" type="curve"/>
      <point x="471" y="-414" type="line"/>
      <point x="543" y="-438"/>
      <point x="629" y="-452"/>
      <point x="709" y="-452" type="curve" smooth="yes"/>
      <point x="845" y="-452"/>
      <point x="983" y="-398"/>
      <point x="983" y="-248" type="curve" smooth="yes"/>
      <point x="983" y="-174"/>
      <point x="937" y="-114"/>
      <point x="817" y="-82" type="curve"/>
      <point x="837" y="-29" type="line"/>
      <point x="1034" y="-9"/>
      <point x="1240" y="97"/>
      <point x="1380" y="252" type="curve"/>
      <point x="1112" y="537" type="line"/>
      <point x="1020" y="437"/>
      <point x="895" y="373"/>
      <point x="795" y="373" type="curve" smooth="yes"/>
      <point x="627" y="373"/>
      <point x="505" y="515"/>
      <point x="505" y="711" type="curve" smooth="yes"/>
      <point x="505" y="905"/>
      <point x="627" y="1044"/>
      <point x="795" y="1044" type="curve" smooth="yes"/>
      <point x="903" y="1044"/>
      <point x="1028" y="969"/>
      <point x="1112" y="853" type="curve"/>
    </contour>
  </outline>
</glyph>
<glyph name="multiply" format="2">
  <advance width="520"/>
  <unicode hex="00D7"/>
  <outline>
    <contour>
      <point x="48" y="216" type="line"/>
      <point x="147" y="117" type="line"/>
      <point x="472" y="442" type="line"/>
      <point x="373" y="541" type="line"/>
    </contour>
    <contour>
      <point x="48" y="442" type="line"/>
      <point x="373" y="117" type="line"/>
      <point x="472" y="216" type="line"/>
      <point x="147" y="541" type="line"/>
    </contour>
  </outline>
</glyph>
<glyph name="Oslash" format="2">
  <advance width="799"/>
  <unicode hex="00D8"/>
  <anchor x="399" y="-4" name="bottom"/>
  <anchor x="644" y="-4" name="ogonek"/>
  <anchor x="420" y="700" name="top"/>
  <anchor x="20" y="696" name="topleft"/>
  <anchor x="560" y="696" name="topright"/>
  <outline>
    <contour>
      <point x="99.85" y="-54.9175" type="line"/>
      <point x="226.659" y="-54.9175" type="line"/>
      <point x="698.95" y="753.867" type="line"/>
      <point x="572.14" y="753.867" type="line"/>
    </contour>
    <contour>
      <point x="399.4" y="702.944" type="curve" smooth="yes"/>
      <point x="176.734" y="702.944"/>
      <point x="14.9775" y="554.167"/>
      <point x="14.9775" y="346.479" type="curve" smooth="yes"/>
      <point x="14.9775" y="137.793"/>
      <point x="176.734" y="-13.979"/>
      <point x="399.4" y="-13.979" type="curve" smooth="yes"/>
      <point x="622.065" y="-13.979"/>
      <point x="783.822" y="138.791"/>
      <point x="783.822" y="346.479" type="curve" smooth="yes"/>
      <point x="783.822" y="553.169"/>
      <point x="622.065" y="702.944"/>
    </contour>
    <contour>
      <point x="402.395" y="510.233" type="curve" smooth="yes"/>
      <point x="482.275" y="510.233"/>
      <point x="546.179" y="441.337"/>
      <point x="546.179" y="345.481" type="curve" smooth="yes"/>
      <point x="546.179" y="249.625"/>
      <point x="482.275" y="178.731"/>
      <point x="402.395" y="178.731" type="curve" smooth="yes"/>
      <point x="322.515" y="178.731"/>
      <point x="252.62" y="249.625"/>
      <point x="252.62" y="345.481" type="curve" smooth="yes"/>
      <point x="252.62" y="441.337"/>
      <point x="321.517" y="510.233"/>
    </contour>
  </outline>
</glyph>
<glyph name="Thorn" format="2">
  <advance width="1394"/>
  <unicode hex="00DE"/>
  <outline>
    <contour>
      <point x="476" y="1228" type="line"/>
      <point x="540" y="876" type="line"/>
      <point x="742" y="876" type="line" smooth="yes"/>
      <point x="824" y="876"/>
      <point x="878" y="814"/>
      <point x="878" y="718" type="curve" smooth="yes"/>
      <point x="878" y="620"/>
      <point x="824" y="556"/>
      <point x="742" y="556" type="curve" smooth="yes"/>
      <point x="540" y="556" type="line"/>
      <point x="540" y="204" type="line"/>
      <point x="762" y="204" type="line" smooth="yes"/>
      <point x="1122" y="204"/>
      <point x="1354" y="412"/>
      <point x="1354" y="732" type="curve" smooth="yes"/>
      <point x="1354" y="1034"/>
      <point x="1122" y="1228"/>
      <point x="762" y="1228" type="curve" smooth="yes"/>
    </contour>
    <contour>
      <point x="100" y="0" type="line"/>
      <point x="564" y="0" type="line"/>
      <point x="564" y="1400" type="line"/>
      <point x="100" y="1400" type="line"/>
    </contour>
  </outline>
</glyph>
<glyph name="germandbls" format="2">
  <advance width="670"/>
  <unicode hex="00DF"/>
  <outline>
    <contour>
      <point x="40" y="0" type="line"/>
      <point x="265" y="0" type="line"/>
      <point x="265" y="513" type="line" smooth="yes"/>
      <point x="265" y="563"/>
      <point x="285" y="585"/>
      <point x="329" y="585" type="curve" smooth="yes"/>
      <point x="370" y="585"/>
      <point x="388" y="563"/>
      <point x="388" y="513" type="curve" smooth="yes"/>
      <point x="388" y="463"/>
      <point x="365" y="441"/>
      <point x="312" y="441" type="curve"/>
      <point x="312" y="284" type="line"/>
      <point x="335" y="284" type="line" smooth="yes"/>
      <point x="402" y="284"/>
      <point x="432" y="265"/>
      <point x="432" y="223" type="curve" smooth="yes"/>
      <point x="432" y="178"/>
      <point x="402" y="158"/>
      <point x="335" y="158" type="curve" smooth="yes"/>
      <point x="312" y="158" type="line"/>
      <point x="312" y="0" type="line"/>
      <point x="359" y="0" type="line" smooth="yes"/>
      <point x="536" y="0"/>
      <point x="650" y="85"/>
      <point x="650" y="217" type="curve" smooth="yes"/>
      <point x="650" y="293"/>
      <point x="602" y="359"/>
      <point x="528" y="385" type="curve"/>
      <point x="575" y="422"/>
      <point x="606" y="485"/>
      <point x="606" y="547" type="curve" smooth="yes"/>
      <point x="606" y="671"/>
      <point x="496" y="752"/>
      <point x="325" y="752" type="curve" smooth="yes"/>
      <point x="152" y="752"/>
      <point x="40" y="652"/>
      <point x="40" y="496" type="curve" smooth="yes"/>
    </contour>
  </outline>
</glyph>
<glyph name="ae" format="2">
  <advance width="1916"/>
  <unicode hex="00E6"/>
  <anchor x="962" y="1094" name="top"/>
  <outline>
    <contour>
      <point x="1170" y="446" type="line"/>
      <point x="1884" y="446" type="line"/>
      <point x="1908" y="850"/>
      <point x="1684" y="1110"/>
      <point x="1300" y="1110" type="curve" smooth="yes"/>
      <point x="1178" y="1110"/>
      <point x="1076" y="1080"/>
      <point x="994" y="1024" type="curve"/>
      <point x="908" y="1084"/>
      <point x="790" y="1114"/>
      <point x="644" y="1114" type="curve" smooth="yes"/>
      <point x="482" y="1114"/>
      <point x="290" y="1076"/>
      <point x="102" y="1008" type="curve"/>
      <point x="202" y="708" type="line"/>
      <point x="326" y="754"/>
      <point x="454" y="778"/>
      <point x="538" y="778" type="curve" smooth="yes"/>
      <point x="640" y="778"/>
      <point x="698" y="740"/>
      <point x="708" y="676" type="curve"/>
      <point x="710" y="658" type="line"/>
      <point x="456" y="658" type="line"/>
      <point x="178" y="654"/>
      <point x="30" y="540"/>
      <point x="30" y="324" type="curve" smooth="yes"/>
      <point x="30" y="116"/>
      <point x="182" y="-22"/>
      <point x="440" y="-22" type="curve" smooth="yes"/>
      <point x="644" y="-22"/>
      <point x="790" y="54"/>
      <point x="872" y="186" type="curve"/>
      <point x="960" y="58"/>
      <point x="1108" y="-16"/>
      <point x="1312" y="-16" type="curve" smooth="yes"/>
      <point x="1526" y="-16"/>
      <point x="1694" y="56"/>
      <point x="1810" y="184" type="curve"/>
      <point x="1576" y="414" type="line"/>
      <point x="1508" y="350"/>
      <point x="1430" y="316"/>
      <point x="1352" y="316" type="curve" smooth="yes"/>
      <point x="1268" y="316"/>
      <point x="1200" y="356"/>
      <point x="1174" y="434" type="curve" smooth="yes"/>
    </contour>
    <contour>
      <point x="710" y="450" type="line"/>
      <point x="710" y="350" type="line"/>
      <point x="672" y="296"/>
      <point x="612" y="266"/>
      <point x="554" y="266" type="curve" smooth="yes"/>
      <point x="490" y="266"/>
      <point x="452" y="302"/>
      <point x="452" y="362" type="curve" smooth="yes"/>
      <point x="452" y="420"/>
      <point x="488" y="450"/>
      <point x="550" y="450" type="curve" smooth="yes"/>
    </contour>
    <contour>
      <point x="1160" y="654" type="line"/>
      <point x="1178" y="746"/>
      <point x="1226" y="810"/>
      <point x="1304" y="810" type="curve" smooth="yes"/>
      <point x="1384" y="810"/>
      <point x="1440" y="744"/>
      <point x="1434" y="654" type="curve"/>
    </contour>
  </outline>
</glyph>
<glyph name="ccedilla" format="2">
  <advance width="561"/>
  <unicode hex="00E7"/>
  <anchor x="262" y="-265" name="bottom"/>
  <anchor x="284" y="547" name="top"/>
  <outline>
    <contour>
      <point x="159" y="-225" type="line"/>
      <point x="195" y="-237"/>
      <point x="238" y="-244"/>
      <point x="278" y="-244" type="curve" smooth="yes"/>
      <point x="346" y="-244"/>
      <point x="415" y="-217"/>
      <point x="415" y="-142" type="curve" smooth="yes"/>
      <point x="415" y="-105"/>
      <point x="392" y="-75"/>
      <point x="332" y="-59" type="curve"/>
      <point x="352" y="-5" type="line"/>
      <point x="453" y="8"/>
      <point x="529" y="61"/>
      <point x="563" y="145" type="curve"/>
      <point x="381" y="229" type="line"/>
      <point x="369" y="188"/>
      <point x="346" y="170"/>
      <point x="314" y="170" type="curve" smooth="yes"/>
      <point x="270" y="170"/>
      <point x="242" y="210"/>
      <point x="242" y="272" type="curve" smooth="yes"/>
      <point x="242" y="333"/>
      <point x="270" y="373"/>
      <point x="314" y="373" type="curve" smooth="yes"/>
      <point x="346" y="373"/>
      <point x="370" y="354"/>
      <point x="384" y="321" type="curve"/>
      <point x="563" y="397" type="line"/>
      <point x="518" y="497"/>
      <point x="423" y="555"/>
      <point x="304" y="555" type="curve" smooth="yes"/>
      <point x="129" y="555"/>
      <point x="15" y="443"/>
      <point x="15" y="271" type="curve" smooth="yes"/>
      <point x="15" y="126"/>
      <point x="98" y="24"/>
      <point x="232" y="-2" type="curve"/>
      <point x="200" y="-100" type="line"/>
      <point x="217" y="-100" type="line" smooth="yes"/>
      <point x="245" y="-100"/>
      <point x="274" y="-106"/>
      <point x="274" y="-123" type="curve" smooth="yes"/>
      <point x="274" y="-136"/>
      <point x="256" y="-142"/>
      <point x="234" y="-142" type="curve" smooth="yes"/>
      <point x="219" y="-142"/>
      <point x="203" y="-140"/>
      <point x="189" y="-135" type="curve"/>
    </contour>
  </outline>
</glyph>
<glyph name="eth" format="2">
  <advance width="617"/>
  <unicode hex="00F0"/>
  <outline>
    <contour>
      <point x="84" y="663" type="line"/>
      <point x="247" y="605"/>
      <point x="380" y="510"/>
      <point x="381" y="409" type="curve"/>
      <point x="349" y="433"/>
      <point x="292" y="448"/>
      <point x="236" y="448" type="curve" smooth="yes"/>
      <point x="98" y="448"/>
      <point x="9" y="361"/>
      <point x="9" y="227" type="curve" smooth="yes"/>
      <point x="9" y="83"/>
      <point x="117" y="-11"/>
      <point x="284" y="-11" type="curve" smooth="yes"/>
      <point x="477" y="-11"/>
      <point x="602" y="113"/>
      <point x="602" y="303" type="curve" smooth="yes"/>
      <point x="602" y="501"/>
      <point x="458" y="677"/>
      <point x="235" y="752" type="curve"/>
    </contour>
    <contour>
      <point x="291" y="300" type="curve" smooth="yes"/>
      <point x="334" y="300"/>
      <point x="361" y="275"/>
      <point x="361" y="237" type="curve" smooth="yes"/>
      <point x="361" y="199"/>
      <point x="334" y="174"/>
      <point x="292" y="174" type="curve" smooth="yes"/>
      <point x="251" y="174"/>
      <point x="224" y="199"/>
      <point x="224" y="238" type="curve" smooth="yes"/>
      <point x="224" y="276"/>
      <point x="250" y="300"/>
    </contour>
    <contour>
      <point x="112" y="474" type="line"/>
      <point x="556" y="675" type="line"/>
      <point x="519" y="753" type="line"/>
      <point x="75" y="550" type="line"/>
    </contour>
  </outline>
</glyph>
<glyph name="divide" format="2">
  <advance width="520"/>
  <unicode hex="00F7"/>
  <outline>
    <component base="dotaccentcomb" xScale="0.8" yScale="0.8" xOffset="147" yOffset="-54"/>
    <component base="dotaccentcomb" xScale="0.8" yScale="0.8" xOffset="147" yOffset="-414"/>
    <contour>
      <point x="30" y="259" type="line"/>
      <point x="490" y="259" type="line"/>
      <point x="490" y="399" type="line"/>
      <point x="30" y="399" type="line"/>
    </contour>
  </outline>
</glyph>
<glyph name="oslash" format="2">
  <advance width="648"/>
  <unicode hex="00F8"/>
  <anchor x="344" y="547" name="top"/>
  <outline>
    <contour>
      <point x="324" y="555" type="curve" smooth="yes"/>
      <point x="136" y="555"/>
      <point x="15" y="445"/>
      <point x="15" y="274" type="curve" smooth="yes"/>
      <point x="15" y="103"/>
      <point x="136" y="-8"/>
      <point x="324" y="-8" type="curve" smooth="yes"/>
      <point x="512" y="-8"/>
      <point x="633" y="103"/>
      <point x="633" y="274" type="curve" smooth="yes"/>
      <point x="633" y="445"/>
      <point x="512" y="555"/>
    </contour>
    <contour>
      <point x="324" y="396" type="curve" smooth="yes"/>
      <point x="383" y="396"/>
      <point x="421" y="347"/>
      <point x="421" y="271" type="curve" smooth="yes"/>
      <point x="421" y="195"/>
      <point x="383" y="146"/>
      <point x="324" y="146" type="curve" smooth="yes"/>
      <point x="265" y="146"/>
      <point x="227" y="195"/>
      <point x="227" y="271" type="curve" smooth="yes"/>
      <point x="227" y="347"/>
      <point x="265" y="396"/>
    </contour>
    <contour>
      <point x="44" y="-80" type="line"/>
      <point x="132" y="-80" type="line"/>
      <point x="610" y="627" type="line"/>
      <point x="522" y="627" type="line"/>
    </contour>
  </outline>
</glyph>
<glyph name="thorn" format="2">
  <advance width="1380"/>
  <unicode hex="00FE"/>
  <anchor x="346" y="0" name="bottom"/>
  <anchor x="346" y="1484" name="top"/>
  <anchor x="630" y="1094" name="topright"/>
  <outline>
    <contour>
      <point x="570" y="1484" type="line"/>
      <point x="120" y="1484" type="line"/>
      <point x="120" y="-388" type="line"/>
      <point x="570" y="-388" type="line"/>
      <point x="570" y="112" type="line"/>
      <point x="642" y="30"/>
      <point x="742" y="-16"/>
      <point x="860" y="-16" type="curve" smooth="yes"/>
      <point x="1158" y="-16"/>
      <point x="1350" y="202"/>
      <point x="1350" y="540" type="curve" smooth="yes"/>
      <point x="1350" y="886"/>
      <point x="1152" y="1110"/>
      <point x="848" y="1110" type="curve" smooth="yes"/>
      <point x="736" y="1110"/>
      <point x="640" y="1066"/>
      <point x="570" y="984" type="curve"/>
    </contour>
    <contour>
      <point x="732" y="764" type="curve" smooth="yes"/>
      <point x="832" y="764"/>
      <point x="896" y="680"/>
      <point x="896" y="552" type="curve" smooth="yes"/>
      <point x="896" y="424"/>
      <point x="832" y="340"/>
      <point x="732" y="340" type="curve" smooth="yes"/>
      <point x="634" y="340"/>
      <point x="570" y="424"/>
      <point x="570" y="552" type="curve" smooth="yes"/>
      <point x="570" y="680"/>
      <point x="634" y="764"/>
    </contour>
  </outline>
</glyph>
<glyph name="Dcroat" format="2">
  <advance width="758"/>
  <unicode hex="0110"/>
  <anchor x="363" y="0" name="bottom"/>
  <anchor x="351" y="700" name="top"/>
  <outline>
    <contour>
      <point x="-12" y="302" type="line"/>
      <point x="414" y="302" type="line"/>
      <point x="414" y="399" type="line"/>
      <point x="-12" y="399" type="line"/>
    </contour>
    <contour>
      <point x="50" y="700" type="line"/>
      <point x="50" y="0" type="line"/>
      <point x="353" y="0" type="line" smooth="yes"/>
      <point x="590" y="0"/>
      <point x="743" y="138"/>
      <point x="743" y="350" type="curve" smooth="yes"/>
      <point x="743" y="563"/>
      <point x="593" y="700"/>
      <point x="362" y="700" type="curve" smooth="yes"/>
    </contour>
    <contour>
      <point x="282" y="180" type="line"/>
      <point x="282" y="520" type="line"/>
      <point x="357" y="520" type="line" smooth="yes"/>
      <point x="447" y="520"/>
      <point x="506" y="452"/>
      <point x="506" y="348" type="curve" smooth="yes"/>
      <point x="506" y="246"/>
      <point x="452" y="180"/>
      <point x="368" y="180" type="curve" smooth="yes"/>
    </contour>
  </outline>
</glyph>
<glyph name="dcroat" format="2">
  <advance width="690"/>
  <unicode hex="0111"/>
  <outline>
    <contour>
      <point x="255" y="567" type="line"/>
      <point x="690" y="567" type="line"/>
      <point x="690" y="667" type="line"/>
      <point x="255" y="667" type="line"/>
    </contour>
    <contour>
      <point x="260" y="512" type="curve" smooth="yes"/>
      <point x="111" y="512"/>
      <point x="15" y="412"/>
      <point x="15" y="256" type="curve" smooth="yes"/>
      <point x="15" y="95"/>
      <point x="114" y="-8"/>
      <point x="266" y="-8" type="curve" smooth="yes"/>
      <point x="392" y="-8"/>
      <point x="473" y="96"/>
      <point x="473" y="255" type="curve"/>
      <point x="473" y="410"/>
      <point x="389" y="512"/>
    </contour>
    <contour>
      <point x="324" y="334" type="curve" smooth="yes"/>
      <point x="373" y="334"/>
      <point x="405" y="301"/>
      <point x="405" y="250" type="curve" smooth="yes"/>
      <point x="405" y="198"/>
      <point x="373" y="165"/>
      <point x="324" y="165" type="curve" smooth="yes"/>
      <point x="274" y="165"/>
      <point x="242" y="198"/>
      <point x="242" y="250" type="curve" smooth="yes"/>
      <point x="242" y="302"/>
      <point x="274" y="334"/>
    </contour>
    <contour>
      <point x="405" y="-1" type="line"/>
      <point x="630" y="-1" type="line"/>
      <point x="630" y="742" type="line"/>
      <point x="405" y="742" type="line"/>
    </contour>
  </outline>
</glyph>
<glyph name="Hbar" format="2">
  <advance width="1762"/>
  <unicode hex="0126"/>
  <anchor x="878" y="0" name="bottom"/>
  <anchor x="876" y="1124" name="center"/>
  <anchor x="898" y="1400" name="top"/>
  <outline>
    <contour>
      <point x="12" y="1024" type="line"/>
      <point x="1740" y="1024" type="line"/>
      <point x="1740" y="1220" type="line"/>
      <point x="12" y="1220" type="line"/>
    </contour>
    <contour>
      <point x="198" y="0" type="line"/>
      <point x="662" y="0" type="line"/>
      <point x="662" y="506" type="line"/>
      <point x="1094" y="506" type="line"/>
      <point x="1094" y="0" type="line"/>
      <point x="1558" y="0" type="line"/>
      <point x="1558" y="1400" type="line"/>
      <point x="1094" y="1400" type="line"/>
      <point x="1094" y="856" type="line"/>
      <point x="662" y="856" type="line"/>
      <point x="662" y="1400" type="line"/>
      <point x="198" y="1400" type="line"/>
    </contour>
  </outline>
</glyph>
<glyph name="hbar" format="2">
  <advance width="687"/>
  <unicode hex="0127"/>
  <outline>
    <contour>
      <point x="0" y="567" type="line"/>
      <point x="435" y="567" type="line"/>
      <point x="435" y="667" type="line"/>
      <point x="0" y="667" type="line"/>
    </contour>
    <contour>
      <point x="422" y="0" type="line"/>
      <point x="647" y="0" type="line"/>
      <point x="647" y="304" type="line" smooth="yes"/>
      <point x="647" y="430"/>
      <point x="566" y="512"/>
      <point x="451" y="512" type="curve" smooth="yes"/>
      <point x="316" y="512"/>
      <point x="235" y="400"/>
      <point x="235" y="226" type="curve"/>
      <point x="285" y="226" type="line"/>
      <point x="285" y="279"/>
      <point x="313" y="314"/>
      <point x="357" y="314" type="curve" smooth="yes"/>
      <point x="396" y="314"/>
      <point x="422" y="285"/>
      <point x="422" y="239" type="curve" smooth="yes"/>
    </contour>
    <contour>
      <point x="60" y="0" type="line"/>
      <point x="285" y="0" type="line"/>
      <point x="285" y="742" type="line"/>
      <point x="60" y="742" type="line"/>
    </contour>
  </outline>
</glyph>
<glyph name="dotlessi" format="2">
  <advance width="670"/>
  <unicode hex="0131"/>
  <anchor x="440" y="0" name="ogonek"/>
  <anchor x="336" y="1094" name="top"/>
  <outline>
    <contour>
      <point x="110" y="0" type="line"/>
      <point x="560" y="0" type="line"/>
      <point x="560" y="1094" type="line"/>
      <point x="110" y="1094" type="line"/>
    </contour>
  </outline>
</glyph>
<glyph name="idotless" format="2">
  <advance width="335"/>
  <unicode hex="0131"/>
  <anchor x="220" y="0" name="ogonek"/>
  <anchor x="168" y="547" name="top"/>
  <outline>
    <contour>
      <point x="55" y="0" type="line"/>
      <point x="280" y="0" type="line"/>
      <point x="280" y="547" type="line"/>
      <point x="55" y="547" type="line"/>
    </contour>
  </outline>
</glyph>
<glyph name="kgreenlandic" format="2">
  <advance width="655"/>
  <unicode hex="0138"/>
  <anchor x="328" y="0" name="bottom"/>
  <anchor x="328" y="547" name="top"/>
  <outline>
    <contour>
      <point x="55" y="0" type="line"/>
      <point x="280" y="0" type="line"/>
      <point x="280" y="547" type="line"/>
      <point x="55" y="547" type="line"/>
    </contour>
    <contour>
      <point x="268" y="378" type="line"/>
      <point x="268" y="133" type="line"/>
      <point x="659" y="547" type="line"/>
      <point x="405" y="547" type="line"/>
    </contour>
    <contour>
      <point x="280" y="224" type="line"/>
      <point x="389" y="0" type="line"/>
      <point x="656" y="0" type="line"/>
      <point x="446" y="360" type="line"/>
    </contour>
  </outline>
</glyph>
<glyph name="Lslash" format="2">
  <advance width="1276"/>
  <unicode hex="0141"/>
  <anchor x="732" y="0" name="bottom"/>
  <anchor x="1008" y="798" name="center"/>
  <anchor x="428" y="1400" name="top"/>
  <anchor x="940" y="1400" name="topright"/>
  <outline>
    <contour>
      <point x="30" y="488" type="line"/>
      <point x="878" y="916" type="line"/>
      <point x="878" y="1152" type="line"/>
      <point x="30" y="722" type="line"/>
    </contour>
    <contour>
      <point x="210" y="0" type="line"/>
      <point x="1256" y="0" type="line"/>
      <point x="1256" y="386" type="line"/>
      <point x="672" y="386" type="line"/>
      <point x="672" y="1400" type="line"/>
      <point x="210" y="1400" type="line"/>
    </contour>
  </outline>
</glyph>
<glyph name="lslash" format="2">
  <advance width="896"/>
  <unicode hex="0142"/>
  <outline>
    <component base="l"/>
    <contour>
      <point x="16" y="468" type="line"/>
      <point x="866" y="898" type="line"/>
      <point x="866" y="1134" type="line"/>
      <point x="16" y="704" type="line"/>
    </contour>
  </outline>
</glyph>
<glyph name="Eng" format="2">
  <advance width="780"/>
  <unicode hex="014A"/>
  <anchor x="390" y="0" name="bottom"/>
  <anchor x="390" y="700" name="top"/>
  <outline>
    <contour>
      <point x="524" y="33" type="line"/>
      <point x="524" y="-11"/>
      <point x="506" y="-32"/>
      <point x="466" y="-32" type="curve" smooth="yes"/>
      <point x="443" y="-32"/>
      <point x="411" y="-25"/>
      <point x="372" y="-10" type="curve"/>
      <point x="298" y="-185" type="line"/>
      <point x="347" y="-211"/>
      <point x="402" y="-225"/>
      <point x="466" y="-225" type="curve" smooth="yes"/>
      <point x="619" y="-225"/>
      <point x="721" y="-143"/>
      <point x="730" y="0" type="curve"/>
    </contour>
    <contour>
      <point x="50" y="0" type="line"/>
      <point x="261" y="0" type="line"/>
      <point x="261" y="357" type="line"/>
      <point x="536" y="0" type="line"/>
      <point x="730" y="0" type="line"/>
      <point x="730" y="700" type="line"/>
      <point x="520" y="700" type="line"/>
      <point x="520" y="340" type="line"/>
      <point x="244" y="700" type="line"/>
      <point x="50" y="700" type="line"/>
    </contour>
  </outline>
</glyph>
<glyph name="eng" format="2">
  <advance width="682"/>
  <unicode hex="014B"/>
  <anchor x="347" y="0" name="bottom"/>
  <anchor x="360" y="547" name="top"/>
  <outline>
    <contour>
      <point x="417" y="17" type="line" smooth="yes"/>
      <point x="417" y="-14"/>
      <point x="401" y="-30"/>
      <point x="373" y="-29" type="curve"/>
      <point x="355" y="-29"/>
      <point x="337" y="-24"/>
      <point x="318" y="-15" type="curve"/>
      <point x="268" y="-169" type="line"/>
      <point x="311" y="-191"/>
      <point x="365" y="-203"/>
      <point x="425" y="-203" type="curve" smooth="yes"/>
      <point x="557" y="-204"/>
      <point x="642" y="-132"/>
      <point x="642" y="-23" type="curve" smooth="yes"/>
      <point x="642" y="349" type="line" smooth="yes"/>
      <point x="642" y="475"/>
      <point x="561" y="557"/>
      <point x="446" y="557" type="curve" smooth="yes"/>
      <point x="311" y="557"/>
      <point x="230" y="445"/>
      <point x="230" y="271" type="curve"/>
      <point x="280" y="271" type="line"/>
      <point x="280" y="324"/>
      <point x="308" y="359"/>
      <point x="352" y="359" type="curve" smooth="yes"/>
      <point x="391" y="359"/>
      <point x="417" y="330"/>
      <point x="417" y="284" type="curve" smooth="yes"/>
    </contour>
    <contour>
      <point x="55" y="0" type="line"/>
      <point x="280" y="0" type="line"/>
      <point x="280" y="547" type="line"/>
      <point x="55" y="547" type="line"/>
    </contour>
  </outline>
</glyph>
<glyph name="OE" format="2">
  <advance width="1125"/>
  <unicode hex="0152"/>
  <anchor x="787" y="0" name="bottom"/>
  <anchor x="1079" y="10" name="ogonek"/>
  <anchor x="556" y="700" name="top"/>
  <outline>
    <contour>
      <point x="536" y="513" type="line"/>
      <point x="536" y="700" type="line"/>
      <point x="398" y="700" type="line"/>
      <point x="176" y="700"/>
      <point x="15" y="550"/>
      <point x="15" y="348" type="curve" smooth="yes"/>
      <point x="15" y="146"/>
      <point x="178" y="0"/>
      <point x="398" y="0" type="curve"/>
      <point x="555" y="0" type="line"/>
      <point x="558" y="185" type="line"/>
      <point x="398" y="183" type="line"/>
      <point x="314" y="183"/>
      <point x="253" y="253"/>
      <point x="253" y="347" type="curve" smooth="yes"/>
      <point x="253" y="443"/>
      <point x="314" y="513"/>
      <point x="398" y="513" type="curve"/>
    </contour>
    <contour>
      <point x="486" y="0" type="line"/>
      <point x="1087" y="0" type="line"/>
      <point x="1087" y="176" type="line"/>
      <point x="718" y="176" type="line"/>
      <point x="718" y="263" type="line"/>
      <point x="1045" y="263" type="line"/>
      <point x="1045" y="438" type="line"/>
      <point x="718" y="438" type="line"/>
      <point x="718" y="524" type="line"/>
      <point x="1078" y="524" type="line"/>
      <point x="1078" y="700" type="line"/>
      <point x="486" y="700" type="line"/>
    </contour>
  </outline>
</glyph>
<glyph name="oe" format="2">
  <advance width="1998"/>
  <unicode hex="0153"/>
  <outline>
    <contour>
      <point x="648" y="1110" type="curve" smooth="yes"/>
      <point x="272" y="1110"/>
      <point x="30" y="890"/>
      <point x="30" y="548" type="curve" smooth="yes"/>
      <point x="30" y="206"/>
      <point x="272" y="-16"/>
      <point x="648" y="-16" type="curve" smooth="yes"/>
      <point x="988" y="-16"/>
      <point x="1166" y="206"/>
      <point x="1166" y="548" type="curve" smooth="yes"/>
      <point x="1166" y="890"/>
      <point x="988" y="1110"/>
    </contour>
    <contour>
      <point x="648" y="754" type="curve" smooth="yes"/>
      <point x="748" y="754"/>
      <point x="812" y="670"/>
      <point x="812" y="542" type="curve" smooth="yes"/>
      <point x="812" y="414"/>
      <point x="748" y="330"/>
      <point x="648" y="330" type="curve" smooth="yes"/>
      <point x="548" y="330"/>
      <point x="484" y="414"/>
      <point x="484" y="542" type="curve" smooth="yes"/>
      <point x="484" y="670"/>
      <point x="548" y="754"/>
    </contour>
    <contour>
      <point x="1170" y="654" type="line"/>
      <point x="1170" y="446" type="line"/>
      <point x="1966" y="446" type="line"/>
      <point x="1990" y="850"/>
      <point x="1764" y="1110"/>
      <point x="1380" y="1110" type="curve" smooth="yes"/>
      <point x="1062" y="1110"/>
      <point x="892" y="888"/>
      <point x="892" y="542" type="curve" smooth="yes"/>
      <point x="892" y="204"/>
      <point x="1052" y="-16"/>
      <point x="1392" y="-16" type="curve" smooth="yes"/>
      <point x="1606" y="-16"/>
      <point x="1774" y="56"/>
      <point x="1892" y="184" type="curve"/>
      <point x="1658" y="414" type="line"/>
      <point x="1588" y="350"/>
      <point x="1510" y="316"/>
      <point x="1432" y="316" type="curve" smooth="yes"/>
      <point x="1308" y="316"/>
      <point x="1228" y="404"/>
      <point x="1228" y="568" type="curve" smooth="yes"/>
      <point x="1228" y="704"/>
      <point x="1282" y="810"/>
      <point x="1384" y="810" type="curve" smooth="yes"/>
      <point x="1464" y="810"/>
      <point x="1522" y="744"/>
      <point x="1516" y="654" type="curve"/>
    </contour>
  </outline>
</glyph>
<glyph name="Scedilla" format="2">
  <advance width="663"/>
  <unicode hex="015E"/>
  <anchor x="316" y="-265" name="bottom"/>
  <anchor x="338" y="546" name="top"/>
  <outline>
    <contour>
      <point x="213" y="-225" type="line"/>
      <point x="249" y="-237"/>
      <point x="292" y="-244"/>
      <point x="332" y="-244" type="curve" smooth="yes"/>
      <point x="399" y="-244"/>
      <point x="468" y="-217"/>
      <point x="468" y="-142" type="curve" smooth="yes"/>
      <point x="468" y="-105"/>
      <point x="445" y="-75"/>
      <point x="385" y="-59" type="curve"/>
      <point x="403" y="-11" type="line"/>
      <point x="541" y="1"/>
      <point x="653" y="73"/>
      <point x="653" y="216" type="curve" smooth="yes"/>
      <point x="653" y="473"/>
      <point x="291" y="416"/>
      <point x="291" y="509" type="curve" smooth="yes"/>
      <point x="291" y="531"/>
      <point x="308" y="540"/>
      <point x="333" y="540" type="curve" smooth="yes"/>
      <point x="394" y="540"/>
      <point x="503" y="498"/>
      <point x="574" y="457" type="curve"/>
      <point x="658" y="634" type="line"/>
      <point x="579" y="684"/>
      <point x="464" y="718"/>
      <point x="353" y="718" type="curve" smooth="yes"/>
      <point x="172" y="718"/>
      <point x="54" y="629"/>
      <point x="54" y="487" type="curve" smooth="yes"/>
      <point x="54" y="237"/>
      <point x="416" y="299"/>
      <point x="416" y="204" type="curve" smooth="yes"/>
      <point x="416" y="177"/>
      <point x="394" y="165"/>
      <point x="360" y="165" type="curve" smooth="yes"/>
      <point x="290" y="165"/>
      <point x="166" y="214"/>
      <point x="94" y="276" type="curve"/>
      <point x="8" y="101" type="line"/>
      <point x="82" y="43"/>
      <point x="184" y="5"/>
      <point x="284" y="-8" type="curve"/>
      <point x="254" y="-100" type="line"/>
      <point x="271" y="-100" type="line" smooth="yes"/>
      <point x="299" y="-100"/>
      <point x="328" y="-106"/>
      <point x="328" y="-123" type="curve" smooth="yes"/>
      <point x="328" y="-136"/>
      <point x="310" y="-142"/>
      <point x="288" y="-142" type="curve" smooth="yes"/>
      <point x="273" y="-142"/>
      <point x="257" y="-140"/>
      <point x="243" y="-135" type="curve"/>
    </contour>
  </outline>
</glyph>
<glyph name="scedilla" format="2">
  <advance width="1104"/>
  <unicode hex="015F"/>
  <anchor x="550" y="0" name="bottom"/>
  <anchor x="578" y="1094" name="top"/>
  <outline>
    <contour>
      <point x="1066" y="976" type="line"/>
      <point x="902" y="1068"/>
      <point x="732" y="1114"/>
      <point x="558" y="1114" type="curve" smooth="yes"/>
      <point x="266" y="1114"/>
      <point x="76" y="966"/>
      <point x="76" y="736" type="curve" smooth="yes"/>
      <point x="76" y="366"/>
      <point x="632" y="408"/>
      <point x="632" y="312" type="curve" smooth="yes"/>
      <point x="632" y="292"/>
      <point x="606" y="280"/>
      <point x="564" y="280" type="curve" smooth="yes"/>
      <point x="442" y="280"/>
      <point x="306" y="326"/>
      <point x="160" y="416" type="curve"/>
      <point x="24" y="136" type="line"/>
      <point x="142" y="55"/>
      <point x="278" y="6"/>
      <point x="428" y="-12" type="curve"/>
      <point x="378" y="-164" type="line"/>
      <point x="412" y="-164" type="line" smooth="yes"/>
      <point x="468" y="-164"/>
      <point x="526" y="-176"/>
      <point x="526" y="-210" type="curve" smooth="yes"/>
      <point x="526" y="-236"/>
      <point x="490" y="-248"/>
      <point x="446" y="-248" type="curve" smooth="yes"/>
      <point x="416" y="-248"/>
      <point x="384" y="-244"/>
      <point x="356" y="-234" type="curve"/>
      <point x="296" y="-414" type="line"/>
      <point x="368" y="-438"/>
      <point x="454" y="-452"/>
      <point x="534" y="-452" type="curve" smooth="yes"/>
      <point x="670" y="-452"/>
      <point x="808" y="-398"/>
      <point x="808" y="-248" type="curve" smooth="yes"/>
      <point x="808" y="-174"/>
      <point x="762" y="-114"/>
      <point x="642" y="-82" type="curve"/>
      <point x="668" y="-13" type="line"/>
      <point x="906" y="18"/>
      <point x="1054" y="155"/>
      <point x="1054" y="352" type="curve" smooth="yes"/>
      <point x="1054" y="720"/>
      <point x="486" y="680"/>
      <point x="486" y="782" type="curve" smooth="yes"/>
      <point x="486" y="804"/>
      <point x="510" y="818"/>
      <point x="548" y="818" type="curve" smooth="yes"/>
      <point x="632" y="818"/>
      <point x="756" y="778"/>
      <point x="918" y="698" type="curve"/>
    </contour>
  </outline>
</glyph>
<glyph name="Tcedilla" format="2">
  <advance width="1280"/>
  <unicode hex="0162"/>
  <anchor x="640" y="600" name="center"/>
  <anchor x="672" y="1400" name="top"/>
  <anchor x="640" y="0" name="bottom"/>
  <outline>
    <contour>
      <point x="10" y="1034" type="line"/>
      <point x="407" y="1034" type="line"/>
      <point x="407" y="0" type="line"/>
      <point x="514" y="0" type="line"/>
      <point x="460" y="-164" type="line"/>
      <point x="494" y="-164" type="line" smooth="yes"/>
      <point x="550" y="-164"/>
      <point x="608" y="-176"/>
      <point x="608" y="-210" type="curve" smooth="yes"/>
      <point x="608" y="-236"/>
      <point x="572" y="-248"/>
      <point x="528" y="-248" type="curve" smooth="yes"/>
      <point x="498" y="-248"/>
      <point x="466" y="-244"/>
      <point x="438" y="-234" type="curve"/>
      <point x="378" y="-414" type="line"/>
      <point x="450" y="-438"/>
      <point x="536" y="-452"/>
      <point x="616" y="-452" type="curve" smooth="yes"/>
      <point x="752" y="-452"/>
      <point x="890" y="-398"/>
      <point x="890" y="-248" type="curve" smooth="yes"/>
      <point x="890" y="-174"/>
      <point x="844" y="-114"/>
      <point x="724" y="-82" type="curve"/>
      <point x="755" y="0" type="line"/>
      <point x="871" y="0" type="line"/>
      <point x="871" y="1034" type="line"/>
      <point x="1270" y="1034" type="line"/>
      <point x="1270" y="1400" type="line"/>
      <point x="10" y="1400" type="line"/>
    </contour>
  </outline>
</glyph>
<glyph name="tcedilla" format="2">
  <advance width="920"/>
  <unicode hex="0163"/>
  <anchor x="444" y="572" name="center"/>
  <anchor x="390" y="1340" name="top"/>
  <anchor x="714" y="1484" name="topright"/>
  <anchor x="528" y="0" name="bottom"/>
  <outline>
    <contour>
      <point x="614" y="1340" type="line"/>
      <point x="166" y="1340" type="line"/>
      <point x="166" y="1094" type="line"/>
      <point x="16" y="1094" type="line"/>
      <point x="16" y="810" type="line"/>
      <point x="166" y="810" type="line"/>
      <point x="166" y="352" type="line" smooth="yes"/>
      <point x="166" y="183"/>
      <point x="256" y="59"/>
      <point x="404" y="7" type="curve"/>
      <point x="348" y="-164" type="line"/>
      <point x="382" y="-164" type="line" smooth="yes"/>
      <point x="438" y="-164"/>
      <point x="496" y="-176"/>
      <point x="496" y="-210" type="curve" smooth="yes"/>
      <point x="496" y="-236"/>
      <point x="460" y="-248"/>
      <point x="416" y="-248" type="curve" smooth="yes"/>
      <point x="386" y="-248"/>
      <point x="354" y="-244"/>
      <point x="326" y="-234" type="curve"/>
      <point x="266" y="-414" type="line"/>
      <point x="338" y="-438"/>
      <point x="424" y="-452"/>
      <point x="504" y="-452" type="curve" smooth="yes"/>
      <point x="640" y="-452"/>
      <point x="778" y="-398"/>
      <point x="778" y="-248" type="curve" smooth="yes"/>
      <point x="778" y="-174"/>
      <point x="732" y="-114"/>
      <point x="612" y="-82" type="curve"/>
      <point x="636" y="-18" type="line"/>
      <point x="734" y="-11"/>
      <point x="830" y="13"/>
      <point x="890" y="48" type="curve"/>
      <point x="814" y="356" type="line"/>
      <point x="772" y="340"/>
      <point x="728" y="328"/>
      <point x="702" y="328" type="curve"/>
      <point x="648" y="326"/>
      <point x="614" y="362"/>
      <point x="614" y="420" type="curve" smooth="yes"/>
      <point x="614" y="810" type="line"/>
      <point x="870" y="810" type="line"/>
      <point x="870" y="1094" type="line"/>
      <point x="614" y="1094" type="line"/>
    </contour>
  </outline>
</glyph>
<glyph name="tbar" format="2">
  <advance width="920"/>
  <unicode hex="0167"/>
  <outline>
    <contour>
      <point x="166" y="352" type="line" smooth="yes"/>
      <point x="166" y="124"/>
      <point x="328" y="-22"/>
      <point x="578" y="-20" type="curve" smooth="yes"/>
      <point x="694" y="-20"/>
      <point x="818" y="6"/>
      <point x="890" y="48" type="curve"/>
      <point x="814" y="356" type="line"/>
      <point x="772" y="340"/>
      <point x="728" y="328"/>
      <point x="702" y="328" type="curve"/>
      <point x="648" y="326"/>
      <point x="614" y="362"/>
      <point x="614" y="420" type="curve" smooth="yes"/>
      <point x="614" y="1340" type="line"/>
      <point x="166" y="1340" type="line"/>
    </contour>
    <contour>
      <point x="16" y="860" type="line"/>
      <point x="870" y="860" type="line"/>
      <point x="870" y="1094" type="line"/>
      <point x="16" y="1094" type="line"/>
    </contour>
    <contour>
      <point x="16" y="464" type="line"/>
      <point x="870" y="464" type="line"/>
      <point x="870" y="698" type="line"/>
      <point x="16" y="698" type="line"/>
    </contour>
  </outline>
</glyph>
<glyph name="Schwa" format="2">
  <advance width="799"/>
  <unicode hex="018F"/>
  <outline>
    <contour>
      <point x="399" y="-16" type="curve" smooth="yes"/>
      <point x="616" y="-16"/>
      <point x="774" y="140"/>
      <point x="774" y="351" type="curve" smooth="yes"/>
      <point x="774" y="562"/>
      <point x="616" y="715"/>
      <point x="399" y="715" type="curve" smooth="yes"/>
      <point x="283" y="715"/>
      <point x="182" y="673"/>
      <point x="114" y="602" type="curve"/>
      <point x="273" y="437" type="line"/>
      <point x="299" y="489"/>
      <point x="347" y="522"/>
      <point x="402" y="522" type="curve" smooth="yes"/>
      <point x="468" y="522"/>
      <point x="517" y="472"/>
      <point x="531" y="397" type="curve"/>
      <point x="25" y="397" type="line"/>
      <point x="25" y="147"/>
      <point x="173" y="-16"/>
    </contour>
    <contour>
      <point x="402" y="177" type="curve" smooth="yes"/>
      <point x="343" y="177"/>
      <point x="299" y="214"/>
      <point x="277" y="271" type="curve"/>
      <point x="524" y="271" type="line"/>
      <point x="505" y="214"/>
      <point x="464" y="177"/>
    </contour>
  </outline>
</glyph>
<glyph name="florin" format="2">
  <advance width="444"/>
  <unicode hex="0192"/>
  <outline>
    <contour>
      <point x="27" y="-204" type="curve" smooth="yes"/>
      <point x="159" y="-205"/>
      <point x="253" y="-132"/>
      <point x="267" y="-18" type="curve" smooth="yes"/>
      <point x="334" y="532" type="line" smooth="yes"/>
      <point x="338" y="561"/>
      <point x="360" y="579"/>
      <point x="392" y="578" type="curve"/>
      <point x="408" y="578"/>
      <point x="429" y="571"/>
      <point x="445" y="559" type="curve"/>
      <point x="519" y="713" type="line"/>
      <point x="479" y="737"/>
      <point x="414" y="752"/>
      <point x="354" y="752" type="curve" smooth="yes"/>
      <point x="223" y="753"/>
      <point x="129" y="680"/>
      <point x="115" y="566" type="curve" smooth="yes"/>
      <point x="47" y="16" type="line" smooth="yes"/>
      <point x="43" y="-13"/>
      <point x="25" y="-31"/>
      <point x="-1" y="-30" type="curve"/>
      <point x="-17" y="-30"/>
      <point x="-38" y="-23"/>
      <point x="-53" y="-11" type="curve"/>
      <point x="-107" y="-165" type="line"/>
      <point x="-76" y="-189"/>
      <point x="-21" y="-204"/>
    </contour>
    <contour>
      <point x="415" y="325" type="line"/>
      <point x="432" y="467" type="line"/>
      <point x="27" y="467" type="line"/>
      <point x="10" y="325" type="line"/>
    </contour>
  </outline>
</glyph>
<glyph name="dotlessj" format="2">
  <advance width="680"/>
  <unicode hex="0237"/>
  <anchor x="342" y="1094" name="top"/>
  <outline>
    <contour>
      <point x="-130" y="-360" type="line"/>
      <point x="-54" y="-390"/>
      <point x="36" y="-406"/>
      <point x="136" y="-406" type="curve"/>
      <point x="400" y="-408"/>
      <point x="570" y="-264"/>
      <point x="570" y="-34" type="curve"/>
      <point x="570" y="1094" type="line"/>
      <point x="120" y="1094" type="line"/>
      <point x="120" y="34" type="line"/>
      <point x="120" y="-28"/>
      <point x="88" y="-60"/>
      <point x="32" y="-58" type="curve"/>
      <point x="6" y="-58"/>
      <point x="-20" y="-52"/>
      <point x="-44" y="-46" type="curve"/>
    </contour>
  </outline>
</glyph>
<glyph name="jdotless" format="2">
  <advance width="340"/>
  <unicode hex="0237"/>
  <anchor x="171" y="547" name="top"/>
  <outline>
    <contour>
      <point x="-65" y="-180" type="line"/>
      <point x="-27" y="-195"/>
      <point x="18" y="-203"/>
      <point x="68" y="-203" type="curve"/>
      <point x="200" y="-204"/>
      <point x="285" y="-132"/>
      <point x="285" y="-17" type="curve"/>
      <point x="285" y="547" type="line"/>
      <point x="60" y="547" type="line"/>
      <point x="60" y="17" type="line"/>
      <point x="60" y="-14"/>
      <point x="44" y="-30"/>
      <point x="16" y="-29" type="curve"/>
      <point x="3" y="-29"/>
      <point x="-10" y="-26"/>
      <point x="-22" y="-23" type="curve"/>
    </contour>
  </outline>
</glyph>
<glyph name="commaturnedmod" format="2">
  <advance width="516"/>
  <unicode hex="02BB"/>
  <anchor x="416" y="1400" name="_topleft"/>
  <outline>
    <contour>
      <point x="416" y="1400" type="line"/>
      <point x="160" y="1400" type="line"/>
      <point x="100" y="1012" type="line"/>
      <point x="416" y="940" type="line"/>
    </contour>
  </outline>
</glyph>
<glyph name="apostrophemod" format="2">
  <advance width="252"/>
  <unicode hex="02BC"/>
  <outline>
    <contour>
      <point x="49.93" y="436.388" type="line"/>
      <point x="164.769" y="436.388" type="line"/>
      <point x="194.727" y="700.019" type="line"/>
      <point x="49.93" y="700.019" type="line"/>
    </contour>
  </outline>
</glyph>
<glyph name="ringhalfright" format="2">
  <advance width="213"/>
  <unicode hex="02BE"/>
  <outline>
    <contour>
      <point x="53" y="579" type="line"/>
      <point x="122" y="579"/>
      <point x="177" y="634"/>
      <point x="177" y="703" type="curve" smooth="yes"/>
      <point x="177" y="772"/>
      <point x="122" y="827"/>
      <point x="53" y="827" type="curve"/>
      <point x="53" y="742" type="line"/>
      <point x="75" y="742"/>
      <point x="92" y="725"/>
      <point x="92" y="703" type="curve" smooth="yes"/>
      <point x="92" y="681"/>
      <point x="75" y="664"/>
      <point x="53" y="664" type="curve"/>
    </contour>
  </outline>
</glyph>
<glyph name="ringhalfrightmod" format="2">
  <advance width="426"/>
  <unicode hex="02BE"/>
  <outline>
    <contour>
      <point x="106" y="1158" type="line"/>
      <point x="244" y="1158"/>
      <point x="354" y="1268"/>
      <point x="354" y="1406" type="curve" smooth="yes"/>
      <point x="354" y="1544"/>
      <point x="244" y="1654"/>
      <point x="106" y="1654" type="curve"/>
      <point x="106" y="1484" type="line"/>
      <point x="150" y="1484"/>
      <point x="184" y="1450"/>
      <point x="184" y="1406" type="curve" smooth="yes"/>
      <point x="184" y="1362"/>
      <point x="150" y="1328"/>
      <point x="106" y="1328" type="curve"/>
    </contour>
  </outline>
</glyph>
<glyph name="ringhalfleft" format="2">
  <advance width="212"/>
  <unicode hex="02BF"/>
  <outline>
    <contour>
      <point x="159" y="579" type="line"/>
      <point x="90" y="579"/>
      <point x="35" y="634"/>
      <point x="35" y="703" type="curve" smooth="yes"/>
      <point x="35" y="772"/>
      <point x="90" y="827"/>
      <point x="159" y="827" type="curve"/>
      <point x="159" y="742" type="line"/>
      <point x="137" y="742"/>
      <point x="120" y="725"/>
      <point x="120" y="703" type="curve" smooth="yes"/>
      <point x="120" y="681"/>
      <point x="137" y="664"/>
      <point x="159" y="664" type="curve"/>
    </contour>
  </outline>
</glyph>
<glyph name="ringhalfleftmod" format="2">
  <advance width="424"/>
  <unicode hex="02BF"/>
  <outline>
    <contour>
      <point x="318" y="1158" type="line"/>
      <point x="180" y="1158"/>
      <point x="70" y="1268"/>
      <point x="70" y="1406" type="curve" smooth="yes"/>
      <point x="70" y="1544"/>
      <point x="180" y="1654"/>
      <point x="318" y="1654" type="curve"/>
      <point x="318" y="1484" type="line"/>
      <point x="274" y="1484"/>
      <point x="240" y="1450"/>
      <point x="240" y="1406" type="curve" smooth="yes"/>
      <point x="240" y="1362"/>
      <point x="274" y="1328"/>
      <point x="318" y="1328" type="curve"/>
    </contour>
  </outline>
</glyph>
<glyph name="verticallinemod" format="2">
  <advance width="368"/>
  <unicode hex="02C8"/>
  <outline>
    <contour>
      <point x="328" y="992" type="line"/>
      <point x="328" y="1400" type="line"/>
      <point x="40" y="1400" type="line"/>
      <point x="40" y="992" type="line"/>
    </contour>
  </outline>
</glyph>
<glyph name="verticallinelowmod" format="2">
  <advance width="188"/>
  <unicode hex="02CC"/>
  <outline>
    <contour>
      <point x="168" y="-234" type="line"/>
      <point x="168" y="-30" type="line"/>
      <point x="20" y="-30" type="line"/>
      <point x="20" y="-234" type="line"/>
    </contour>
  </outline>
</glyph>
<glyph name="gravecomb" format="2">
  <advance width="627"/>
  <unicode hex="0300"/>
  <anchor x="347" y="547" name="_top"/>
  <anchor x="357" y="770" name="top"/>
  <outline>
    <contour>
      <point x="170" y="720" type="line"/>
      <point x="308" y="591" type="line"/>
      <point x="451" y="601" type="line"/>
      <point x="340" y="780" type="line"/>
    </contour>
  </outline>
</glyph>
<glyph name="acutecomb" format="2">
  <advance width="1134"/>
  <unicode hex="0301"/>
  <anchor x="452" y="1094" name="_top"/>
  <anchor x="564" y="1560" name="top"/>
  <outline>
    <contour>
      <point x="260" y="1202" type="line"/>
      <point x="544" y="1182" type="line"/>
      <point x="868" y="1440" type="line"/>
      <point x="530" y="1560" type="line"/>
    </contour>
  </outline>
</glyph>
<glyph name="circumflexcomb" format="2">
  <advance width="450"/>
  <unicode hex="0302"/>
  <anchor x="225" y="547" name="_top"/>
  <anchor x="225" y="745" name="top"/>
  <outline>
    <contour>
      <point x="20" y="607" type="line"/>
      <point x="160" y="607" type="line"/>
      <point x="280" y="739" type="line"/>
      <point x="170" y="739" type="line"/>
      <point x="290" y="607" type="line"/>
      <point x="430" y="607" type="line"/>
      <point x="319" y="769" type="line"/>
      <point x="131" y="769" type="line"/>
    </contour>
  </outline>
</glyph>
<glyph name="tildecomb" format="2">
  <advance width="812"/>
  <unicode hex="0303"/>
  <anchor x="420" y="1094" name="_top"/>
  <anchor x="420" y="1540" name="top"/>
  <outline>
    <contour>
      <point x="560" y="1542" type="line"/>
      <point x="558" y="1490"/>
      <point x="540" y="1466"/>
      <point x="500" y="1466" type="curve" smooth="yes"/>
      <point x="446" y="1466"/>
      <point x="360" y="1548"/>
      <point x="236" y="1548" type="curve" smooth="yes"/>
      <point x="86" y="1548"/>
      <point x="20" y="1436"/>
      <point x="20" y="1192" type="curve"/>
      <point x="254" y="1192" type="line"/>
      <point x="256" y="1246"/>
      <point x="274" y="1270"/>
      <point x="312" y="1270" type="curve" smooth="yes"/>
      <point x="368" y="1270"/>
      <point x="452" y="1188"/>
      <point x="578" y="1188" type="curve" smooth="yes"/>
      <point x="726" y="1188"/>
      <point x="792" y="1294"/>
      <point x="792" y="1542" type="curve"/>
    </contour>
  </outline>
</glyph>
<glyph name="macroncomb" format="2">
  <advance width="340"/>
  <unicode hex="0304"/>
  <anchor x="170" y="547" name="_top"/>
  <anchor x="170" y="762" name="top"/>
  <outline>
    <contour>
      <point x="10" y="634" type="line"/>
      <point x="330" y="634" type="line"/>
      <point x="330" y="762" type="line"/>
      <point x="10" y="762" type="line"/>
    </contour>
  </outline>
</glyph>
<glyph name="brevecomb" format="2">
  <advance width="388"/>
  <unicode hex="0306"/>
  <anchor x="194" y="547" name="_top"/>
  <anchor x="194" y="740" name="top"/>
  <outline>
    <contour>
      <point x="10" y="769" type="line"/>
      <point x="15" y="663"/>
      <point x="87" y="595"/>
      <point x="194" y="595" type="curve" smooth="yes"/>
      <point x="301" y="595"/>
      <point x="373" y="663"/>
      <point x="378" y="769" type="curve"/>
      <point x="243" y="769" type="line"/>
      <point x="240" y="739"/>
      <point x="221" y="719"/>
      <point x="194" y="719" type="curve" smooth="yes"/>
      <point x="167" y="719"/>
      <point x="148" y="739"/>
      <point x="145" y="769" type="curve"/>
    </contour>
  </outline>
</glyph>
<glyph name="dotaccentcomb" format="2">
  <advance width="282"/>
  <unicode hex="0307"/>
  <anchor x="141" y="701" name="_center"/>
  <anchor x="141" y="547" name="_top"/>
  <anchor x="141" y="772" name="top"/>
  <outline>
    <contour>
      <point x="138" y="817" type="curve" smooth="yes"/>
      <point x="71" y="817"/>
      <point x="24" y="770"/>
      <point x="24" y="703" type="curve" smooth="yes"/>
      <point x="24" y="636"/>
      <point x="71" y="589"/>
      <point x="138" y="589" type="curve" smooth="yes"/>
      <point x="205" y="589"/>
      <point x="252" y="636"/>
      <point x="252" y="703" type="curve" smooth="yes"/>
      <point x="252" y="770"/>
      <point x="205" y="817"/>
    </contour>
  </outline>
</glyph>
<glyph name="dieresiscomb" format="2">
  <advance width="980"/>
  <unicode hex="0308"/>
  <anchor x="470" y="1094" name="_top"/>
  <anchor x="470" y="1540" name="top"/>
  <outline>
    <contour>
      <point x="268" y="1564" type="curve" smooth="yes"/>
      <point x="164" y="1564"/>
      <point x="92" y="1490"/>
      <point x="92" y="1386" type="curve" smooth="yes"/>
      <point x="92" y="1284"/>
      <point x="164" y="1210"/>
      <point x="268" y="1210" type="curve" smooth="yes"/>
      <point x="372" y="1210"/>
      <point x="444" y="1284"/>
      <point x="444" y="1386" type="curve" smooth="yes"/>
      <point x="444" y="1490"/>
      <point x="372" y="1564"/>
    </contour>
    <contour>
      <point x="672" y="1564" type="curve" smooth="yes"/>
      <point x="568" y="1564"/>
      <point x="496" y="1490"/>
      <point x="496" y="1386" type="curve" smooth="yes"/>
      <point x="496" y="1284"/>
      <point x="568" y="1210"/>
      <point x="672" y="1210" type="curve" smooth="yes"/>
      <point x="776" y="1210"/>
      <point x="848" y="1284"/>
      <point x="848" y="1386" type="curve" smooth="yes"/>
      <point x="848" y="1490"/>
      <point x="776" y="1564"/>
    </contour>
  </outline>
</glyph>
<glyph name="hookabovecomb" format="2">
  <advance width="335"/>
  <unicode hex="0309"/>
  <anchor x="168" y="547" name="_top"/>
  <anchor x="168" y="774" name="top"/>
  <outline>
    <contour>
      <point x="179" y="837" type="curve" smooth="yes"/>
      <point x="131" y="837"/>
      <point x="86" y="822"/>
      <point x="40" y="793" type="curve"/>
      <point x="94" y="710" type="line"/>
      <point x="106" y="720"/>
      <point x="121" y="725"/>
      <point x="133" y="725" type="curve" smooth="yes"/>
      <point x="150" y="725"/>
      <point x="161" y="715"/>
      <point x="161" y="698" type="curve" smooth="yes"/>
      <point x="161" y="676"/>
      <point x="144" y="649"/>
      <point x="114" y="624" type="curve"/>
      <point x="206" y="587" type="line"/>
      <point x="267" y="633"/>
      <point x="300" y="682"/>
      <point x="300" y="735" type="curve" smooth="yes"/>
      <point x="300" y="792"/>
      <point x="262" y="837"/>
    </contour>
  </outline>
  <guideline angle="90" x="10" y="0"/>
</glyph>
<glyph name="ringcomb" format="2">
  <advance width="638"/>
  <unicode hex="030A"/>
  <anchor x="318" y="1094" name="_top"/>
  <anchor x="318" y="1590" name="top"/>
  <outline>
    <contour>
      <point x="318" y="1654" type="curve" smooth="yes"/>
      <point x="180" y="1654"/>
      <point x="70" y="1544"/>
      <point x="70" y="1406" type="curve" smooth="yes"/>
      <point x="70" y="1268"/>
      <point x="180" y="1158"/>
      <point x="318" y="1158" type="curve" smooth="yes"/>
      <point x="456" y="1158"/>
      <point x="566" y="1268"/>
      <point x="566" y="1406" type="curve" smooth="yes"/>
      <point x="566" y="1544"/>
      <point x="456" y="1654"/>
    </contour>
    <contour>
      <point x="318" y="1484" type="curve" smooth="yes"/>
      <point x="362" y="1484"/>
      <point x="396" y="1450"/>
      <point x="396" y="1406" type="curve" smooth="yes"/>
      <point x="396" y="1362"/>
      <point x="362" y="1328"/>
      <point x="318" y="1328" type="curve" smooth="yes"/>
      <point x="274" y="1328"/>
      <point x="240" y="1362"/>
      <point x="240" y="1406" type="curve" smooth="yes"/>
      <point x="240" y="1450"/>
      <point x="274" y="1484"/>
    </contour>
  </outline>
</glyph>
<glyph name="hungarumlautcomb" format="2">
  <advance width="1140"/>
  <unicode hex="030B"/>
  <anchor x="570" y="1094" name="_top"/>
  <anchor x="570" y="1560" name="top"/>
  <outline>
    <contour>
      <point x="172" y="1202" type="line"/>
      <point x="484" y="1182" type="line"/>
      <point x="662" y="1454" type="line"/>
      <point x="338" y="1560" type="line"/>
    </contour>
    <contour>
      <point x="614" y="1202" type="line"/>
      <point x="926" y="1182" type="line"/>
      <point x="1104" y="1454" type="line"/>
      <point x="780" y="1560" type="line"/>
    </contour>
  </outline>
</glyph>
<glyph name="dblgravecomb" format="2">
  <advance width="570"/>
  <unicode hex="030F"/>
  <anchor x="305" y="547" name="_top"/>
  <anchor x="305" y="781" name="top"/>
  <outline>
    <contour>
      <point x="271" y="727" type="line"/>
      <point x="360" y="591" type="line"/>
      <point x="515" y="601" type="line"/>
      <point x="433" y="780" type="line"/>
    </contour>
    <contour>
      <point x="50" y="727" type="line"/>
      <point x="139" y="591" type="line"/>
      <point x="294" y="601" type="line"/>
      <point x="212" y="780" type="line"/>
    </contour>
  </outline>
</glyph>
<glyph name="breveinvertedcomb" format="2">
  <advance width="776"/>
  <unicode hex="0311"/>
  <anchor x="390" y="1094" name="_top"/>
  <anchor x="388" y="1480" name="top"/>
  <outline>
    <contour>
      <point x="290" y="1190" type="line"/>
      <point x="296" y="1250"/>
      <point x="334" y="1290"/>
      <point x="388" y="1290" type="curve" smooth="yes"/>
      <point x="442" y="1290"/>
      <point x="480" y="1250"/>
      <point x="486" y="1190" type="curve"/>
      <point x="756" y="1190" type="line"/>
      <point x="746" y="1402"/>
      <point x="602" y="1538"/>
      <point x="388" y="1538" type="curve" smooth="yes"/>
      <point x="174" y="1538"/>
      <point x="30" y="1402"/>
      <point x="20" y="1190" type="curve"/>
    </contour>
  </outline>
  <guideline angle="90" x="390" y="0"/>
</glyph>
<glyph name="horncomb" format="2">
  <advance width="254"/>
  <unicode hex="031B"/>
  <anchor x="0" y="547" name="_topright"/>
  <outline>
    <contour>
      <point x="23" y="648" type="line"/>
      <point x="47" y="619"/>
      <point x="52" y="547"/>
      <point x="-10" y="547" type="curve"/>
      <point x="-30" y="438" type="line"/>
      <point x="165" y="438"/>
      <point x="245" y="534"/>
      <point x="176" y="705" type="curve"/>
    </contour>
  </outline>
</glyph>
<glyph name="commaaccentcomb" format="2">
  <advance width="272"/>
  <unicode hex="0326"/>
  <anchor x="135" y="0" name="_bottom"/>
  <anchor x="134" y="-224" name="bottom"/>
  <outline>
    <contour>
      <point x="14" y="-244" type="line"/>
      <point x="134" y="-244" type="line"/>
      <point x="220" y="-61" type="line"/>
      <point x="45" y="-61" type="line"/>
    </contour>
  </outline>
</glyph>
<glyph name="cedillacomb" format="2">
  <advance width="342"/>
  <unicode hex="0327"/>
  <anchor x="189" y="0" name="_bottom"/>
  <anchor x="161" y="-265" name="bottom"/>
  <anchor x="183" y="547" name="top"/>
  <outline>
    <contour>
      <point x="99" y="-100" type="line"/>
      <point x="104" y="-100"/>
      <point x="110" y="-100"/>
      <point x="116" y="-100" type="curve" smooth="yes"/>
      <point x="144" y="-100"/>
      <point x="173" y="-106"/>
      <point x="173" y="-123" type="curve" smooth="yes"/>
      <point x="173" y="-136"/>
      <point x="155" y="-142"/>
      <point x="133" y="-142" type="curve" smooth="yes"/>
      <point x="118" y="-142"/>
      <point x="102" y="-140"/>
      <point x="88" y="-135" type="curve"/>
      <point x="58" y="-225" type="line"/>
      <point x="94" y="-237"/>
      <point x="137" y="-244"/>
      <point x="177" y="-244" type="curve" smooth="yes"/>
      <point x="245" y="-244"/>
      <point x="314" y="-217"/>
      <point x="314" y="-142" type="curve" smooth="yes"/>
      <point x="314" y="-105"/>
      <point x="291" y="-75"/>
      <point x="231" y="-59" type="curve"/>
      <point x="253" y="0" type="line"/>
      <point x="135" y="10" type="line"/>
    </contour>
  </outline>
</glyph>
<glyph name="ogonekcomb" format="2">
  <advance width="322"/>
  <unicode hex="0328"/>
  <anchor x="262" y="0" name="_ogonek"/>
  <outline>
    <contour>
      <point x="139" y="43" type="line"/>
      <point x="79" y="-9"/>
      <point x="46" y="-68"/>
      <point x="46" y="-127" type="curve" smooth="yes"/>
      <point x="46" y="-191"/>
      <point x="82" y="-244"/>
      <point x="162" y="-244" type="curve" smooth="yes"/>
      <point x="200" y="-244"/>
      <point x="240" y="-232"/>
      <point x="269" y="-219" type="curve"/>
      <point x="238" y="-108" type="line"/>
      <point x="229" y="-113"/>
      <point x="220" y="-116"/>
      <point x="213" y="-116" type="curve" smooth="yes"/>
      <point x="200" y="-116"/>
      <point x="193" y="-107"/>
      <point x="193" y="-90" type="curve" smooth="yes"/>
      <point x="193" y="-57"/>
      <point x="225" y="-26"/>
      <point x="262" y="0" type="curve"/>
    </contour>
  </outline>
</glyph>
<glyph name="strokeshortcomb" format="2">
  <advance width="874"/>
  <unicode hex="0335"/>
  <anchor x="438" y="866" name="_center"/>
  <outline>
    <contour>
      <point x="10" y="746" type="line"/>
      <point x="864" y="746" type="line"/>
      <point x="864" y="984" type="line"/>
      <point x="10" y="984" type="line"/>
    </contour>
  </outline>
</glyph>
<glyph name="strokelongcomb" format="2">
  <advance width="600"/>
  <unicode hex="0336"/>
  <anchor x="298" y="433" name="_center"/>
  <outline>
    <contour>
      <point x="70" y="373" type="line"/>
      <point x="525" y="373" type="line"/>
      <point x="525" y="492" type="line"/>
      <point x="70" y="492" type="line"/>
    </contour>
  </outline>
</glyph>
<glyph name="slashshortcomb" format="2">
  <advance width="746"/>
  <unicode hex="0337"/>
  <outline>
    <contour>
      <point x="388" y="1140" type="line"/>
      <point x="40" y="178" type="line"/>
      <point x="416" y="178" type="line"/>
      <point x="764" y="1140" type="line"/>
    </contour>
  </outline>
</glyph>
<glyph name="slashlongcomb" format="2">
  <advance width="373"/>
  <unicode hex="0338"/>
  <outline>
    <contour>
      <point x="176" y="0" type="line"/>
      <point x="444" y="742" type="line"/>
      <point x="256" y="742" type="line"/>
      <point x="-12" y="0" type="line"/>
    </contour>
  </outline>
</glyph>
<glyph name="tonos" format="2">
  <advance width="450"/>
  <unicode hex="0384"/>
  <anchor x="-112" y="1520" name="t.uni0308"/>
  <anchor x="-112" y="0" name="b.uni0324_3"/>
  <anchor x="114" y="0" name="m.uni0328_4"/>
  <outline>
    <contour>
      <point x="-20" y="1214" type="line"/>
      <point x="104" y="1534" type="line"/>
      <point x="488" y="1534" type="line"/>
      <point x="234" y="1214" type="line"/>
    </contour>
  </outline>
</glyph>
<glyph name="Alphatonos" format="2">
  <advance width="1612"/>
  <unicode hex="0386"/>
  <anchor x="806" y="1400" name="t.uni0308"/>
  <anchor x="806" y="0" name="b.uni0324_3"/>
  <anchor x="1650" y="0" name="m.uni0328_4"/>
  <outline>
    <contour>
      <point x="-38" y="0" type="line"/>
      <point x="574" y="1400" type="line"/>
      <point x="1038" y="1400" type="line"/>
      <point x="1650" y="0" type="line"/>
      <point x="1162" y="0" type="line"/>
      <point x="710" y="1176" type="line"/>
      <point x="894" y="1176" type="line"/>
      <point x="442" y="0" type="line"/>
    </contour>
    <contour>
      <point x="326" y="244" type="line"/>
      <point x="446" y="584" type="line"/>
      <point x="1090" y="584" type="line"/>
      <point x="1210" y="244" type="line"/>
    </contour>
    <contour>
      <point x="26" y="1214" type="line"/>
      <point x="150" y="1534" type="line"/>
      <point x="534" y="1534" type="line"/>
      <point x="280" y="1214" type="line"/>
    </contour>
  </outline>
</glyph>
<glyph name="Epsilontonos" format="2">
  <advance width="919"/>
  <unicode hex="0388"/>
  <anchor x="588" y="700" name="t.uni0308"/>
  <anchor x="588" y="0" name="b.uni0324_3"/>
  <anchor x="885" y="0" name="m.uni0328_4"/>
  <outline>
    <contour>
      <point x="519" y="440" type="line"/>
      <point x="831" y="440" type="line"/>
      <point x="831" y="270" type="line"/>
      <point x="519" y="270" type="line"/>
    </contour>
    <contour>
      <point x="535" y="178" type="line"/>
      <point x="885" y="178" type="line"/>
      <point x="885" y="0" type="line"/>
      <point x="303" y="0" type="line"/>
      <point x="303" y="700" type="line"/>
      <point x="872" y="700" type="line"/>
      <point x="872" y="522" type="line"/>
      <point x="535" y="522" type="line"/>
    </contour>
    <contour>
      <point x="3" y="607" type="line"/>
      <point x="65" y="767" type="line"/>
      <point x="257" y="767" type="line"/>
      <point x="130" y="607" type="line"/>
    </contour>
  </outline>
</glyph>
<glyph name="Etatonos" format="2">
  <advance width="2064"/>
  <unicode hex="0389"/>
  <anchor x="1260" y="1400" name="t.uni0308"/>
  <anchor x="1260" y="1152" name="t.uni0307_1"/>
  <anchor x="1260" y="0" name="b.uni0324_3"/>
  <outline>
    <contour>
      <point x="1478" y="1400" type="line"/>
      <point x="1950" y="1400" type="line"/>
      <point x="1950" y="0" type="line"/>
      <point x="1478" y="0" type="line"/>
    </contour>
    <contour>
      <point x="1042" y="0" type="line"/>
      <point x="570" y="0" type="line"/>
      <point x="570" y="1400" type="line"/>
      <point x="1042" y="1400" type="line"/>
    </contour>
    <contour>
      <point x="1510" y="516" type="line"/>
      <point x="1010" y="516" type="line"/>
      <point x="1010" y="904" type="line"/>
      <point x="1510" y="904" type="line"/>
    </contour>
    <contour>
      <point x="-16" y="1214" type="line"/>
      <point x="108" y="1534" type="line"/>
      <point x="492" y="1534" type="line"/>
      <point x="238" y="1214" type="line"/>
    </contour>
  </outline>
</glyph>
<glyph name="Iotatonos" format="2">
  <advance width="546"/>
  <unicode hex="038A"/>
  <anchor x="371" y="700" name="t.uni0308"/>
  <anchor x="371" y="0" name="b.uni0324_3"/>
  <anchor x="489" y="0" name="m.uni0328_4"/>
  <outline>
    <contour>
      <point x="253" y="0" type="line"/>
      <point x="253" y="700" type="line"/>
      <point x="489" y="700" type="line"/>
      <point x="489" y="0" type="line"/>
    </contour>
    <contour>
      <point x="-6" y="607" type="line"/>
      <point x="56" y="767" type="line"/>
      <point x="248" y="767" type="line"/>
      <point x="121" y="607" type="line"/>
    </contour>
  </outline>
</glyph>
<glyph name="Omicrontonos" format="2">
  <advance width="923"/>
  <unicode hex="038C"/>
  <anchor x="499" y="700" name="t.uni0308"/>
  <anchor x="499" y="350" name="t.uni0307_1"/>
  <anchor x="665" y="700" name="t.uni031B_2"/>
  <anchor x="499" y="0" name="b.uni0324_3"/>
  <anchor x="622" y="0" name="m.uni0328_4"/>
  <outline>
    <contour>
      <point x="500" y="-16" type="qcurve" smooth="yes"/>
      <point x="414" y="-16"/>
      <point x="269" y="38"/>
      <point x="163" y="137"/>
      <point x="104" y="271"/>
      <point x="104" y="350" type="qcurve" smooth="yes"/>
      <point x="104" y="430"/>
      <point x="163" y="563"/>
      <point x="269" y="662"/>
      <point x="414" y="716"/>
      <point x="499" y="716" type="qcurve" smooth="yes"/>
      <point x="585" y="716"/>
      <point x="729" y="662"/>
      <point x="835" y="563"/>
      <point x="894" y="430"/>
      <point x="894" y="350" type="qcurve" smooth="yes"/>
      <point x="894" y="271"/>
      <point x="835" y="137"/>
      <point x="729" y="38"/>
      <point x="585" y="-16"/>
    </contour>
    <contour>
      <point x="499" y="175" type="qcurve" smooth="yes"/>
      <point x="532" y="175"/>
      <point x="589" y="199"/>
      <point x="632" y="244"/>
      <point x="656" y="309"/>
      <point x="656" y="350" type="qcurve" smooth="yes"/>
      <point x="656" y="391"/>
      <point x="632" y="456"/>
      <point x="589" y="501"/>
      <point x="532" y="525"/>
      <point x="499" y="525" type="qcurve" smooth="yes"/>
      <point x="466" y="525"/>
      <point x="409" y="501"/>
      <point x="366" y="456"/>
      <point x="342" y="391"/>
      <point x="342" y="350" type="qcurve" smooth="yes"/>
      <point x="342" y="309"/>
      <point x="366" y="244"/>
      <point x="409" y="199"/>
      <point x="466" y="175"/>
    </contour>
    <contour>
      <point x="-10" y="607" type="line"/>
      <point x="52" y="767" type="line"/>
      <point x="244" y="767" type="line"/>
      <point x="117" y="607" type="line"/>
    </contour>
  </outline>
</glyph>
<glyph name="Upsilontonos" format="2">
  <advance width="1062"/>
  <unicode hex="038E"/>
  <anchor x="666" y="700" name="t.uni0308"/>
  <anchor x="660" y="266" name="t.uni0307_1"/>
  <anchor x="666" y="0" name="b.uni0324_3"/>
  <outline>
    <contour>
      <point x="548" y="0" type="line"/>
      <point x="548" y="307" type="line"/>
      <point x="602" y="166" type="line"/>
      <point x="284" y="700" type="line"/>
      <point x="533" y="700" type="line"/>
      <point x="748" y="335" type="line"/>
      <point x="603" y="335" type="line"/>
      <point x="820" y="700" type="line"/>
      <point x="1048" y="700" type="line"/>
      <point x="732" y="166" type="line"/>
      <point x="784" y="307" type="line"/>
      <point x="784" y="0" type="line"/>
    </contour>
    <contour>
      <point x="-8" y="607" type="line"/>
      <point x="54" y="767" type="line"/>
      <point x="246" y="767" type="line"/>
      <point x="119" y="607" type="line"/>
    </contour>
  </outline>
</glyph>
<glyph name="Omegatonos" format="2">
  <advance width="928"/>
  <unicode hex="038F"/>
  <outline>
    <contour>
      <point x="58" y="0" type="line"/>
      <point x="58" y="183" type="line"/>
      <point x="178" y="183" type="line"/>
      <point x="143" y="221"/>
      <point x="98" y="328"/>
      <point x="98" y="394" type="qcurve" smooth="yes"/>
      <point x="98" y="465"/>
      <point x="157" y="583"/>
      <point x="263" y="669"/>
      <point x="406" y="716"/>
      <point x="489" y="716" type="qcurve" smooth="yes"/>
      <point x="572" y="716"/>
      <point x="715" y="669"/>
      <point x="821" y="583"/>
      <point x="880" y="464"/>
      <point x="880" y="393" type="qcurve" smooth="yes"/>
      <point x="880" y="327"/>
      <point x="835" y="221"/>
      <point x="800" y="183" type="qcurve"/>
      <point x="920" y="183" type="line"/>
      <point x="920" y="0" type="line"/>
      <point x="530" y="0" type="line"/>
      <point x="530" y="170" type="line"/>
      <point x="584" y="199"/>
      <point x="646" y="299"/>
      <point x="646" y="361" type="qcurve" smooth="yes"/>
      <point x="646" y="401"/>
      <point x="622" y="462"/>
      <point x="579" y="504"/>
      <point x="522" y="525"/>
      <point x="489" y="525" type="qcurve" smooth="yes"/>
      <point x="456" y="525"/>
      <point x="399" y="504"/>
      <point x="356" y="462"/>
      <point x="332" y="401"/>
      <point x="332" y="361" type="qcurve" smooth="yes"/>
      <point x="332" y="298"/>
      <point x="395" y="197"/>
      <point x="448" y="170" type="qcurve"/>
      <point x="448" y="0" type="line"/>
    </contour>
    <contour>
      <point x="-10" y="607" type="line"/>
      <point x="52" y="767" type="line"/>
      <point x="244" y="767" type="line"/>
      <point x="117" y="607" type="line"/>
    </contour>
  </outline>
</glyph>
<glyph name="iotadieresistonos" format="2">
  <advance width="502"/>
  <unicode hex="0390"/>
  <anchor x="282" y="547" name="t.uni0308"/>
  <anchor x="282" y="0" name="b.uni0324_3"/>
  <anchor x="395" y="0" name="m.uni0328_4"/>
  <outline>
    <contour>
      <point x="140" y="0" type="line"/>
      <point x="140" y="547" type="line"/>
      <point x="366" y="547" type="line"/>
      <point x="366" y="0" type="line"/>
    </contour>
    <contour>
      <point x="185" y="838" type="line"/>
      <point x="247" y="998" type="line"/>
      <point x="439" y="998" type="line"/>
      <point x="312" y="838" type="line"/>
    </contour>
    <contour>
      <point x="362" y="612" type="qcurve" smooth="yes"/>
      <point x="324" y="612"/>
      <point x="272" y="660"/>
      <point x="272" y="700" type="qcurve" smooth="yes"/>
      <point x="272" y="740"/>
      <point x="324" y="789"/>
      <point x="362" y="789" type="qcurve" smooth="yes"/>
      <point x="400" y="789"/>
      <point x="452" y="740"/>
      <point x="452" y="700" type="qcurve" smooth="yes"/>
      <point x="452" y="660"/>
      <point x="400" y="612"/>
    </contour>
    <contour>
      <point x="140" y="612" type="qcurve" smooth="yes"/>
      <point x="102" y="612"/>
      <point x="50" y="660"/>
      <point x="50" y="700" type="qcurve" smooth="yes"/>
      <point x="50" y="740"/>
      <point x="102" y="789"/>
      <point x="140" y="789" type="qcurve" smooth="yes"/>
      <point x="178" y="789"/>
      <point x="230" y="740"/>
      <point x="230" y="700" type="qcurve" smooth="yes"/>
      <point x="230" y="660"/>
      <point x="178" y="612"/>
    </contour>
  </outline>
</glyph>
<glyph name="Alpha" format="2">
  <advance width="806"/>
  <unicode hex="0391"/>
  <anchor x="403" y="700" name="t.uni0308"/>
  <anchor x="403" y="0" name="b.uni0324_3"/>
  <anchor x="825" y="0" name="m.uni0328_4"/>
  <outline>
    <contour>
      <point x="-19" y="0" type="line"/>
      <point x="287" y="700" type="line"/>
      <point x="519" y="700" type="line"/>
      <point x="825" y="0" type="line"/>
      <point x="581" y="0" type="line"/>
      <point x="355" y="588" type="line"/>
      <point x="447" y="588" type="line"/>
      <point x="221" y="0" type="line"/>
    </contour>
    <contour>
      <point x="163" y="122" type="line"/>
      <point x="223" y="292" type="line"/>
      <point x="545" y="292" type="line"/>
      <point x="605" y="122" type="line"/>
    </contour>
  </outline>
</glyph>
<glyph name="Beta" format="2">
  <advance width="773"/>
  <unicode hex="0392"/>
  <anchor x="382" y="700" name="t.uni0308"/>
  <anchor x="382" y="0" name="b.uni0324_3"/>
  <outline>
    <contour>
      <point x="57" y="0" type="line"/>
      <point x="57" y="700" type="line"/>
      <point x="431" y="700" type="line" smooth="yes"/>
      <point x="576" y="700"/>
      <point x="714" y="597"/>
      <point x="714" y="517" type="qcurve" smooth="yes"/>
      <point x="714" y="464"/>
      <point x="655" y="381"/>
      <point x="543" y="333"/>
      <point x="461" y="333" type="qcurve"/>
      <point x="481" y="387" type="line"/>
      <point x="563" y="387"/>
      <point x="682" y="341"/>
      <point x="747" y="254"/>
      <point x="747" y="193" type="qcurve" smooth="yes"/>
      <point x="747" y="102"/>
      <point x="596" y="0"/>
      <point x="451" y="0" type="qcurve" smooth="yes"/>
    </contour>
    <contour>
      <point x="289" y="165" type="line"/>
      <point x="431" y="165" type="line" smooth="yes"/>
      <point x="470" y="165"/>
      <point x="509" y="193"/>
      <point x="509" y="220" type="qcurve" smooth="yes"/>
      <point x="509" y="247"/>
      <point x="470" y="275"/>
      <point x="431" y="275" type="qcurve" smooth="yes"/>
      <point x="273" y="275" type="line"/>
      <point x="273" y="431" type="line"/>
      <point x="399" y="431" type="line" smooth="yes"/>
      <point x="439" y="431"/>
      <point x="476" y="458"/>
      <point x="476" y="483" type="qcurve" smooth="yes"/>
      <point x="476" y="509"/>
      <point x="439" y="535"/>
      <point x="399" y="535" type="qcurve" smooth="yes"/>
      <point x="289" y="535" type="line"/>
    </contour>
  </outline>
</glyph>
<glyph name="Gamma" format="2">
  <advance width="611"/>
  <unicode hex="0393"/>
  <anchor x="318" y="700" name="t.uni0308"/>
  <outline>
    <contour>
      <point x="62" y="0" type="line"/>
      <point x="62" y="700" type="line"/>
      <point x="595" y="700" type="line"/>
      <point x="595" y="517" type="line"/>
      <point x="243" y="517" type="line"/>
      <point x="294" y="568" type="line"/>
      <point x="294" y="0" type="line"/>
    </contour>
  </outline>
</glyph>
<glyph name="Delta" format="2">
  <advance width="798"/>
  <unicode hex="0394"/>
  <outline>
    <contour>
      <point x="-10" y="0" type="line"/>
      <point x="228" y="0" type="line"/>
      <point x="397" y="469" type="line"/>
      <point x="561" y="0" type="line"/>
      <point x="808" y="0" type="line"/>
      <point x="523" y="700" type="line"/>
      <point x="286" y="700" type="line"/>
    </contour>
    <contour>
      <point x="190" y="0" type="line"/>
      <point x="591" y="0" type="line"/>
      <point x="591" y="166" type="line"/>
      <point x="190" y="166" type="line"/>
    </contour>
  </outline>
</glyph>
<glyph name="Zeta" format="2">
  <advance width="1374"/>
  <unicode hex="0396"/>
  <anchor x="708" y="1400" name="t.uni0308"/>
  <anchor x="708" y="0" name="b.uni0324_3"/>
  <outline>
    <contour>
      <point x="64" y="0" type="line"/>
      <point x="64" y="290" type="line"/>
      <point x="844" y="1198" type="line"/>
      <point x="902" y="1034" type="line"/>
      <point x="84" y="1034" type="line"/>
      <point x="84" y="1400" type="line"/>
      <point x="1318" y="1400" type="line"/>
      <point x="1318" y="1110" type="line"/>
      <point x="538" y="202" type="line"/>
      <point x="480" y="366" type="line"/>
      <point x="1350" y="366" type="line"/>
      <point x="1350" y="0" type="line"/>
    </contour>
  </outline>
</glyph>
<glyph name="Eta" format="2">
  <advance width="1608"/>
  <unicode hex="0397"/>
  <anchor x="804" y="1400" name="t.uni0308"/>
  <anchor x="804" y="1152" name="t.uni0307_1"/>
  <anchor x="804" y="0" name="b.uni0324_3"/>
  <outline>
    <contour>
      <point x="1022" y="1400" type="line"/>
      <point x="1494" y="1400" type="line"/>
      <point x="1494" y="0" type="line"/>
      <point x="1022" y="0" type="line"/>
    </contour>
    <contour>
      <point x="586" y="0" type="line"/>
      <point x="114" y="0" type="line"/>
      <point x="114" y="1400" type="line"/>
      <point x="586" y="1400" type="line"/>
    </contour>
    <contour>
      <point x="1054" y="516" type="line"/>
      <point x="554" y="516" type="line"/>
      <point x="554" y="904" type="line"/>
      <point x="1054" y="904" type="line"/>
    </contour>
  </outline>
</glyph>
<glyph name="Iota" format="2">
  <advance width="700"/>
  <unicode hex="0399"/>
  <anchor x="350" y="1400" name="t.uni0308"/>
  <anchor x="350" y="0" name="b.uni0324_3"/>
  <anchor x="586" y="0" name="m.uni0328_4"/>
  <outline>
    <contour>
      <point x="114" y="0" type="line"/>
      <point x="114" y="1400" type="line"/>
      <point x="586" y="1400" type="line"/>
      <point x="586" y="0" type="line"/>
    </contour>
  </outline>
</glyph>
<glyph name="Kappa" format="2">
  <advance width="765"/>
  <unicode hex="039A"/>
  <anchor x="384" y="700" name="t.uni0308"/>
  <anchor x="384" y="0" name="b.uni0324_3"/>
  <outline>
    <contour>
      <point x="268" y="150" type="line"/>
      <point x="255" y="409" type="line"/>
      <point x="519" y="700" type="line"/>
      <point x="776" y="700" type="line"/>
      <point x="480" y="374" type="line"/>
      <point x="349" y="240" type="line"/>
    </contour>
    <contour>
      <point x="57" y="0" type="line"/>
      <point x="57" y="700" type="line"/>
      <point x="289" y="700" type="line"/>
      <point x="289" y="0" type="line"/>
    </contour>
    <contour>
      <point x="517" y="0" type="line"/>
      <point x="311" y="272" type="line"/>
      <point x="464" y="434" type="line"/>
      <point x="790" y="0" type="line"/>
    </contour>
  </outline>
</glyph>
<glyph name="Lambda" format="2">
  <advance width="806"/>
  <unicode hex="039B"/>
  <anchor x="403" y="700" name="t.uni0308"/>
  <anchor x="403" y="0" name="b.uni0324_3"/>
  <anchor x="825" y="0" name="m.uni0328_4"/>
  <outline>
    <contour>
      <point x="-19" y="0" type="line"/>
      <point x="287" y="700" type="line"/>
      <point x="519" y="700" type="line"/>
      <point x="825" y="0" type="line"/>
      <point x="581" y="0" type="line"/>
      <point x="355" y="588" type="line"/>
      <point x="447" y="588" type="line"/>
      <point x="221" y="0" type="line"/>
    </contour>
  </outline>
</glyph>
<glyph name="Mu" format="2">
  <advance width="954"/>
  <unicode hex="039C"/>
  <anchor x="476" y="700" name="t.uni0308"/>
  <anchor x="476" y="0" name="b.uni0324_3"/>
  <outline>
    <contour>
      <point x="57" y="0" type="line"/>
      <point x="57" y="700" type="line"/>
      <point x="251" y="700" type="line"/>
      <point x="531" y="243" type="line"/>
      <point x="429" y="243" type="line"/>
      <point x="701" y="700" type="line"/>
      <point x="895" y="700" type="line"/>
      <point x="897" y="0" type="line"/>
      <point x="682" y="0" type="line"/>
      <point x="680" y="376" type="line"/>
      <point x="714" y="376" type="line"/>
      <point x="528" y="63" type="line"/>
      <point x="424" y="63" type="line"/>
      <point x="230" y="376" type="line"/>
      <point x="272" y="376" type="line"/>
      <point x="272" y="0" type="line"/>
    </contour>
  </outline>
</glyph>
<glyph name="Nu" format="2">
  <advance width="1608"/>
  <unicode hex="039D"/>
  <anchor x="804" y="1400" name="t.uni0308"/>
  <anchor x="804" y="0" name="b.uni0324_3"/>
  <outline>
    <contour>
      <point x="114" y="0" type="line"/>
      <point x="114" y="1400" type="line"/>
      <point x="502" y="1400" type="line"/>
      <point x="1214" y="548" type="line"/>
      <point x="1034" y="548" type="line"/>
      <point x="1034" y="1400" type="line"/>
      <point x="1494" y="1400" type="line"/>
      <point x="1494" y="0" type="line"/>
      <point x="1106" y="0" type="line"/>
      <point x="394" y="852" type="line"/>
      <point x="574" y="852" type="line"/>
      <point x="574" y="0" type="line"/>
    </contour>
  </outline>
</glyph>
<glyph name="Xi" format="2">
  <advance width="1488"/>
  <unicode hex="039E"/>
  <anchor x="782" y="1400" name="t.uni0308"/>
  <anchor x="782" y="0" name="b.uni0324_3"/>
  <outline>
    <contour>
      <point x="256" y="564" type="line"/>
      <point x="256" y="848" type="line"/>
      <point x="1236" y="848" type="line"/>
      <point x="1236" y="564" type="line"/>
    </contour>
    <contour>
      <point x="114" y="0" type="line"/>
      <point x="114" y="364" type="line"/>
      <point x="1374" y="364" type="line"/>
      <point x="1374" y="0" type="line"/>
    </contour>
    <contour>
      <point x="144" y="1034" type="line"/>
      <point x="144" y="1400" type="line"/>
      <point x="1344" y="1400" type="line"/>
      <point x="1344" y="1034" type="line"/>
    </contour>
  </outline>
</glyph>
<glyph name="Omicron" format="2">
  <advance width="1696"/>
  <unicode hex="039F"/>
  <anchor x="848" y="1400" name="t.uni0308"/>
  <anchor x="848" y="700" name="t.uni0307_1"/>
  <anchor x="1180" y="1400" name="t.uni031B_2"/>
  <anchor x="848" y="0" name="b.uni0324_3"/>
  <anchor x="1094" y="0" name="m.uni0328_4"/>
  <outline>
    <contour>
      <point x="850" y="-32" type="qcurve" smooth="yes"/>
      <point x="678" y="-32"/>
      <point x="388" y="76"/>
      <point x="176" y="274"/>
      <point x="58" y="542"/>
      <point x="58" y="700" type="qcurve" smooth="yes"/>
      <point x="58" y="860"/>
      <point x="176" y="1126"/>
      <point x="388" y="1324"/>
      <point x="678" y="1432"/>
      <point x="848" y="1432" type="qcurve" smooth="yes"/>
      <point x="1020" y="1432"/>
      <point x="1308" y="1324"/>
      <point x="1520" y="1126"/>
      <point x="1638" y="860"/>
      <point x="1638" y="700" type="qcurve" smooth="yes"/>
      <point x="1638" y="542"/>
      <point x="1520" y="274"/>
      <point x="1308" y="76"/>
      <point x="1020" y="-32"/>
    </contour>
    <contour>
      <point x="848" y="350" type="qcurve" smooth="yes"/>
      <point x="914" y="350"/>
      <point x="1028" y="398"/>
      <point x="1114" y="488"/>
      <point x="1162" y="618"/>
      <point x="1162" y="700" type="qcurve" smooth="yes"/>
      <point x="1162" y="782"/>
      <point x="1114" y="912"/>
      <point x="1028" y="1002"/>
      <point x="914" y="1050"/>
      <point x="848" y="1050" type="qcurve" smooth="yes"/>
      <point x="782" y="1050"/>
      <point x="668" y="1002"/>
      <point x="582" y="912"/>
      <point x="534" y="782"/>
      <point x="534" y="700" type="qcurve" smooth="yes"/>
      <point x="534" y="618"/>
      <point x="582" y="488"/>
      <point x="668" y="398"/>
      <point x="782" y="350"/>
    </contour>
  </outline>
</glyph>
<glyph name="Pi" format="2">
  <advance width="801"/>
  <unicode hex="03A0"/>
  <outline>
    <contour>
      <point x="62" y="0" type="line"/>
      <point x="62" y="700" type="line"/>
      <point x="739" y="700" type="line"/>
      <point x="739" y="0" type="line"/>
      <point x="507" y="0" type="line"/>
      <point x="507" y="567" type="line"/>
      <point x="558" y="517" type="line"/>
      <point x="243" y="517" type="line"/>
      <point x="294" y="567" type="line"/>
      <point x="294" y="0" type="line"/>
    </contour>
  </outline>
</glyph>
<glyph name="Rho" format="2">
  <advance width="1486"/>
  <unicode hex="03A1"/>
  <outline>
    <contour>
      <point x="114" y="0" type="line"/>
      <point x="114" y="1400" type="line"/>
      <point x="788" y="1400" type="line" smooth="yes"/>
      <point x="984" y="1400"/>
      <point x="1270" y="1272"/>
      <point x="1426" y="1034"/>
      <point x="1426" y="872" type="qcurve" smooth="yes"/>
      <point x="1426" y="710"/>
      <point x="1270" y="474"/>
      <point x="984" y="344"/>
      <point x="788" y="344" type="qcurve" smooth="yes"/>
      <point x="376" y="344" type="line"/>
      <point x="586" y="546" type="line"/>
      <point x="586" y="0" type="line"/>
    </contour>
    <contour>
      <point x="586" y="494" type="line"/>
      <point x="376" y="708" type="line"/>
      <point x="758" y="708" type="line" smooth="yes"/>
      <point x="856" y="708"/>
      <point x="950" y="796"/>
      <point x="950" y="872" type="qcurve" smooth="yes"/>
      <point x="950" y="948"/>
      <point x="856" y="1036"/>
      <point x="758" y="1036" type="qcurve" smooth="yes"/>
      <point x="376" y="1036" type="line"/>
      <point x="586" y="1250" type="line"/>
    </contour>
  </outline>
</glyph>
